<svg width="565" height="425" viewBox="0 0 565 425" fill="none" xmlns="http://www.w3.org/2000/svg">
<g clip-path="url(#clip0_150_3614)">
<path d="M475.624 35.1711C448.701 22.077 418.034 25.567 390.027 34.8368C362.02 44.1066 335.443 58.8555 307.458 68.2306C279.473 77.6058 248.86 81.3247 221.829 68.5131C204.235 60.1743 189.065 45.2533 171.011 38.4638C143.961 28.2897 112.238 39.2411 93.8604 65.0967C75.4825 90.9523 71.522 130.205 84.2294 160.56C87.3909 168.111 91.5635 175.467 92.0578 183.893C92.5521 192.319 87.2595 202.003 80.2539 200.952C71.9849 199.713 68.577 187.843 60.8262 185.295C56.5401 183.886 51.8389 185.939 48.534 189.499C45.2291 193.059 43.1204 197.935 41.4761 202.881C38.6399 211.441 36.9861 220.435 36.5718 229.554C36.179 238.188 35.0142 246.745 34.8573 255.473C34.5083 273.931 36.3926 292.358 40.4591 310.251C48.7595 346.522 66.7565 379.248 90.4808 403.897H500.327C525.416 373.703 532.243 323.501 522.414 282.55C518.609 266.7 512.096 251.839 509.211 235.713C506.326 219.587 512.189 201.161 519.081 186.883C531.738 160.663 534.402 127.824 526.196 99.1775C517.989 70.5305 499.056 46.567 475.624 35.1711Z" fill="#FFF0D5"/>
<path d="M65.2404 125.229C60.4097 117.054 52.1319 120.016 48.51 126.95C43.6306 136.283 42.1399 147.636 45 158.01C46.3835 163.03 48.9099 167.961 53.0543 170.538C57.1987 173.115 63.158 172.534 65.9031 168.248C67.7589 165.353 67.8265 161.55 67.8234 158.005L67.8139 139.804C67.8124 134.781 67.7274 129.438 65.2404 125.229Z" fill="#FFF0D5"/>
<path d="M195.367 196.936C187.154 188.762 177.046 193.673 169.134 199.727C151.433 213.275 132.476 234.856 125.72 264.09C118.288 296.243 117.609 332.822 116.893 367.634C116.794 372.44 115.703 382.451 116.975 389.101C120.023 388.213 123.101 387.408 126.228 386.996C127.491 382.581 128.446 377.583 129.171 374.934C137.641 343.97 149.677 315.458 165.845 293.083C180.182 273.242 198.416 261.998 203.208 230.011C204.693 220.092 203.058 207.912 198.018 200.226C197.241 199.029 196.352 197.926 195.367 196.936Z" fill="#52A9A0"/>
<path d="M111.898 384.746C111.045 381.509 110.187 378.328 109.134 375.166C106.841 368.268 104.219 361.595 101.71 354.859C97.6898 344.078 93.3806 333.42 87.9977 323.908C82.5138 314.217 75.7722 305.732 68.061 301.329C49.5439 290.754 21.6613 304.968 18.5384 335.036C17.5079 344.954 20.0323 356.726 25.8146 363.136C28.5885 366.212 31.885 367.877 35.1415 368.656C39.4663 369.72 43.9807 369.216 48.0337 367.218C57.8654 362.349 68.9326 355.067 80.2642 357.193C81.4301 357.415 82.5739 357.765 83.6795 358.236C89.7677 360.804 95.1669 366.822 99.9722 373.255C103.894 378.506 107.756 383.816 110.036 390.745L113.451 390.028C113.433 389.955 113.423 389.875 113.403 389.801C112.964 388.129 112.374 386.559 111.898 384.746Z" fill="#418A83"/>
<path d="M103.383 243.044C96.4051 221.763 85.3803 202.188 71.3163 192.29C57.2523 182.391 40.087 183.931 30.4411 199.408C28.6081 202.349 27.0391 205.809 26.4035 209.889C24.83 219.979 29.226 231.102 34.3048 239.347C38.6492 246.393 43.6602 252.483 49.0826 257.301C54.7468 262.336 60.8372 265.981 66.3688 271.403C72.909 277.811 78.3314 286.319 82.9943 295.776C87.6573 305.232 91.5622 315.651 95.0616 325.869C98.5846 336.159 101.59 346.791 104.448 357.473C105.865 362.767 112.281 381.325 113.591 390.745L113.949 390.67L116.776 389.806C118.378 380.626 116.057 371.085 115.667 361.172C114.159 322.678 115.451 279.855 103.383 243.044Z" fill="#9BCDA8"/>
<path d="M159.389 250.21C149.216 264.864 141.249 284.172 135.013 309.242C129.505 331.378 125.974 355.211 122.558 378.258C122.111 381.279 121.664 384.286 121.217 387.279L122.217 387.457C122.666 384.466 123.114 381.458 123.56 378.435C126.971 355.416 130.496 331.612 135.992 309.531C142.193 284.603 150.111 265.417 160.192 250.878C166.841 241.288 174.244 232.824 181.406 224.633L180.672 223.869C173.497 232.086 166.071 240.579 159.389 250.21Z" fill="#1C1C1B"/>
<path d="M71.9142 336.491C66.7255 334.213 61.2072 333.521 55.0464 334.379C49.826 335.107 44.7946 336.842 39.6709 338.708L39.9733 339.756C48.9038 336.505 60.0189 332.456 71.5332 337.515C79.6488 341.245 86.691 347.71 93.6954 357.858C100.304 367.434 106.165 379.352 111.602 390.745L112.48 390.228C107.024 378.8 101.141 366.835 94.4891 357.192C87.3774 346.877 80.2052 340.303 71.9142 336.491Z" fill="#1C1C1B"/>
<path d="M97.7604 288.847C94.1905 277.095 90.1276 267.185 85.3388 258.549C79.9301 248.795 73.7656 240.946 66.4898 234.555L65.8818 235.413C73.0635 241.724 79.1549 249.479 84.5023 259.122C89.2508 267.686 93.2838 277.524 96.8298 289.198C103.402 310.839 107.127 335.091 110.721 358.546C112.266 368.606 113.725 378.11 115.4 387.456L116.363 387.242C114.691 377.912 113.226 368.415 111.691 358.362C108.089 334.859 104.36 310.564 97.7604 288.847Z" fill="#1C1C1B"/>
<path d="M477.619 159.75C476.892 159.746 476.167 159.832 475.459 160.009C471.046 161.102 467.512 165.511 466.175 170.281C461.863 185.685 469.383 198.075 472.914 212.42C476.896 228.594 477.292 245.601 475.21 262.125C475.032 263.539 474.471 266.033 474.203 268.411C475.822 269.911 477.32 271.537 478.8 273.193C480.933 270.947 482.507 266.298 483.494 264.246C490.641 249.381 498.193 233.789 501.102 217.205C503.751 202.125 498.07 185.106 491.34 171.977C488.329 166.108 483.874 159.79 477.619 159.75Z" fill="#52A9A0"/>
<path d="M514.757 242.022C509.555 242.482 504.66 245.055 500.471 248.454C496.357 251.792 492.836 255.89 489.489 260.106C487.395 262.742 485.239 265.324 483.272 268.077C482.365 269.341 481.59 270.654 480.809 271.992C480.372 272.743 479.883 273.356 479.485 274.047C479.469 274.077 479.455 274.112 479.438 274.143L481.546 275.191C483.513 272.419 486.342 270.733 489.214 269.09C492.73 267.074 496.596 265.38 500.631 265.45C501.379 265.46 502.124 265.533 502.861 265.67C510.178 267.03 516.63 272.745 522.467 277.072C524.874 278.851 527.624 279.999 530.503 280.428C532.621 280.741 534.824 280.646 536.807 279.781C540.936 277.981 543.415 272.997 543.507 268.128C543.79 253.38 527.245 240.927 514.757 242.022Z" fill="#418A83"/>
<path d="M546.569 202.497C541.594 193.188 530.801 188.838 521.13 190.518C511.458 192.198 502.993 199.068 496.976 207.594C486.567 222.341 484.199 242.736 480.369 260.501C479.383 265.078 477.195 269.07 477.532 273.722L479.264 274.723L479.486 274.835C481.022 270.686 486.481 263.322 487.776 261.133C490.386 256.72 493.089 252.356 496.089 248.265C499.072 244.204 502.328 240.134 505.998 236.674C509.667 233.213 513.743 230.363 518.376 228.733C522.293 227.353 526.435 226.928 530.408 225.758C534.221 224.635 537.844 222.841 541.139 220.444C544.979 217.646 548.601 213.346 548.353 208.273C548.253 206.223 547.514 204.267 546.569 202.497Z" fill="#9BCDA8"/>
<path d="M480.672 176.189L480.126 176.391C482.199 182.833 484.342 189.491 485.835 196.306C488.099 206.648 488.182 218.03 486.09 231.125C484.237 242.722 480.949 254.23 477.77 265.358C477.348 266.819 476.933 268.275 476.526 269.723L477.078 269.903C477.488 268.455 477.902 267.001 478.322 265.539C481.506 254.393 484.807 242.866 486.659 231.228C488.764 218.05 488.679 206.581 486.397 196.164C484.897 189.31 482.749 182.632 480.672 176.189Z" fill="#1C1C1B"/>
<path d="M480.409 274.386L480.777 274.835C490.057 265.508 498.052 258.347 509.346 258.18C516.849 258.18 523.404 262.376 528.676 265.745L528.949 265.217C523.621 261.813 516.99 257.574 509.341 257.572C497.853 257.745 489.776 264.964 480.409 274.386Z" fill="#1C1C1B"/>
<path d="M497.977 229.453C492.361 238.53 488.311 249.45 484.395 260.008C482.72 264.523 481.139 268.789 479.438 272.928L479.923 273.192C481.628 269.044 483.211 264.773 484.887 260.252C488.793 249.728 492.831 238.832 498.413 229.81C504.709 219.638 512.156 213.32 521.182 210.492L521.036 209.895C511.891 212.763 504.347 219.161 497.977 229.453Z" fill="#1C1C1B"/>
<path d="M296.444 425.272C440.938 425.272 558.072 415.334 558.072 403.076C558.072 390.818 440.938 380.881 296.444 380.881C151.951 380.881 34.8164 390.818 34.8164 403.076C34.8164 415.334 151.951 425.272 296.444 425.272Z" fill="#8C293D"/>
<path d="M472.245 47.9512L244.23 51.9683C241.956 51.8704 239.688 52.299 237.569 53.2274C235.449 54.1557 233.522 55.5638 231.91 57.3638C230.297 59.1638 229.032 61.3172 228.195 63.6894C227.358 66.0616 226.965 68.6018 227.043 71.1515L236.818 380.133C236.962 384.889 238.73 389.401 241.756 392.739C244.782 396.076 248.836 397.984 253.08 398.068L465.497 402.252C469.884 402.338 474.122 400.47 477.282 397.057C480.441 393.644 482.264 388.965 482.349 384.048L488.172 66.8851C488.261 62.0189 486.641 57.3082 483.663 53.7671C480.684 50.226 476.584 48.1375 472.245 47.9512Z" fill="#B3481D"/>
<path d="M463.506 47.9512L235.493 51.9683C233.219 51.8704 230.951 52.299 228.831 53.2274C226.712 54.1557 224.785 55.5638 223.172 57.3638C221.56 59.1638 220.295 61.3172 219.458 63.6894C218.62 66.0616 218.228 68.6018 218.305 71.1515L228.081 380.133C228.225 384.889 229.993 389.401 233.019 392.739C236.045 396.076 240.099 397.984 244.343 398.068L456.762 402.252C461.148 402.338 465.386 400.47 468.545 397.057C471.705 393.644 473.527 388.965 473.612 384.048L479.435 66.8851C479.524 62.0186 477.904 57.3077 474.925 53.7665C471.946 50.2254 467.845 48.1371 463.506 47.9512Z" fill="#C95D1D"/>
<path d="M453.853 69.3242L247.392 74.2081C245.727 74.1364 244.066 74.4505 242.514 75.1307C240.962 75.8109 239.551 76.8426 238.37 78.1615C237.19 79.4805 236.264 81.0582 235.651 82.7964C235.037 84.5346 234.75 86.3959 234.807 88.2642L235.025 95.1053L243.444 359.868C243.569 364.03 245.115 367.98 247.762 370.901C250.409 373.822 253.954 375.491 257.667 375.564L443.453 379.235C447.287 379.31 450.992 377.677 453.755 374.694C456.517 371.711 458.113 367.621 458.192 363.32L460.023 76.5592C460.035 74.69 459.397 72.8892 458.246 71.5385C457.094 70.1878 455.518 69.3936 453.853 69.3242Z" fill="#FCE07A"/>
<path d="M453.853 69.3242L247.392 74.2083C245.727 74.1366 244.066 74.4506 242.514 75.1308C240.962 75.8111 239.551 76.8428 238.37 78.1618C237.19 79.4807 236.264 81.0586 235.651 82.7968C235.037 84.535 234.75 86.3964 234.807 88.2647C234.807 88.2647 401.932 79.1674 423.628 90.5257C448.258 103.409 437.861 320.162 401.734 340.426C371.411 357.434 278.61 369.251 249.587 372.609C251.954 374.482 254.77 375.512 257.667 375.564L443.453 379.235C447.287 379.31 450.992 377.677 453.755 374.694C456.517 371.711 458.113 367.62 458.192 363.319L460.023 76.5593C460.035 74.6902 459.397 72.8893 458.246 71.5386C457.094 70.1879 455.518 69.3936 453.853 69.3242Z" fill="#FDC238"/>
<path d="M398.04 53.8605C397.348 49.4885 395.27 45.543 392.186 42.7492C389.103 39.9554 385.222 38.5013 381.257 38.654L361.587 39.4149C361.439 33.4102 359.944 25.6575 351.623 24.5599C333.483 22.1815 326.188 29.8103 324.983 34.5309C324.45 36.6012 324.083 38.7207 323.886 40.8641L303.582 41.6481C299.658 41.7999 295.928 43.6018 293.138 46.6944C290.348 49.787 288.702 53.943 288.529 58.3335L288.201 66.6341C288.153 67.8523 288.33 69.0685 288.72 70.2069C289.11 71.3453 289.706 72.3814 290.47 73.2506C291.235 74.1198 292.151 74.8034 293.161 75.2587C294.172 75.714 295.256 75.9313 296.345 75.897L393.716 72.8385C394.62 72.8104 395.509 72.5644 396.32 72.1173C397.132 71.6702 397.848 71.0325 398.419 70.2477C398.991 69.4628 399.405 68.5493 399.632 67.5694C399.86 66.5895 399.896 65.5662 399.738 64.5693L398.04 53.8605Z" fill="#8C293D"/>
<path d="M309.876 60.9578C306.853 56.3894 311.121 44.7771 302.406 48.7748C302.406 48.7748 293.158 64.9539 301.161 68.0001C309.165 71.0462 390.443 68.1913 392.044 65.9055C393.645 63.6197 312.9 65.5262 309.876 60.9578Z" fill="#CB4251"/>
<path d="M340.615 29.5566C354.361 31.1703 353.021 37.6936 353.021 40.025C353.021 42.3564 359.06 40.9575 359.06 40.9575C358.355 25.3601 340.615 29.5566 340.615 29.5566Z" fill="#CB4251"/>
<path d="M280.89 120.29L281.398 119.613V115.357H277.515L280.89 120.29Z" fill="#8C293D"/>
<path d="M281.398 105.493V101.383L277.515 105.493H281.398Z" fill="#8C293D"/>
<path d="M281.398 121.113V120.291L280.427 120.683L281.398 121.113Z" fill="#8C293D"/>
<path d="M293.526 121.301C291.387 122.364 288.852 122.896 285.919 122.896H285.28L291.097 132.622H300.813L293.89 121.113C293.771 121.177 293.649 121.241 293.526 121.301Z" fill="#8C293D"/>
<path d="M293.362 100.41C291.276 99.4142 288.803 98.9169 285.944 98.918H271.689V132.622H280.537V123.666H276.56L280.017 120.157L276.56 116.306H280.537V106.428H276.56L280.537 102.048V106.428H285.408C287.254 106.428 288.639 106.87 289.563 107.753C290.487 108.637 290.949 109.833 290.949 111.34C290.949 112.914 290.487 114.134 289.563 115C288.639 115.867 287.254 116.3 285.408 116.3H280.537V123.666H285.321L283.218 120.344H292.644L293.715 122.025C295.627 121.056 297.11 119.709 298.163 117.986C299.283 116.153 299.842 113.938 299.842 111.34C299.842 108.801 299.284 106.594 298.166 104.719C297.049 102.844 295.447 101.408 293.362 100.41Z" fill="#8C293D"/>
<path d="M277.515 124.401H281.398V120.968L280.89 120.291L277.515 124.401Z" fill="#8C293D"/>
<path d="M283.339 121.113L285.478 124.401H286.112C289.02 124.401 291.535 123.917 293.657 122.948C293.778 122.893 293.899 122.835 294.018 122.777L292.928 121.113H283.339Z" fill="#8C293D"/>
<path d="M325.813 116.998C325.813 119.799 325.286 121.813 324.232 123.04C323.178 124.267 321.705 124.879 319.811 124.876C317.918 124.876 316.437 124.262 315.368 123.034C314.299 121.805 313.765 119.791 313.766 116.991V98.918H304.696V117.279C304.696 122.155 306.017 125.932 308.658 128.609C311.299 131.286 314.987 132.624 319.721 132.622C324.423 132.622 328.11 131.284 330.782 128.609C333.455 125.934 334.791 122.157 334.791 117.279V98.918H325.813V116.998Z" fill="#8C293D"/>
<path d="M350.027 98.918H340.615V132.622H365.856V125.063H350.027V98.918Z" fill="#8C293D"/>
<path d="M391.097 111.248H378.477V118.646H391.097V111.248Z" fill="#8C293D"/>
<path d="M378.477 111.248H377.506V118.646H378.477V111.248Z" fill="#8C293D"/>
<path d="M376.909 119.044H376.254V111.966H376.909V106.333H393.401V98.918H367.798V132.622H394.009V125.207H376.909V119.044Z" fill="#8C293D"/>
<path d="M420.412 115.189C419.288 114.484 418.079 113.924 416.812 113.523C415.523 113.108 414.212 112.761 412.886 112.481C411.571 112.203 410.371 111.933 409.286 111.671C408.357 111.469 407.464 111.126 406.639 110.653C405.958 110.236 405.618 109.657 405.618 108.917C405.622 108.409 405.802 107.919 406.128 107.528C406.469 107.096 407.026 106.74 407.8 106.46C408.573 106.18 409.594 106.042 410.862 106.044C412.353 106.053 413.836 106.255 415.275 106.645C416.88 107.083 418.423 107.721 419.869 108.543L422.663 101.788C420.97 100.786 419.127 100.06 417.204 99.6351C415.141 99.1568 413.028 98.9161 410.91 98.918C407.72 98.918 405.056 99.3961 402.92 100.352C400.783 101.308 399.188 102.574 398.135 104.148C397.091 105.693 396.54 107.517 396.556 109.379C396.556 111.108 396.889 112.544 397.554 113.685C398.198 114.803 399.097 115.754 400.179 116.462C401.304 117.192 402.522 117.769 403.802 118.175C405.09 118.596 406.4 118.944 407.728 119.216C409.012 119.478 410.204 119.756 411.305 120.049C412.241 120.278 413.14 120.637 413.975 121.117C414.656 121.534 414.997 122.097 414.998 122.806C415.008 123.335 414.817 123.848 414.464 124.242C414.107 124.644 413.55 124.953 412.791 125.168C412.033 125.384 411.003 125.492 409.701 125.492C407.769 125.485 405.85 125.18 404.011 124.588C402.238 124.047 400.544 123.278 398.971 122.3L395.951 129.103C397.468 130.12 399.459 130.962 401.923 131.627C404.446 132.298 407.046 132.632 409.657 132.622C412.877 132.622 415.555 132.144 417.693 131.188C419.83 130.231 421.433 128.96 422.501 127.373C423.553 125.839 424.112 124.023 424.104 122.165C424.104 120.469 423.764 119.057 423.083 117.93C422.421 116.82 421.506 115.881 420.412 115.189Z" fill="#8C293D"/>
<path d="M312.412 158.118L287.892 159.16C285.871 159.237 283.959 160.143 282.564 161.686C281.169 163.228 280.402 165.285 280.427 167.415L280.581 186.672C280.605 188.879 281.42 190.994 282.862 192.595C284.303 194.195 286.266 195.162 288.356 195.303L310.645 196.724C310.848 196.737 311.049 196.743 311.251 196.742C313.478 196.717 315.608 195.782 317.193 194.134C318.778 192.486 319.693 190.254 319.746 187.908L320.227 166.213C320.252 165.131 320.066 164.055 319.68 163.051C319.295 162.048 318.718 161.138 317.986 160.379C317.253 159.62 316.381 159.027 315.423 158.637C314.464 158.247 313.44 158.068 312.413 158.112L312.412 158.118ZM313.811 187.767C313.803 188.143 313.723 188.513 313.576 188.855C313.43 189.197 313.219 189.504 312.956 189.758C312.694 190.012 312.386 190.208 312.05 190.334C311.714 190.459 311.357 190.512 311.002 190.489L288.713 189.068C288.122 189.029 287.566 188.755 287.159 188.302C286.751 187.85 286.52 187.251 286.514 186.627L286.36 167.37C286.354 166.865 286.536 166.377 286.867 166.012C287.198 165.646 287.651 165.432 288.13 165.414L312.649 164.372C312.864 164.363 313.079 164.401 313.281 164.483C313.482 164.565 313.665 164.689 313.819 164.849C313.973 165.008 314.094 165.199 314.175 165.41C314.256 165.62 314.296 165.846 314.291 166.073L313.811 187.767Z" fill="white"/>
<path d="M312.412 214.009L287.892 215.093C285.87 215.173 283.957 216.12 282.561 217.73C281.166 219.34 280.4 221.486 280.427 223.708L280.581 243.787C280.605 246.088 281.42 248.293 282.862 249.962C284.304 251.631 286.266 252.639 288.357 252.786L310.646 254.267C310.849 254.281 311.051 254.286 311.252 254.284C313.479 254.258 315.609 253.284 317.194 251.566C318.779 249.847 319.695 247.52 319.747 245.075L320.227 222.456C320.252 221.328 320.066 220.206 319.68 219.16C319.295 218.114 318.718 217.166 317.986 216.375C317.253 215.583 316.381 214.965 315.422 214.558C314.464 214.152 313.44 213.965 312.413 214.011L312.412 214.009ZM313.813 244.921C313.804 245.312 313.724 245.697 313.577 246.054C313.429 246.41 313.218 246.73 312.956 246.995C312.694 247.26 312.386 247.464 312.05 247.595C311.715 247.726 311.359 247.782 311.003 247.759L288.712 246.276C288.121 246.235 287.565 245.95 287.158 245.478C286.75 245.006 286.519 244.382 286.513 243.732L286.359 223.652C286.353 223.126 286.535 222.619 286.866 222.238C287.196 221.857 287.649 221.633 288.127 221.614L312.648 220.529C312.864 220.52 313.079 220.559 313.28 220.644C313.482 220.729 313.665 220.859 313.819 221.026C313.972 221.192 314.094 221.391 314.175 221.611C314.256 221.83 314.295 222.066 314.289 222.303L313.813 244.921Z" fill="white"/>
<path d="M312.592 269.918L288.679 271.026C286.708 271.108 284.842 272.072 283.482 273.713C282.121 275.354 281.373 277.542 281.398 279.808L281.548 300.294C281.572 302.641 282.366 304.892 283.772 306.594C285.178 308.297 287.092 309.326 289.131 309.476L310.88 310.988C311.078 311.001 311.275 311.008 311.471 311.007C313.643 310.98 315.722 309.986 317.268 308.233C318.813 306.479 319.706 304.105 319.757 301.61L320.227 278.529C320.251 277.378 320.07 276.233 319.694 275.166C319.318 274.098 318.755 273.131 318.041 272.323C317.326 271.516 316.475 270.885 315.541 270.47C314.606 270.055 313.607 269.865 312.605 269.911L312.592 269.918ZM313.957 301.46C313.949 301.859 313.871 302.252 313.727 302.616C313.584 302.98 313.378 303.307 313.123 303.577C312.867 303.847 312.566 304.056 312.239 304.189C311.911 304.323 311.563 304.379 311.216 304.355L289.474 302.844C288.897 302.801 288.356 302.51 287.958 302.029C287.561 301.547 287.337 300.91 287.331 300.246L287.181 279.76C287.175 279.223 287.352 278.705 287.674 278.316C287.997 277.927 288.439 277.699 288.906 277.679L312.823 276.571H312.875C313.082 276.569 313.286 276.615 313.476 276.706C313.666 276.797 313.839 276.93 313.983 277.099C314.128 277.268 314.242 277.468 314.317 277.689C314.393 277.909 314.43 278.144 314.425 278.381L313.957 301.46Z" fill="white"/>
<path d="M318.802 155.86L304.286 171.845C297.514 178.669 296.865 175.085 292.943 170.884C291.878 169.743 289.969 167.557 289.969 167.557C289.06 166.751 287.746 167.863 288.344 168.934L297.152 184.105C298.782 187.448 302.128 186.113 304.077 182.953L320.05 157.065C320.66 156.223 319.584 155.175 318.802 155.86Z" fill="#F60019"/>
<path d="M318.843 270.125L304.768 286.111C298.201 292.933 297.572 289.349 293.77 285.148C292.737 284.009 290.886 281.823 290.886 281.823C290.004 281.015 288.731 282.127 289.31 283.198L297.85 298.369C299.431 301.715 302.677 300.379 304.566 297.218L320.054 271.329C320.649 270.489 319.601 269.441 318.843 270.125Z" fill="#F60019"/>
<path d="M401.552 167.741C401.467 166.889 401.151 166.108 400.663 165.544C400.175 164.981 399.55 164.674 398.905 164.682L337.45 165.361C336.748 165.357 336.073 165.725 335.574 166.384C335.076 167.043 334.794 167.939 334.791 168.874C334.788 169.81 335.065 170.708 335.559 171.373C336.054 172.037 336.727 172.412 337.429 172.416L399.084 173.724C399.465 173.732 399.843 173.631 400.192 173.426C400.541 173.222 400.853 172.92 401.107 172.54C401.36 172.161 401.549 171.713 401.66 171.227C401.771 170.741 401.803 170.229 401.752 169.726L401.552 167.741Z" fill="white"/>
<path d="M401.547 181.161C401.462 180.464 401.145 179.825 400.657 179.363C400.169 178.902 399.544 178.651 398.898 178.656L337.392 179.212C336.699 179.226 336.04 179.536 335.553 180.073C335.067 180.61 334.794 181.333 334.791 182.088C334.788 182.842 335.057 183.567 335.539 184.109C336.021 184.65 336.679 184.965 337.371 184.986L399.081 186.054C399.463 186.061 399.841 185.978 400.191 185.812C400.54 185.645 400.852 185.397 401.106 185.087C401.36 184.777 401.549 184.41 401.66 184.013C401.771 183.615 401.803 183.197 401.752 182.785L401.547 181.161Z" fill="white"/>
<path d="M401.552 225.551C401.466 224.854 401.149 224.215 400.661 223.754C400.173 223.293 399.547 223.041 398.901 223.047L337.391 223.602C336.699 223.617 336.039 223.927 335.553 224.464C335.067 225.002 334.794 225.725 334.791 226.479C334.789 227.233 335.057 227.958 335.539 228.5C336.022 229.041 336.679 229.356 337.372 229.376L399.081 230.445C399.463 230.452 399.841 230.369 400.191 230.202C400.54 230.035 400.852 229.787 401.106 229.477C401.359 229.167 401.548 228.8 401.66 228.403C401.771 228.006 401.803 227.587 401.752 227.176L401.552 225.551Z" fill="white"/>
<path d="M401.552 238.436C401.466 237.584 401.149 236.803 400.661 236.24C400.173 235.677 399.547 235.37 398.901 235.377L337.391 236.056C336.699 236.074 336.039 236.452 335.553 237.109C335.067 237.766 334.794 238.65 334.791 239.572C334.789 240.494 335.057 241.38 335.539 242.042C336.022 242.703 336.679 243.088 337.372 243.113L399.081 244.419C399.463 244.427 399.841 244.326 400.191 244.122C400.54 243.918 400.852 243.615 401.106 243.236C401.359 242.857 401.548 242.409 401.66 241.924C401.771 241.438 401.803 240.926 401.752 240.423L401.552 238.436Z" fill="white"/>
<path d="M403.486 280.362C403.398 279.51 403.072 278.729 402.57 278.166C402.068 277.603 401.424 277.296 400.759 277.303L337.467 277.982C336.754 278 336.075 278.378 335.575 279.035C335.075 279.692 334.794 280.576 334.791 281.498C334.788 282.419 335.065 283.306 335.561 283.968C336.057 284.629 336.734 285.014 337.447 285.039L400.945 286.345C401.338 286.353 401.727 286.251 402.086 286.047C402.445 285.843 402.766 285.54 403.027 285.161C403.288 284.782 403.483 284.334 403.598 283.849C403.712 283.364 403.745 282.852 403.693 282.349L403.486 280.362Z" fill="white"/>
<path d="M403.486 293.503C403.398 292.883 403.073 292.315 402.571 291.905C402.069 291.495 401.426 291.272 400.762 291.277L337.527 291.77C336.804 291.767 336.109 292.035 335.596 292.515C335.083 292.994 334.794 293.646 334.791 294.326C334.788 295.007 335.073 295.661 335.582 296.144C336.092 296.627 336.784 296.899 337.507 296.902L400.947 297.853C401.34 297.859 401.729 297.785 402.088 297.637C402.447 297.488 402.768 297.268 403.028 296.992C403.289 296.716 403.483 296.39 403.598 296.037C403.713 295.684 403.745 295.311 403.693 294.945L403.486 293.503Z" fill="white"/>
<path d="M322.132 209.928C318.078 209.477 312.558 213.624 308.643 217.196C304.233 221.211 300.357 225.864 299.294 227.873C299.198 228.037 299.132 228.221 299.1 228.415C299.068 228.609 299.07 228.809 299.106 229.002C299.143 229.195 299.213 229.377 299.312 229.538C299.412 229.699 299.538 229.834 299.685 229.937C299.831 230.04 299.994 230.107 300.163 230.134C300.332 230.162 300.505 230.15 300.67 230.098C300.835 230.047 300.99 229.957 301.124 229.834C301.258 229.712 301.369 229.559 301.451 229.385C303.237 226.007 315.951 212.156 321.887 212.825C323.026 212.952 323.735 213.634 324.185 215.035C326.881 223.435 312.319 243.867 297.321 252.731C292.666 255.486 284.282 259.146 280.546 252.719C279.158 250.333 278.757 247.693 279.319 244.645C281.912 230.595 303.838 214.588 304.054 214.429C304.338 214.224 304.539 213.896 304.614 213.519C304.689 213.142 304.632 212.746 304.454 212.418C304.276 212.09 303.992 211.857 303.666 211.771C303.339 211.684 302.996 211.751 302.712 211.956C298.592 215.026 294.657 218.415 290.934 222.099C282.778 230.186 278.037 237.568 276.843 244.035C276.14 247.842 276.678 251.311 278.443 254.345C280.354 257.631 283.274 259.262 287.003 259.217C290.253 259.186 294.121 257.89 298.468 255.319C305.685 251.056 313.441 243.728 319.217 235.727C327.831 223.799 327.511 216.999 326.55 214.012C325.769 211.583 324.24 210.165 322.132 209.928Z" fill="#F60019"/>
<path d="M178.859 160.57L177.882 161.827L164.902 178.504C164.902 178.504 183.492 196.85 191.371 198.233C197.562 199.32 201.225 194.357 201.728 189.375C201.873 188.047 201.772 186.7 201.429 185.416C199.83 179.63 178.859 160.57 178.859 160.57Z" fill="#FBC5A9"/>
<path d="M178.552 160.57L177.561 161.778C177.279 168.758 178.381 178.838 185.951 184.32C191.042 188.005 196.762 189.101 201.727 188.244C201.874 186.968 201.771 185.674 201.424 184.44C199.803 178.882 178.552 160.57 178.552 160.57Z" fill="#F68C9A"/>
<path d="M166.071 398.739L157.884 390.86L159.215 367.729L142.574 368.223L143.183 391.838L143.866 401.433H165.643C165.924 401.431 166.196 401.316 166.412 401.108C166.627 400.9 166.773 400.612 166.824 400.294C166.875 399.976 166.828 399.647 166.691 399.364C166.553 399.082 166.335 398.863 166.073 398.746L166.071 398.739Z" fill="#FFB9B9"/>
<path d="M85.4335 354.574L76.0812 375.771L72.6777 384.614L92.5542 396.333C92.8119 396.488 93.1102 396.536 93.3967 396.47C93.6832 396.404 93.9398 396.228 94.1214 395.972C94.303 395.717 94.3981 395.398 94.3899 395.072C94.3818 394.746 94.271 394.434 94.0769 394.19L89.9084 382.822L100.831 363.101L85.4335 354.574Z" fill="#FFB9B9"/>
<path d="M136.628 216.938L131.527 216.471C125.7 229.848 131.708 258.961 131.708 258.961L136.352 310.636L135.973 339.758L135.415 382.525H164.091C164.091 382.525 168.452 345.85 169.724 307.238C170.089 296.192 167.29 219.744 167.29 219.744L136.628 216.938Z" fill="#FFD132"/>
<path d="M131.61 216.471C125.593 229.939 131.797 259.251 131.797 259.251L136.592 311.28L136.201 340.6L148.399 279.612L136.877 216.941L131.61 216.471Z" fill="#FFA500"/>
<path d="M140.385 286.185C139.959 283.797 139.651 282.069 139.651 280.59H138.691C138.691 282.173 139.007 283.94 139.449 286.388C140.207 290.623 141.344 297.024 141.52 307.345C142.067 339.271 140.069 382.041 140.048 382.469L141.006 382.524C141.026 382.095 143.027 339.29 142.48 307.325C142.295 296.912 141.144 290.457 140.385 286.185Z" fill="#FF9000"/>
<path d="M110.639 220.041C100.42 236.422 102.695 255.686 102.695 255.686L97.4054 310.77L79.4727 367.186L104.066 382.525C104.066 382.525 123.252 349.645 131.196 316.685C137.922 288.772 142.472 260.802 143.51 252.694C145.773 235.013 143.51 215.648 143.51 215.648L110.639 220.041Z" fill="#FFD132"/>
<path d="M82.1203 359.712L81.6445 360.627L107.215 377.284L107.691 376.369L82.1203 359.712Z" fill="#FF9000"/>
<path d="M114.561 228.801C109.231 238.196 109.222 246.706 109.692 250.944C110 253.896 109.975 256.877 109.618 259.823C106.15 289.872 103.823 308.704 103.397 310.197C101.034 318.461 83.532 370.134 83.3564 370.655L84.2711 371.015C84.4482 370.495 101.958 318.794 104.328 310.508C104.966 308.274 108.916 274.408 110.583 259.949C110.951 256.919 110.976 253.851 110.659 250.814C110.197 246.713 110.217 238.47 115.393 229.346L114.561 228.801Z" fill="#FF9000"/>
<path d="M118.142 240.46C115.19 241.318 109.739 240.46 109.684 240.449L109.567 241.551C111.248 241.804 112.938 241.938 114.631 241.953C115.941 241.953 117.281 241.85 118.348 241.541C119.626 241.169 123.388 236.29 124.129 235.316L123.475 234.555C121.704 236.883 118.884 240.251 118.142 240.46Z" fill="#FF9000"/>
<path d="M146.605 247.19C145.776 249.567 142.606 250.882 142.574 250.894L142.749 251.356L142.923 251.819C143.075 251.759 146.532 250.33 147.508 247.525C148.283 245.297 148.833 241.742 149.139 236.959C149.367 233.414 149.37 230.475 149.37 230.445H148.411C148.411 230.561 148.389 242.063 146.605 247.19Z" fill="#FF9000"/>
<path d="M139.144 269.466C136.521 284.295 133.872 297.517 133.837 297.648L134.859 297.853C134.885 297.722 137.544 284.489 140.169 269.648C143.697 249.703 145.486 236.513 145.486 230.445H144.443C144.443 236.369 142.611 249.861 139.144 269.466Z" fill="#FF9000"/>
<path d="M157.023 230.445L156.165 230.478C156.211 231.685 156.335 232.887 156.536 234.071C156.985 236.66 157.737 238.278 158.768 238.847C160.49 239.809 166.352 241.867 166.601 241.954L166.844 240.972C166.783 240.951 160.795 238.847 159.13 237.92C157.545 237.04 157.074 232.225 157.023 230.445Z" fill="#FF9000"/>
<path d="M169.89 143.682C162.707 135.85 154.077 135.26 149.33 133.838C148.482 133.575 147.622 133.36 146.754 133.193L146.371 136.602C137.915 139.956 131.575 132.931 131.575 132.931L131.852 131.799C130.922 131.901 129.861 132.037 128.713 132.227C122.629 133.193 113.976 135.442 108.801 140.638C97.8476 151.642 92.0938 172.673 92.0938 172.673L108.669 180.358C108.583 180.964 108.497 181.568 108.412 182.169C105.05 206.257 103.872 230.725 103.872 230.725C103.872 230.725 117.212 234.357 133.911 235.202C145.24 235.777 158.122 235.068 169.41 231.067C169.41 231.067 169.016 205.331 167.651 180.99L178.607 166.015L181.406 162.187C181.406 162.187 181.329 161.809 181.17 161.111C180.341 157.55 173.85 147.994 169.89 143.682Z" fill="#D61450"/>
<path d="M114.202 200.514L112.801 181.966C112.801 181.966 111.335 181.898 108.969 182.009C105.818 206.25 104.714 230.872 104.714 230.872C104.714 230.872 117.216 234.527 132.867 235.379C115.678 226.807 114.202 200.514 114.202 200.514Z" fill="#B10012"/>
<path d="M86.441 239.488L80.4434 273.202L131.722 283.879L132.519 279.4L137.72 250.165L100.255 242.364L86.441 239.488Z" fill="#3FAAEB"/>
<path d="M104.48 262.912C101.427 257.413 100.309 249.514 100.018 242.364L86.3708 239.488L80.4434 273.202L131.108 283.879L131.895 279.4C126.785 278.174 110.351 273.494 104.48 262.912Z" fill="#3F8CEB"/>
<path d="M136.472 257.944L134.178 257.572L129.954 276.086L132.247 276.457C132.647 276.521 133.061 276.448 133.398 276.256C133.736 276.063 133.969 275.766 134.048 275.429L137.693 259.468C137.77 259.129 137.685 258.779 137.456 258.493C137.227 258.207 136.873 258.01 136.472 257.944Z" fill="#232163"/>
<path d="M136.757 265.016C135.445 264.737 134.16 265.779 133.888 267.342C133.616 268.905 134.459 270.401 135.77 270.68C137.082 270.959 138.368 269.916 138.64 268.353C138.912 266.79 138.069 265.295 136.757 265.016ZM137.39 268.087C137.26 268.828 136.651 269.322 136.031 269.189C135.41 269.057 135.009 268.348 135.133 267.608C135.258 266.868 135.872 266.374 136.493 266.506C137.113 266.638 137.518 267.346 137.39 268.087Z" fill="#232163"/>
<path d="M109.345 174.108C102.428 174.444 92.0938 172.651 92.0938 172.651L115.34 183.589L128.013 158.105C128.013 158.105 116.262 173.778 109.345 174.108Z" fill="#B10012"/>
<path d="M96.3192 175.881L95.7014 179.062L93.0645 192.657L108.981 200.852L111.018 189.965L111.854 185.504L112.48 182.17L96.5784 174.547L96.3192 175.881Z" fill="#FFB9B9"/>
<path d="M113.059 236.3C112.493 227.472 111.177 208.255 109.992 203.65C108.884 199.338 106.653 193.472 101.158 190.984C100.579 190.722 99.9832 190.504 99.3761 190.334C96.3427 189.474 92.8418 192.017 93.0756 194.856C93.4476 199.381 94.5048 207.133 97.4382 218.538C99.9099 228.153 101.895 233.808 103.29 237.075C103.18 237.304 103.087 237.563 102.996 237.81C102.293 239.817 103.121 244.134 103.121 244.134C103.121 244.134 102.376 244.527 101.982 245.191C101.588 245.854 102.257 247.355 102.476 248.606C102.695 249.856 102.959 249.384 103.758 250.297C104.556 251.209 104.697 251.006 105.358 251.728C106.018 252.45 107.4 251.635 108.759 252.529C110.117 253.424 111.732 252.367 111.732 252.367L112.752 253.749C113.765 255.142 116.268 253.498 116.552 252.406C116.835 251.313 119.051 248.975 119.253 248.29C119.454 247.606 118.282 245.963 117.829 244.55C117.429 243.373 114.084 237.955 113.059 236.3Z" fill="#FFB9B9"/>
<path d="M112.479 251.82C117.2 250.655 116.293 249.354 116.293 249.354L112.479 251.82Z" fill="#F0886D"/>
<path d="M108.597 251.819C111.688 250.143 111.507 246.887 111.507 246.887L108.597 251.819Z" fill="#F0886D"/>
<path d="M109.568 246.887L105.685 251.819C109.373 250.196 109.568 246.887 109.568 246.887Z" fill="#F0886D"/>
<path d="M96.5843 175.898L95.9766 179.12L111.041 190.166L111.864 185.647L112.48 182.269L96.8392 174.547L96.5843 175.898Z" fill="#F68C9A"/>
<path d="M171.996 165.498C166.196 162.671 161.602 150.394 161.02 149.062C164.17 156.934 167.736 181.122 167.736 181.122L178.49 166.108C178.495 166.067 178.495 166.026 178.49 165.986C175.636 165.986 174.139 166.54 171.996 165.498Z" fill="#B10012"/>
<path d="M146.694 132.948L146.299 135.761C137.559 138.526 131.006 132.732 131.006 132.732L131.292 131.799C130.331 131.883 129.234 131.997 128.048 132.152C127.782 132.99 129.043 134.415 131.012 135.97C134.5 138.736 146.66 141.158 148.622 136.844C149.221 135.521 149.405 134.402 149.365 133.48C148.485 133.263 147.594 133.086 146.694 132.948Z" fill="#B10012"/>
<path d="M171.946 397.406C168.731 395.612 164.949 393.846 162.743 391.222C160.536 388.599 159.728 387.838 159.728 387.838C157.861 386.041 147.453 391.387 144.641 387.746C144.641 387.746 142.918 387.288 142.893 389.806C142.881 390.228 142.849 390.649 142.799 391.067C142.766 391.37 142.724 391.706 142.675 392.065C142.276 395.145 141.474 400.025 141.621 403.097C141.66 403.926 141.765 404.624 141.973 405.116L177.225 405.542C177.499 404.935 177.588 404.219 177.475 403.532C177.26 401.991 176.098 399.716 171.946 397.406Z" fill="#FF822C"/>
<path d="M160.107 393.658C159.911 393.88 160.256 394.175 160.449 393.955C161.619 392.618 163.328 392.453 164.561 393.797C164.761 394.014 165.032 393.639 164.834 393.424C163.418 391.885 161.437 392.144 160.107 393.658Z" fill="white"/>
<path d="M162.071 395.937C161.799 396.27 162.281 396.714 162.552 396.383C164.188 394.379 166.58 394.129 168.308 396.145C168.587 396.471 168.965 395.909 168.69 395.587C166.708 393.277 163.933 393.667 162.071 395.937Z" fill="white"/>
<path d="M164.995 397.393C164.683 397.837 165.234 398.43 165.544 397.988C167.415 395.313 170.148 394.98 172.122 397.673C172.44 398.106 172.874 397.356 172.559 396.926C170.294 393.842 167.122 394.374 164.995 397.393Z" fill="white"/>
<path d="M141.604 402.254C141.642 403.369 141.747 404.307 141.955 404.97L177.225 405.542C177.499 404.726 177.588 403.763 177.475 402.839L141.604 402.254Z" fill="white"/>
<path d="M142.675 392.389C142.648 392.637 142.614 392.91 142.574 393.204C143.51 394.245 144.848 396.238 144.932 399.165C144.995 401.366 144.347 402.895 143.658 403.888L144.338 403.897C145.146 402.538 145.55 400.849 145.478 399.138C145.377 395.632 143.682 393.406 142.675 392.389Z" fill="white"/>
<path d="M101.387 396.161C98.4939 393.392 95.0137 390.452 93.3464 387.257C91.6791 384.062 91.0257 383.079 91.0257 383.079C89.521 380.768 77.6093 382.16 75.5524 377.812C75.5524 377.812 73.8851 376.796 73.2869 379.127C73.1777 379.514 73.0492 379.894 72.9019 380.263C72.7992 380.535 72.6795 380.832 72.5476 381.158C71.4341 383.881 69.4938 388.135 68.9462 391.044C68.7928 391.828 68.7483 392.511 68.845 393.039L104.954 405.542C105.375 405.07 105.63 404.432 105.669 403.752C105.8 402.237 105.123 399.734 101.387 396.161Z" fill="#FF822C"/>
<path d="M88.3723 388.357C87.9711 388.591 88.3915 389.178 88.7892 388.945C91.1964 387.532 93.9524 388.07 95.3409 390.579C95.5642 390.987 96.1485 390.564 95.927 390.161C94.3257 387.268 91.0987 386.747 88.3723 388.357Z" fill="white"/>
<path d="M92.2349 391.641C91.8853 391.876 92.2532 392.463 92.5997 392.23C94.7063 390.815 97.1196 391.354 98.3332 393.869C98.5301 394.276 99.0399 393.852 98.8461 393.449C97.4463 390.559 94.6147 390.037 92.2349 391.641Z" fill="white"/>
<path d="M96.0774 394.705C95.8277 394.881 96.0905 395.321 96.338 395.146C97.8437 394.084 99.5665 394.489 100.433 396.375C100.574 396.681 100.938 396.363 100.8 396.06C99.8042 393.893 97.7816 393.501 96.0774 394.705Z" fill="white"/>
<path d="M68.8442 392.788L104.969 405.543C105.39 405.062 105.645 404.411 105.684 403.718L68.9455 390.746C68.7951 391.553 68.7476 392.25 68.8442 392.788Z" fill="white"/>
<path d="M72.9278 381.732C73.5954 383.237 74.4477 385.937 73.9106 389.144C73.5076 391.558 72.5698 392.955 71.707 393.75L72.3515 394.034C73.4019 392.882 74.1392 391.214 74.4304 389.33C75.0725 385.487 73.9326 382.392 73.1911 380.881C73.1126 381.138 73.0271 381.428 72.9278 381.732Z" fill="white"/>
<path d="M155.483 106.293C155.119 105.698 154.532 105.338 154.003 105.56C153.473 105.783 153.097 106.689 153.317 107.416L153.393 113.629C154.255 113.969 155.201 113.258 155.682 112.179C156.163 111.1 156.243 109.731 156.104 108.463C156.019 107.679 155.847 106.889 155.483 106.293Z" fill="#FFB9B9"/>
<path d="M129.845 99.6732C127.664 103.6 130.106 112.17 131.847 115.767C133.034 118.219 136.399 122.832 138.03 124.599C139.661 126.366 153.036 124.11 155.673 121.262C158.311 118.414 149.489 93.4223 149.489 93.4223C146.232 89.9106 132.027 95.7482 129.845 99.6732Z" fill="#FFB9B9"/>
<path d="M129.954 131.267C129.954 131.267 137.05 140.02 142.281 140.02C144.988 140.02 149.62 135.387 149.62 135.387L150.341 122.991L133.562 117.824L129.954 131.267Z" fill="#FFB9B9"/>
<path d="M155.003 109.761C154.939 110.78 155.042 114.295 154.558 114.361C152.628 114.619 149.084 115.677 147.236 116.347C145.236 117.072 142.452 117.473 140.382 116.892C138.12 116.258 136.784 115.049 135.65 113.563C135.064 112.793 134.715 111.855 134.355 110.937C133.587 108.945 132.766 106.895 132.798 104.739C132.792 104.599 132.815 104.458 132.863 104.327C132.923 104.212 133.003 104.109 133.098 104.026C135.642 101.564 138.796 101.882 141.977 101.837C145.58 101.785 149.143 101.048 152.679 100.314C154.704 99.8937 157.167 98.9942 157.415 96.7966C157.516 95.9122 157.195 95.0345 156.791 94.2557C154.673 90.1569 150.249 87.9141 145.901 87.5088C138.891 86.8555 132.07 89.3513 128.053 95.9943C127.366 97.1283 126.777 98.3912 126.733 99.7446C126.712 100.477 126.846 101.252 126.578 101.922C126.33 102.55 125.778 102.981 125.462 103.57C125.073 104.299 125.077 105.188 125.12 106.028C125.328 110.166 126.21 114.319 128.121 117.92C128.847 119.292 129.715 120.573 130.579 121.851C131.047 122.533 131.558 123.258 132.315 123.484C133.072 123.711 134.059 123.096 133.929 122.263C135.993 124.528 137.77 126.687 140.772 128.042C143.544 129.295 151.299 129.792 154.168 128.823C161.217 126.441 160.399 118.994 159.382 116.409C158.485 114.116 157.086 111.044 155.003 109.761Z" fill="#00275C"/>
<path d="M153.013 98.9879C152.779 99.5042 152.236 99.8958 151.713 100.236C151.172 100.583 150.586 100.883 149.963 101.13C148.731 101.609 147.413 101.936 146.055 102.098C144.581 102.293 143.086 102.336 141.602 102.357C139.952 102.38 138.297 102.379 136.655 102.529C135.858 102.595 135.068 102.706 134.29 102.86C133.591 102.99 132.926 103.216 132.326 103.527C132.181 103.605 132.043 103.689 131.91 103.779C131.867 103.809 131.926 103.871 131.974 103.843C132.567 103.5 133.239 103.251 133.951 103.109C134.717 102.948 135.499 102.836 136.288 102.777C137.943 102.634 139.61 102.641 141.273 102.622C142.802 102.627 144.33 102.551 145.847 102.394C147.226 102.246 148.571 101.938 149.838 101.482C150.471 101.247 151.072 100.96 151.63 100.626C152.184 100.294 152.744 99.9197 153.062 99.4198C153.14 99.2991 153.202 99.1725 153.248 99.0421C153.257 99.0174 153.253 98.9908 153.238 98.9683C153.222 98.9457 153.196 98.929 153.165 98.9218C153.133 98.9146 153.1 98.9176 153.071 98.93C153.043 98.9424 153.022 98.9632 153.013 98.9879Z" fill="#00275C"/>
<path d="M157.334 111.988C156.515 111.005 155.494 110.196 154.334 109.611C154.316 109.603 154.296 109.601 154.278 109.607C154.259 109.612 154.244 109.624 154.234 109.64C154.224 109.656 154.221 109.675 154.225 109.693C154.23 109.711 154.241 109.727 154.257 109.738C156.227 110.883 157.763 112.605 158.638 114.651C159.122 115.784 159.43 116.979 159.552 118.198C159.689 119.279 159.648 120.374 159.431 121.443C159.195 122.47 158.704 123.444 157.8 124.076C157.759 124.1 157.728 124.138 157.716 124.182C157.704 124.227 157.711 124.274 157.735 124.314C157.759 124.354 157.799 124.383 157.845 124.395C157.891 124.406 157.941 124.4 157.982 124.377C158.924 123.881 159.471 122.945 159.755 121.981C160.03 120.924 160.113 119.828 159.998 118.743C159.809 116.296 158.959 113.901 157.334 111.988Z" fill="#00275C"/>
<path d="M151.911 117.828L146.628 118.713C146.598 118.718 146.57 118.73 146.545 118.746C146.521 118.762 146.5 118.783 146.485 118.808C146.47 118.832 146.461 118.859 146.459 118.887C146.456 118.914 146.461 118.942 146.471 118.968C146.729 119.612 147.712 121.456 150.388 121.056C152.798 120.696 152.29 118.514 152.117 117.94C152.106 117.901 152.078 117.867 152.039 117.846C152.001 117.826 151.955 117.819 151.911 117.828Z" fill="white"/>
<path d="M129.899 113.36C129.49 113.691 129.271 114.161 129.139 114.638C128.452 117.13 130.11 119.973 132.756 120.843C134.476 121.407 136.652 121.196 136.75 119.165C136.75 118.822 136.689 118.482 136.569 118.156C134.975 115.512 132.237 111.523 129.899 113.36Z" fill="#FFB9B9"/>
<path d="M132.021 118.029C131.357 117.683 132.176 116.85 132.085 116.615C131.846 115.987 131.262 115.357 130.473 115.357C129.683 115.357 130.03 116.928 130.03 116.928L133.159 120.29C134.105 120.29 133.916 119.16 133.469 118.72C133.022 118.28 132.684 118.378 132.021 118.029Z" fill="#FFB9B9"/>
<path d="M133.413 127.689L128.013 132.789C128.013 132.789 134.614 151.529 137.311 151.529C138.883 151.529 142.039 145.923 144.516 142.227C140.464 140.831 133.413 127.689 133.413 127.689Z" fill="white"/>
<path d="M144.516 141.126C144.516 141.126 148.796 149.063 149.904 149.063C151.761 149.063 153.253 133.481 153.253 133.481L151.01 129.334C151.01 129.334 149.16 137.902 144.516 141.126Z" fill="white"/>
<path d="M132.66 122.119C132.437 122.23 132.203 122.307 131.963 122.347C131.855 122.362 131.747 122.368 131.639 122.366C131.539 122.362 131.44 122.35 131.341 122.33C130.884 122.222 130.454 121.994 130.085 121.666C129.244 120.963 128.58 119.923 128.031 118.9C127.477 117.87 127.009 116.782 126.634 115.65C126.062 113.905 125.687 112.083 125.519 110.229C125.352 108.37 125.333 106.497 125.464 104.635C125.479 104.407 125.497 104.178 125.516 103.95C125.525 103.836 125.352 103.808 125.339 103.923C125.101 105.815 125.041 107.73 125.16 109.637C125.281 111.548 125.611 113.433 126.143 115.249C126.514 116.491 126.992 117.687 127.569 118.82C128.133 119.916 128.797 121.006 129.656 121.815C130.042 122.198 130.494 122.483 130.982 122.653C131.462 122.811 131.974 122.788 132.442 122.588C132.565 122.529 132.684 122.46 132.799 122.383C132.954 122.284 132.818 122.041 132.66 122.119Z" fill="#00275C"/>
<path d="M147.622 111.276C146.604 109.357 145.999 105.793 145.99 105.756C145.983 105.713 145.969 105.673 145.95 105.637C145.931 105.601 145.906 105.57 145.878 105.547C145.85 105.523 145.819 105.507 145.786 105.499C145.753 105.492 145.719 105.493 145.686 105.502C145.654 105.511 145.623 105.529 145.595 105.554C145.568 105.579 145.544 105.611 145.526 105.648C145.508 105.685 145.496 105.726 145.49 105.77C145.484 105.813 145.485 105.857 145.492 105.9C145.519 106.061 146.168 109.889 147.322 111.87C147.354 111.925 147.398 111.966 147.448 111.986C147.499 112.007 147.553 112.007 147.603 111.985C148.708 111.512 149.716 111.4 149.814 111.63C149.949 111.926 149.497 113.433 148.855 114.854C148.838 114.891 148.827 114.933 148.822 114.977C148.817 115.02 148.819 115.064 148.828 115.107C148.836 115.149 148.851 115.189 148.871 115.224C148.891 115.259 148.917 115.289 148.946 115.311C148.986 115.343 149.033 115.36 149.081 115.359C149.125 115.358 149.169 115.343 149.208 115.314C149.246 115.285 149.278 115.244 149.301 115.194C149.619 114.485 150.628 112.127 150.261 111.295C150.131 111.008 149.628 110.459 147.622 111.276Z" fill="#DE6277"/>
<path d="M149.595 106.431C149.368 106.718 149.302 107.451 149.447 108.068C149.591 108.685 149.892 108.955 150.117 108.668C150.342 108.381 150.409 107.648 150.265 107.031C150.12 106.414 149.823 106.144 149.595 106.431Z" fill="#0F1231"/>
<path d="M142.588 103.954C141.326 104.382 140.137 107.448 140.845 108.782C140.845 108.782 142.026 106.768 143.764 105.623C145.503 104.478 143.85 103.526 142.588 103.954Z" fill="#0E0D0B"/>
<path d="M148.006 102.207C146.815 102.252 145.636 103.946 147.235 103.584C148.834 103.221 150.341 103.849 150.341 103.849C150.341 103.849 149.547 102.147 148.006 102.207Z" fill="#0E0D0B"/>
<path d="M141.617 111.248C140.009 111.235 138.699 112.144 138.691 113.28C138.684 114.416 139.98 115.345 141.59 115.358C143.2 115.371 144.509 114.464 144.516 113.328C144.524 112.192 143.226 111.262 141.617 111.248Z" fill="#F68C9A"/>
<path d="M152.497 109.707C152.715 110.488 153.237 111.121 154.173 111.249C154.185 110.666 154.224 109.32 154.224 109.32C154.224 109.32 153.548 107.279 153.142 106.316C152.141 107.324 152.144 108.447 152.497 109.707Z" fill="#F68C9A"/>
<path d="M138.371 100.561C138.362 100.677 138.298 100.787 138.19 100.874C138.081 100.961 137.934 101.02 137.773 101.041C137.643 101.065 137.51 101.077 137.376 101.079C137.227 101.082 137.077 101.078 136.929 101.067C136.233 100.997 135.557 100.852 134.924 100.638C134.229 100.42 133.552 100.166 132.881 99.9061C132.29 99.6804 131.704 99.4509 131.086 99.2642C130.586 99.0934 130.051 98.9796 129.5 98.9274C128.988 98.8886 128.472 98.9706 128.034 99.1605C128.024 99.1656 128.017 99.1732 128.014 99.1818C128.011 99.1905 128.013 99.1996 128.019 99.2073C128.026 99.215 128.036 99.2207 128.048 99.2233C128.06 99.2259 128.073 99.2253 128.085 99.2215C128.53 99.0882 129.026 99.0616 129.495 99.1458C129.987 99.223 130.466 99.3359 130.924 99.4827C131.552 99.6828 132.152 99.9196 132.756 100.153C133.451 100.421 134.147 100.685 134.868 100.908C135.543 101.134 136.262 101.289 137.002 101.367C137.347 101.401 137.699 101.384 138.033 101.316C138.277 101.263 138.482 101.145 138.602 100.987C138.669 100.914 138.699 100.828 138.69 100.741C138.68 100.655 138.63 100.573 138.548 100.508C138.533 100.498 138.515 100.491 138.494 100.488C138.474 100.485 138.453 100.487 138.434 100.493C138.415 100.499 138.399 100.508 138.387 100.52C138.376 100.533 138.37 100.547 138.371 100.561Z" fill="#345885"/>
<path d="M138.625 98.7293C138.441 98.7291 138.256 98.7204 138.073 98.7034C137.894 98.6877 137.711 98.6832 137.53 98.6663C137.161 98.6282 136.797 98.5692 136.442 98.4897C135.738 98.3271 135.053 98.1293 134.392 97.8979C133.736 97.6696 133.046 97.4926 132.333 97.3703C131.654 97.2665 130.954 97.2459 130.265 97.3096C129.488 97.3819 128.738 97.5577 128.057 97.8271C127.956 97.8664 128.046 97.9688 128.147 97.9328C129.383 97.4985 130.794 97.3615 132.156 97.5436C133.609 97.7427 134.854 98.3311 136.23 98.6843C136.618 98.7853 137.021 98.8555 137.432 98.8935C137.633 98.9175 137.837 98.9236 138.04 98.9115C138.246 98.8924 138.449 98.8607 138.647 98.817C138.661 98.8137 138.674 98.8068 138.682 98.7976C138.69 98.7884 138.693 98.7775 138.691 98.7669C138.688 98.7563 138.68 98.7467 138.668 98.7398C138.656 98.7329 138.641 98.7292 138.625 98.7293Z" fill="#345885"/>
<path d="M152.155 92.3696C152.02 92.5517 151.879 92.7235 151.754 92.9235C151.629 93.1236 151.52 93.3544 151.389 93.5391C151.114 93.919 150.806 94.2359 150.475 94.4804C150.313 94.6009 150.15 94.7368 149.988 94.8446C149.907 94.8984 149.839 94.9805 149.762 95.0446C149.672 95.1066 149.579 95.1547 149.483 95.1882C149.093 95.3653 148.689 95.4576 148.284 95.4627C147.829 95.4627 147.376 95.514 146.922 95.4934C146.467 95.4729 146.01 95.3524 145.557 95.2677C145.104 95.1831 144.648 95.0779 144.195 94.9702C143.742 94.8625 143.276 94.765 142.823 94.6086C141.926 94.2983 141.017 94.0956 140.109 93.8597C139.202 93.6237 138.312 93.4929 137.407 93.3749C136.571 93.2587 135.732 93.2373 134.894 93.3108C134.121 93.4014 133.353 93.5797 132.596 93.8443C131.85 94.0701 131.121 94.4138 130.419 94.8702C130.065 95.1139 129.724 95.3832 129.387 95.6858C129.059 95.9587 128.749 96.2808 128.46 96.6476C128.315 96.8425 128.163 97.022 128.02 97.217C128.002 97.24 128.02 97.2913 128.044 97.2683C128.358 96.9121 128.683 96.5817 129.018 96.2783C129.349 95.9658 129.693 95.6882 130.047 95.4473C130.758 94.9625 131.494 94.5772 132.247 94.2957C132.621 94.1545 133.001 94.045 133.383 93.9674C133.772 93.8853 134.16 93.8597 134.552 93.8212C135.368 93.7532 136.186 93.7532 137.003 93.8212C137.918 93.8828 138.832 94.0777 139.739 94.2829C140.647 94.488 141.562 94.7958 142.479 94.9831C143.396 95.1703 144.294 95.496 145.203 95.7089C145.661 95.8221 146.123 95.8983 146.586 95.9371C147.04 95.9923 147.496 96.0102 147.951 95.991C148.183 95.9616 148.412 95.8998 148.637 95.8063C148.826 95.7371 149.016 95.6858 149.204 95.6165C149.392 95.5473 149.555 95.4729 149.727 95.3857C149.811 95.3491 149.898 95.3226 149.985 95.3062C150.082 95.2725 150.177 95.2217 150.267 95.1549C150.604 94.9401 150.924 94.6656 151.222 94.3367C151.372 94.1726 151.51 93.9802 151.66 93.8084C151.959 93.4977 152.178 93.0297 152.28 92.4875C152.299 92.3619 152.205 92.3029 152.155 92.3696Z" fill="#345885"/>
<path d="M142.557 97.2006C142.353 97.0903 142.15 96.9756 141.947 96.8743C141.743 96.7731 141.543 96.6493 141.341 96.5301C140.932 96.3051 140.509 96.1183 140.092 95.9271C139.297 95.5584 138.484 95.2719 137.659 95.0699C136.835 94.8784 136.001 94.7911 135.166 94.8089C134.341 94.8148 133.517 94.8975 132.699 95.0564C131.769 95.2246 130.855 95.5471 129.978 96.0171C129.97 96.0201 129.963 96.0276 129.959 96.0379C129.954 96.0482 129.953 96.0606 129.955 96.0722C129.957 96.0839 129.963 96.0938 129.97 96.1C129.977 96.1061 129.986 96.1078 129.994 96.1049C130.8 95.8304 131.603 95.5469 132.424 95.3781C133.24 95.1961 134.066 95.1125 134.892 95.1284C136.548 95.1767 138.191 95.5477 139.775 96.2309C140.232 96.4311 140.68 96.6628 141.139 96.8563C141.37 96.9531 141.617 97.0183 141.843 97.0971C142.076 97.1723 142.312 97.2309 142.549 97.2726C142.581 97.2771 142.582 97.2141 142.557 97.2006Z" fill="#345885"/>
<path d="M148.296 89.914C148.264 89.8393 148.163 89.8827 148.16 89.9539C148.157 90.0251 148.14 90.1171 148.138 90.1987C148.136 90.2803 148.138 90.3619 148.138 90.4435C148.125 90.6113 148.092 90.7765 148.039 90.9349C147.987 91.0912 147.92 91.2408 147.838 91.3811C147.753 91.5252 147.678 91.6814 147.588 91.8186C147.387 92.1103 147.024 92.2249 146.727 92.362C146.413 92.509 146.088 92.6252 145.755 92.7093C145.03 92.8813 144.292 92.987 143.55 93.0253C142.786 93.0774 142.021 93.0826 141.257 93.0756C140.493 93.0687 139.714 93.0531 138.94 93.0565C138.167 93.06 137.406 93.1034 136.643 93.1781C135.105 93.3274 133.643 93.8378 132.234 94.4993C131.628 94.7653 131.04 95.0786 130.476 95.4369C129.954 95.7547 129.509 96.2021 129.177 96.7425C129.105 96.8773 129.042 97.0177 128.988 97.1627C128.955 97.2547 129.097 97.3207 129.137 97.2304C129.692 95.9751 130.946 95.3952 132.063 94.8917C132.775 94.5622 133.505 94.2787 134.249 94.0427C134.985 93.8209 135.737 93.6658 136.497 93.5791C136.885 93.5323 137.27 93.4854 137.66 93.4698C138.05 93.4541 138.429 93.4454 138.812 93.4385C139.591 93.4246 140.369 93.4385 141.147 93.4385C142.662 93.4385 144.207 93.4229 145.695 93.0791C146.04 93.0075 146.376 92.8939 146.698 92.7405C146.85 92.6617 146.993 92.5645 147.125 92.4506C147.257 92.3377 147.371 92.2093 147.492 92.0842C147.614 91.9592 147.737 91.862 147.854 91.737C147.964 91.622 148.057 91.4883 148.128 91.3411C148.283 91.0428 148.373 90.7104 148.392 90.3688C148.402 90.2916 148.402 90.2134 148.392 90.1362C148.366 90.059 148.334 89.9846 148.296 89.914Z" fill="#345885"/>
<path d="M156.012 115.397C156.037 115.626 156.037 115.857 156.012 116.086C155.99 116.37 155.955 116.655 155.912 116.938C155.87 117.221 155.809 117.501 155.729 117.775C155.671 117.999 155.579 118.212 155.459 118.405C155.325 118.601 155.15 118.771 154.999 118.954C154.813 119.178 154.629 119.403 154.451 119.635C154.062 120.118 153.734 120.655 153.475 121.233C153.349 121.511 153.275 121.813 153.255 122.123C153.248 122.209 153.258 122.296 153.283 122.378C153.308 122.46 153.347 122.536 153.399 122.601C153.445 122.667 153.51 122.716 153.583 122.74C153.656 122.763 153.735 122.761 153.807 122.733C153.819 122.728 153.83 122.719 153.838 122.707C153.846 122.696 153.85 122.681 153.85 122.667C153.85 122.652 153.846 122.638 153.838 122.626C153.83 122.614 153.819 122.605 153.807 122.601C153.28 122.418 153.607 121.542 153.763 121.189C154.026 120.632 154.352 120.114 154.734 119.646C154.902 119.427 155.083 119.211 155.263 118.998C155.41 118.839 155.547 118.668 155.672 118.487C155.927 118.069 156.029 117.531 156.099 117.044C156.196 116.495 156.186 115.93 156.073 115.384C156.061 115.339 156.007 115.357 156.012 115.397Z" fill="#345885"/>
<path d="M156.941 117.897C157.09 118.855 156.925 119.84 156.473 120.681C156.009 121.532 155.272 122.15 154.73 122.935C154.585 123.141 154.463 123.365 154.366 123.602C154.313 123.721 154.274 123.846 154.25 123.975C154.233 124.102 154.224 124.23 154.224 124.358C154.224 124.369 154.228 124.379 154.234 124.386C154.241 124.394 154.25 124.399 154.26 124.4C154.269 124.402 154.279 124.399 154.287 124.393C154.295 124.388 154.301 124.379 154.304 124.369C154.376 124.134 154.463 123.905 154.564 123.683C154.659 123.473 154.769 123.271 154.892 123.079C155.161 122.673 155.458 122.29 155.781 121.933C156.1 121.58 156.382 121.193 156.625 120.776C156.849 120.369 157.002 119.921 157.079 119.455C157.164 118.928 157.154 118.388 157.048 117.865C157.033 117.789 156.93 117.83 156.941 117.897Z" fill="#345885"/>
<path d="M151.524 124.114C151.448 124.046 151.367 123.985 151.282 123.932C151.237 123.901 151.191 123.873 151.143 123.848C151.089 123.823 151.03 123.813 150.975 123.786C150.782 123.693 150.589 123.619 150.392 123.529C150.283 123.479 150.172 123.436 150.058 123.4C149.93 123.367 149.8 123.344 149.669 123.331C149.417 123.298 149.164 123.276 148.915 123.261C148.384 123.229 147.849 123.261 147.318 123.296C147.045 123.309 146.772 123.296 146.499 123.311C146.226 123.326 145.953 123.336 145.68 123.341C145.149 123.341 144.615 123.341 144.084 123.325C143.578 123.299 143.074 123.238 142.576 123.142C142.131 123.066 141.693 122.954 141.263 122.808C140.791 122.631 140.336 122.402 139.906 122.122C139.471 121.846 139.069 121.508 138.713 121.118C138.712 121.116 138.71 121.115 138.709 121.115C138.707 121.114 138.706 121.113 138.704 121.113C138.703 121.113 138.701 121.113 138.699 121.114C138.698 121.115 138.697 121.116 138.695 121.117C138.694 121.118 138.693 121.12 138.693 121.121C138.692 121.123 138.691 121.125 138.691 121.126C138.691 121.128 138.692 121.13 138.692 121.132C138.693 121.133 138.694 121.135 138.695 121.136C138.839 121.323 138.996 121.498 139.162 121.66C139.327 121.812 139.499 121.956 139.675 122.09C140.03 122.358 140.411 122.582 140.809 122.759C141.643 123.14 142.523 123.38 143.42 123.47C144.495 123.563 145.574 123.578 146.651 123.514C146.924 123.499 147.196 123.472 147.469 123.467C147.742 123.462 148.01 123.457 148.28 123.457C148.791 123.44 149.302 123.473 149.808 123.557C150.08 123.594 150.349 123.656 150.612 123.743C150.731 123.787 150.845 123.843 150.954 123.91C151.004 123.942 151.043 123.99 151.093 124.026C151.143 124.061 151.191 124.091 151.244 124.128C151.438 124.262 151.618 124.422 151.778 124.604C151.852 124.702 151.921 124.803 151.985 124.909C152.055 125.014 152.135 125.11 152.214 125.208C152.242 125.245 152.289 125.208 152.282 125.165C152.243 124.943 152.142 124.741 151.994 124.586C151.846 124.419 151.689 124.261 151.524 124.114Z" fill="#345885"/>
<path d="M146.442 121.953C145.904 121.971 145.369 122.067 144.844 122.24C144.339 122.377 143.828 122.457 143.315 122.479C142.815 122.498 142.315 122.474 141.818 122.405C141.308 122.323 140.804 122.176 140.311 121.965C139.769 121.725 139.237 121.442 138.717 121.116C138.694 121.101 138.682 121.152 138.701 121.168C139.583 121.931 140.602 122.307 141.589 122.567C142.596 122.821 143.624 122.821 144.63 122.567C145.244 122.419 145.843 122.201 146.446 121.991C146.464 121.996 146.461 121.953 146.442 121.953Z" fill="#345885"/>
<path d="M148.989 126.225C148.92 126.125 148.86 126.022 148.785 125.928C148.64 125.761 148.472 125.628 148.287 125.535C147.512 125.112 146.637 124.945 145.802 124.795C145.371 124.719 144.939 124.654 144.509 124.579C144.078 124.505 143.636 124.438 143.21 124.324C142.782 124.213 142.361 124.07 141.948 123.896C141.526 123.709 141.116 123.481 140.723 123.216C140.315 122.96 139.924 122.668 139.551 122.342C139.199 122.049 138.931 121.632 138.783 121.148C138.779 121.135 138.77 121.125 138.76 121.119C138.749 121.113 138.738 121.112 138.727 121.115C138.715 121.119 138.706 121.128 138.699 121.139C138.693 121.151 138.69 121.165 138.692 121.179C138.872 122.047 139.556 122.582 140.147 123.028C140.886 123.613 141.69 124.067 142.536 124.376C144.206 124.936 145.973 124.88 147.636 125.482C148.077 125.627 148.492 125.866 148.863 126.187C148.954 126.276 149.024 126.393 149.064 126.526C149.108 126.644 149.146 126.765 149.178 126.889C149.225 127.135 149.232 127.391 149.199 127.641C149.199 127.693 149.258 127.706 149.277 127.666C149.456 127.325 149.355 126.769 149.157 126.466C149.111 126.379 149.051 126.305 148.989 126.225Z" fill="#345885"/>
<path d="M189.764 139.197L178.494 142.096L182.79 176.614C182.79 176.614 182.691 196.892 195.639 194.968C208.586 193.043 199.931 171.741 199.931 171.741L189.764 139.197Z" fill="#FBC5A9"/>
<path d="M193.624 128.43C194.978 126.092 192.565 125.186 192.565 125.186C192.565 125.186 187.648 122.868 183.865 126.196C180.771 128.917 178.448 132.866 178.448 132.866C178.448 132.866 177.644 134.1 177.528 136.829C177.412 139.558 179.17 143.963 179.197 144.032C179.302 144.11 179.434 144.143 179.563 144.125C180.133 144.125 181.123 143.854 181.123 143.854L184.998 142.358C188.177 141.202 188.756 139.076 188.756 139.076C188.756 139.076 191.65 139.31 192.981 138.226C193.36 137.926 193.642 137.521 193.79 137.062C193.938 136.603 193.947 136.11 193.814 135.646C195.633 134.045 194.314 132.147 194.314 132.147C194.378 132.083 194.436 132.019 194.491 131.955C195.462 130.796 194.959 129.05 193.624 128.43Z" fill="#FBC5A9"/>
<path d="M188.037 115.357L178.494 115.554L179.404 116.622C179.611 116.864 179.742 117.162 179.78 117.479C179.819 117.795 179.764 118.116 179.621 118.401L179.082 119.476C179.009 119.622 178.986 119.788 179.016 119.948L179.437 122.155C179.457 122.259 179.499 122.358 179.561 122.445C179.622 122.532 179.702 122.604 179.794 122.657C179.886 122.71 179.988 122.743 180.094 122.753C180.199 122.763 180.306 122.749 180.406 122.714L187.975 120.059C188.207 119.977 188.42 119.848 188.6 119.68C188.781 119.512 188.925 119.308 189.023 119.082C189.122 118.856 189.173 118.611 189.173 118.364C189.173 118.117 189.123 117.873 189.025 117.646L188.037 115.357Z" fill="#232163"/>
<path d="M191.766 133.088C190.93 130.792 190.195 128.419 189.837 127.468L189.369 126.221C189.043 125.352 188.817 124.445 188.695 123.521L188.375 121.113L181.406 123.645L185.451 135.825C185.518 136.026 185.888 137.295 186.262 138.555C186.343 138.826 186.476 139.077 186.654 139.293C186.832 139.508 187.05 139.684 187.295 139.808C187.541 139.933 187.808 140.005 188.081 140.018C188.353 140.032 188.626 139.987 188.881 139.887L191.76 138.757C192.014 138.657 192.245 138.505 192.441 138.31C192.636 138.114 192.792 137.88 192.897 137.62C193.003 137.361 193.057 137.082 193.056 136.8C193.054 136.518 192.998 136.239 192.89 135.981C192.487 135.009 192.072 133.929 191.766 133.088Z" fill="#232163"/>
<path d="M181.986 125.224L187.231 121.113L181.406 123.367L181.986 125.224Z" fill="#171448"/>
<path d="M213.169 119.645C212.895 119.583 212.625 119.499 212.361 119.395C208.339 117.818 203.975 111.235 201.628 102.562C199.288 93.9128 199.659 85.7838 202.219 82.0139C202.392 81.7545 202.584 81.5106 202.792 81.2844C203.316 80.6915 203.966 80.2533 204.683 80.0098L200.579 81.3643C195.939 82.8968 194.573 92.9957 197.529 103.917C200.485 114.838 206.641 122.449 211.281 120.916L215.384 119.561C214.663 119.792 213.902 119.821 213.169 119.645Z" fill="#232163"/>
<path d="M211.455 82.3256C209.086 79.2749 206.54 77.7898 204.343 78.5709C201.343 79.638 199.746 84.6655 199.856 91.2791C199.911 94.6279 200.401 98.3878 201.37 102.242C202.202 105.62 203.387 108.861 204.897 111.887C207.9 117.8 211.679 121.183 214.769 120.084C216.872 119.335 218.285 116.646 218.906 112.824C219.625 108.432 219.284 102.547 217.743 96.4162C216.263 90.5237 213.957 85.5494 211.455 82.3256Z" fill="#3F8CEB"/>
<path d="M211.637 98.9712C211.436 98.516 211.268 98.0451 211.134 97.5624C210.429 95.0329 210.755 92.6965 211.86 92.3418L199.851 95.0329C200.426 98.9276 201.483 102.722 202.996 106.317L214.412 101.497C213.528 101.78 212.41 100.708 211.637 98.9712Z" fill="#D61450"/>
<path d="M211.652 92.3902C210.523 92.7685 210.189 95.2624 210.91 97.9606C211.63 100.659 213.13 102.536 214.26 102.158C215.389 101.78 215.724 99.2857 215.003 96.5893C214.283 93.8929 212.783 92.0119 211.652 92.3902Z" fill="#DE5F96"/>
<path d="M171.973 122.552C171.571 122.377 171.19 122.15 170.841 121.875L170.7 121.764L170.56 121.645C170.263 121.388 169.982 121.112 169.72 120.817C169.627 120.716 169.537 120.61 169.448 120.502C169.358 120.394 169.263 120.277 169.171 120.157C169.104 120.071 169.036 119.982 168.97 119.892C168.904 119.803 168.835 119.708 168.769 119.612L168.663 119.458L168.637 119.422C168.575 119.329 168.513 119.233 168.451 119.137C168.388 119.041 168.314 118.927 168.248 118.817C166.197 115.336 165.065 111.339 164.97 107.241C164.97 106.994 164.97 106.744 164.981 106.512C164.981 106.446 164.981 106.377 164.981 106.309C164.991 106.181 164.997 106.054 165.006 105.928C165.016 105.802 165.025 105.699 165.036 105.588C165.058 105.363 165.086 105.144 165.118 104.926C165.127 104.858 165.14 104.792 165.151 104.722C165.162 104.652 165.174 104.58 165.19 104.507C165.206 104.434 165.217 104.374 165.231 104.306L165.273 104.107C165.317 103.91 165.369 103.722 165.43 103.539C165.466 103.417 165.507 103.296 165.548 103.182C165.63 102.945 165.727 102.714 165.839 102.491C165.861 102.44 165.886 102.391 165.914 102.343C166.036 102.113 166.177 101.895 166.337 101.693C166.366 101.653 166.398 101.615 166.428 101.578C166.487 101.509 166.547 101.446 166.611 101.383L161.446 106.161C160.695 106.726 160.23 107.925 160.092 109.474C159.954 111.023 160.145 112.922 160.703 114.889C161.816 118.821 164.022 121.68 165.865 121.754L172.669 122.756C172.48 122.718 172.295 122.662 172.115 122.59C172.074 122.59 172.02 122.574 171.973 122.552Z" fill="#3FAAEB"/>
<path d="M174.815 121.503C174.622 121.424 174.436 121.329 174.256 121.22C172.201 119.98 170.086 116.573 168.901 112.215C167.789 108.128 167.777 104.251 168.685 101.906C168.82 101.543 168.994 101.2 169.203 100.882C169.54 100.343 170.03 99.9408 170.597 99.7402L167.468 100.767C164.886 101.615 164.126 107.204 165.771 113.243C167.417 119.282 170.841 123.492 173.422 122.651L176.552 121.622C175.977 121.795 175.366 121.754 174.815 121.503Z" fill="#232163"/>
<path d="M198.823 105.165C198.481 104.164 198.166 103.127 197.879 102.052C195.91 94.6697 195.844 87.6557 197.38 83.2988L192.631 86.9685L190.53 88.5898C189.763 89.1825 188.985 89.7574 188.197 90.3145C187.491 90.8138 186.776 91.2975 186.054 91.7657C184.678 92.6553 183.277 93.4943 181.849 94.2827C181.665 94.3861 181.477 94.4862 181.292 94.5863C178.076 96.311 174.745 97.7521 171.329 98.8965C170.767 99.0992 170.281 99.5052 169.947 100.051C169.74 100.372 169.567 100.719 169.433 101.085C168.679 103.072 168.564 106.142 169.196 109.515C169.318 110.167 169.468 110.833 169.643 111.503C170.82 115.909 172.921 119.351 174.953 120.604C175.131 120.715 175.317 120.811 175.508 120.891C176.055 121.141 176.66 121.181 177.23 121.006C180.842 119.798 184.538 118.927 188.279 118.404C189.856 118.182 191.44 118.023 193.031 117.927C193.861 117.874 194.695 117.839 195.531 117.823C196.459 117.803 197.389 117.803 198.322 117.823L200.877 117.89L206.647 118.039C203.731 115.727 200.834 111.078 198.823 105.165Z" fill="#3FAAEB"/>
<path d="M198.737 105.494C192.951 108.948 183.945 113.791 179.105 113.677C175.365 113.612 171.745 112.237 168.786 109.757C168.91 110.395 169.062 111.047 169.238 111.704C170.428 116.017 172.552 119.388 174.607 120.615C174.787 120.723 174.974 120.817 175.167 120.896C175.72 121.14 176.332 121.18 176.908 121.008C180.56 119.825 184.296 118.973 188.078 118.46C189.673 118.243 191.274 118.087 192.882 117.993C193.721 117.941 194.564 117.907 195.41 117.892C196.347 117.872 197.288 117.872 198.231 117.892L200.814 117.957L206.647 118.103C203.699 115.836 200.771 111.284 198.737 105.494Z" fill="#3F8CEB"/>
<path d="M181.383 99.0367C175.656 101.078 172.836 101.651 173.839 103.915C173.839 103.915 174.888 106.129 178.888 105.315C183.828 104.309 194.319 97.2295 194.02 93.4474C193.721 89.6654 188.201 96.6035 181.383 99.0367Z" fill="#3FBEFF"/>
<path d="M205.113 78.5616C201.598 79.5806 199.729 84.381 199.857 90.696C200.637 88.872 201.807 87.2296 203.29 85.8776C206.057 83.4181 209.69 82.0827 213.442 82.1468C210.667 79.2338 207.685 77.8158 205.113 78.5616Z" fill="#3F48CA"/>
<path d="M183.348 129.362L185.525 139.198C188.919 136.826 187.457 132.727 187.457 132.727C188.876 131.513 190.352 130.388 191.878 129.356C194.113 127.882 192.48 125.223 192.48 125.223L183.348 129.362Z" fill="#FBC5A9"/>
<path d="M193.748 131.824C192.347 132.47 187.459 132.393 187.411 132.392C187.364 132.391 187.319 132.402 187.285 132.423C187.251 132.444 187.232 132.473 187.231 132.503C187.229 132.534 187.247 132.563 187.279 132.585C187.311 132.607 187.355 132.62 187.402 132.621C187.442 132.621 187.658 132.621 187.994 132.621C189.374 132.621 192.747 132.562 193.952 132.007C193.99 131.989 194.016 131.963 194.024 131.933C194.031 131.903 194.021 131.872 193.994 131.847C193.967 131.822 193.925 131.806 193.879 131.8C193.833 131.795 193.786 131.802 193.748 131.82V131.824Z" fill="#F7A18A"/>
<path d="M193.767 134.286C190.959 136.2 187.527 134.663 187.493 134.649C187.467 134.634 187.44 134.627 187.413 134.63C187.387 134.633 187.36 134.645 187.336 134.666C187.312 134.686 187.291 134.715 187.274 134.75C187.257 134.784 187.245 134.825 187.238 134.868C187.23 134.911 187.229 134.957 187.232 135.001C187.236 135.046 187.245 135.088 187.259 135.127C187.274 135.165 187.292 135.198 187.314 135.223C187.337 135.249 187.362 135.267 187.388 135.275C188.397 135.696 189.433 135.908 190.474 135.908C191.648 135.939 192.815 135.593 193.911 134.889C193.957 134.855 193.993 134.791 194.012 134.713C194.031 134.634 194.031 134.547 194.012 134.469C193.992 134.39 193.956 134.328 193.91 134.293C193.863 134.259 193.811 134.256 193.763 134.286H193.767Z" fill="#F7A18A"/>
<path d="M189.02 138.702C188.165 138.358 186.787 137.572 186.737 136.967C186.734 136.934 186.725 136.901 186.711 136.871C186.697 136.841 186.677 136.815 186.653 136.793C186.629 136.771 186.601 136.755 186.571 136.745C186.541 136.734 186.51 136.731 186.479 136.733C186.447 136.736 186.417 136.746 186.389 136.761C186.361 136.776 186.336 136.798 186.316 136.823C186.296 136.849 186.281 136.879 186.271 136.911C186.262 136.943 186.258 136.976 186.261 137.01C186.351 138.139 188.597 139.081 188.854 139.183C188.88 139.193 188.908 139.199 188.936 139.199C188.992 139.198 189.045 139.176 189.087 139.137C189.13 139.099 189.158 139.046 189.168 138.987C189.178 138.929 189.169 138.868 189.142 138.816C189.115 138.764 189.072 138.724 189.02 138.702Z" fill="#F7A18A"/>
<path d="M182.377 130.536L185.643 139.198C188.984 136.826 187.545 132.727 187.545 132.727C188.942 131.513 190.395 130.388 191.897 129.356C194.096 127.882 192.489 125.223 192.489 125.223L182.377 130.536Z" fill="#FBC5A9"/>
<path d="M193.217 127.749L193.044 127.689C193.06 128.37 192.779 129.133 191.779 129.698C190.137 130.651 188.548 131.689 187.019 132.809C187.019 132.809 188.159 135.542 186.26 137.706C186.329 138.464 188.265 139.175 188.265 139.175C188.265 139.175 191.384 139.425 192.82 138.274C193.229 137.954 193.532 137.524 193.692 137.035C193.852 136.547 193.861 136.024 193.718 135.53C195.676 133.83 194.257 131.812 194.257 131.812C194.325 131.746 194.389 131.678 194.446 131.61C195.572 130.29 194.877 128.271 193.217 127.749Z" fill="#FBC5A9"/>
<path d="M193.758 131.82C192.355 132.469 187.461 132.392 187.411 132.391C187.365 132.39 187.319 132.401 187.285 132.422C187.251 132.443 187.232 132.472 187.231 132.503C187.229 132.533 187.247 132.563 187.279 132.585C187.311 132.607 187.355 132.62 187.402 132.621C187.442 132.621 187.66 132.621 187.995 132.621C189.377 132.621 192.755 132.561 193.961 132.004C193.995 131.985 194.018 131.959 194.024 131.93C194.03 131.901 194.02 131.872 193.994 131.848C193.968 131.824 193.929 131.807 193.886 131.801C193.842 131.795 193.796 131.8 193.758 131.816V131.82Z" fill="#F7A18A"/>
<path d="M194.894 129.538C194.775 129.125 194.557 128.747 194.258 128.437C193.959 128.127 193.588 127.895 193.178 127.761L193.012 127.701C192.984 127.691 192.953 127.687 192.922 127.691C192.891 127.695 192.862 127.706 192.837 127.724C192.811 127.743 192.79 127.767 192.776 127.796C192.762 127.825 192.756 127.857 192.758 127.889C192.771 128.636 192.396 129.233 191.64 129.664C190.065 130.586 188.54 131.592 187.072 132.676C187.039 132.7 187.015 132.736 187.004 132.775C186.993 132.815 186.995 132.858 187.011 132.896C187.021 132.921 188.024 135.463 186.306 137.437C186.273 137.476 186.257 137.527 186.26 137.577C186.333 138.4 188.09 139.086 188.292 139.162C188.308 139.168 188.325 139.171 188.342 139.172C188.38 139.172 188.672 139.198 189.094 139.198C190.086 139.198 191.832 139.073 192.826 138.27C193.228 137.951 193.531 137.524 193.7 137.04C193.869 136.556 193.897 136.034 193.78 135.535C195.354 134.073 194.595 132.384 194.327 131.905L194.418 131.802C194.681 131.494 194.862 131.125 194.945 130.73C195.028 130.334 195.011 129.925 194.894 129.538ZM193.945 131.976C194.156 132.312 194.296 132.687 194.355 133.079C194.482 133.931 194.178 134.688 193.452 135.325C193.425 135.349 193.405 135.38 193.395 135.415C193.386 135.451 193.387 135.488 193.399 135.522C193.526 135.964 193.517 136.433 193.374 136.87C193.231 137.306 192.96 137.69 192.596 137.972C191.362 138.968 188.697 138.813 188.408 138.795C187.77 138.551 186.789 138.038 186.657 137.607C188.214 135.746 187.608 133.465 187.416 132.886C188.837 131.842 190.312 130.873 191.835 129.984C192.617 129.538 193.06 128.904 193.132 128.142C193.467 128.264 193.77 128.464 194.013 128.725C194.256 128.986 194.434 129.3 194.532 129.643C194.632 129.969 194.648 130.315 194.579 130.649C194.511 130.983 194.359 131.294 194.138 131.555C194.086 131.616 194.029 131.678 193.973 131.739C193.942 131.769 193.921 131.809 193.916 131.853C193.911 131.896 193.921 131.94 193.945 131.976Z" fill="#F7A18A"/>
<path d="M192.265 125.242L184.582 128.823L184.553 128.841L182.457 130.418C182.418 130.448 182.391 130.494 182.381 130.547C182.371 130.599 182.38 130.655 182.405 130.7C182.43 130.746 182.469 130.778 182.514 130.79C182.56 130.801 182.607 130.791 182.646 130.762L184.728 129.194L192.259 125.677C192.431 126.014 192.832 126.93 192.661 127.826C192.552 128.408 192.217 128.889 191.67 129.258C190.211 130.265 188.799 131.363 187.44 132.546C187.41 132.573 187.388 132.611 187.377 132.654C187.367 132.698 187.369 132.744 187.383 132.785C187.439 132.941 188.684 136.637 185.62 138.821C185.601 138.835 185.584 138.853 185.57 138.875C185.557 138.896 185.547 138.921 185.541 138.947C185.536 138.973 185.535 139 185.539 139.026C185.542 139.053 185.55 139.078 185.562 139.101C185.578 139.131 185.601 139.156 185.628 139.173C185.655 139.19 185.685 139.198 185.715 139.197C185.748 139.198 185.779 139.188 185.807 139.169C188.766 137.058 187.974 133.548 187.758 132.782C189.072 131.642 190.438 130.583 191.848 129.611C192.484 129.183 192.874 128.612 193.006 127.913C193.252 126.612 192.509 125.353 192.477 125.301C192.452 125.265 192.418 125.239 192.38 125.228C192.341 125.218 192.301 125.222 192.265 125.242Z" fill="#F7A18A"/>
<path d="M148.776 86.6924C146.573 83.6699 143.292 80.7884 138.83 80.8325C137.494 80.8558 136.168 81.109 134.9 81.5831C133.359 82.1271 131.871 82.8432 130.457 83.7209C125.922 86.5906 123.46 90.8526 123.18 96.5427C123.1 98.5351 123.238 100.531 123.59 102.486C123.714 103.209 123.865 103.95 124.043 104.709C124.076 104.848 124.134 104.979 124.214 105.093C124.294 105.206 124.393 105.3 124.507 105.369C124.62 105.437 124.745 105.478 124.873 105.49C125.002 105.502 125.131 105.484 125.253 105.437L125.294 105.42L135.04 101.095L136.871 100.284L141.601 98.1847L152.282 93.4455C151.822 92.0901 151.248 90.7874 150.566 89.5553C150.03 88.5551 149.432 87.5985 148.776 86.6924Z" fill="#F07F1B"/>
<path d="M153.345 91.1749C153.177 91.1263 153.008 91.0828 152.838 91.0426C152.667 91.0024 152.538 90.9723 152.389 90.9422C151.731 90.8033 151.064 90.7237 150.395 90.7044C149.571 90.6632 148.748 90.8008 147.971 91.1096C145.395 92.2516 141.281 96.4192 138.815 99.0833C137.811 100.168 137.081 101.004 136.838 101.283L136.75 101.384C136.75 101.384 139.549 100.57 143.1 99.4533C146.636 98.3356 150.118 97.0144 153.532 95.4949C156.715 94.0482 158.385 92.4625 158.069 92.0155C157.511 91.2318 155.343 91.7291 153.345 91.1749Z" fill="#F07F1B"/>
<path d="M148.776 86.303C146.573 83.4822 143.292 80.7913 138.832 80.8325C137.495 80.8556 136.17 81.0918 134.901 81.5329C133.36 82.0405 131.871 82.7094 130.457 83.5297C125.922 86.2063 123.461 90.1855 123.18 95.4943C123.1 97.3538 123.238 99.2165 123.59 101.041C123.714 101.716 123.865 102.408 124.043 103.117C124.076 103.247 124.134 103.369 124.214 103.475C124.294 103.581 124.393 103.669 124.507 103.733C124.62 103.797 124.745 103.835 124.873 103.846C125.002 103.857 125.131 103.84 125.253 103.797L125.294 103.781L135.042 99.743L136.873 98.9855L141.602 97.0268L152.282 92.6038C151.824 91.3424 151.251 90.1298 150.572 88.9827C150.035 88.0461 149.435 87.1506 148.776 86.303Z" fill="#FCBE21"/>
<path d="M123.158 97.2737C129.653 91.4394 130.13 85.8754 129.915 83.2988C125.704 86.4251 123.419 91.0655 123.158 97.2737Z" fill="#FCD86A"/>
<path d="M148.718 86.3026C146.48 83.482 143.151 80.7913 138.623 80.8325C140.022 82.9464 141.692 86.1093 141.373 88.7984C140.886 92.8819 131.246 99.7448 123.158 101.041C123.284 101.716 123.437 102.408 123.619 103.117C123.652 103.247 123.711 103.369 123.792 103.475C123.873 103.581 123.974 103.669 124.089 103.733C124.204 103.797 124.331 103.835 124.461 103.846C124.591 103.857 124.722 103.84 124.846 103.797L124.887 103.781L134.783 99.7433L136.641 98.9858L141.442 97.0272L152.282 92.6046C151.815 91.3424 151.232 90.1294 150.54 88.9822C149.995 88.0456 149.386 87.1501 148.718 86.3026Z" fill="#FCA214"/>
<path d="M130.385 88.2821C127.924 88.0176 125.898 88.7678 124.245 90.5683C122.939 91.9955 122.975 93.6834 123.494 94.713C125.146 92.2205 128.087 90.9396 130.589 91.2509C136.749 92.0142 141.202 96.0652 142.574 97.273C139.366 90.4782 133.171 88.5803 130.385 88.2821Z" fill="#F07F1B"/>
<path d="M143.508 81.789C141.78 80.4876 137.795 79.6972 135.419 80.1279C132.39 80.6821 130.07 82.1039 129.954 83.6183C133.856 82.0653 139.562 82.0746 142.746 84.0305C145.931 85.9865 147.957 89.0878 149.37 92.3405C149.161 88.5043 146.826 84.2914 143.508 81.789Z" fill="#F07F1B"/>
<path d="M146.458 83.2993C148.838 85.5202 151.817 88.7563 151.341 92.3414C152.819 90.7027 152.337 88.5168 151.395 86.6163C150.702 85.2267 148.927 83.2628 146.458 83.2993Z" fill="#F07F1B"/>
<path d="M153.859 90.3158C153.696 90.2726 153.53 90.2308 153.366 90.1937C153.202 90.1566 153.075 90.1288 152.929 90.101C152.289 89.9727 151.64 89.8993 150.988 89.8816C150.187 89.8436 149.387 89.9706 148.631 90.2556C146.127 91.3095 142.127 95.156 139.729 97.6147C138.752 98.6161 138.042 99.3873 137.807 99.6453L137.721 99.7396C137.721 99.7396 140.442 98.987 143.895 97.9578C147.275 96.9486 151.356 95.6721 154.278 94.5718C156.742 93.6446 158.377 92.841 158.07 92.4284C157.53 91.7051 155.802 90.8289 153.859 90.3158Z" fill="#FCD86A"/>
<path d="M150.229 89.8839C149.33 89.913 148.378 91.2234 148.4 91.482C148.422 91.7406 151.277 91.9686 153.254 92.3304C154.076 92.4757 156.166 91.1028 156.166 91.1028C153.484 89.6907 150.229 89.8839 150.229 89.8839Z" fill="#FDE18E"/>
<path d="M146.392 92.3431C145.891 92.4232 144.548 95.8348 144.516 97.0357C144.483 98.2367 149.659 94.559 150.28 93.5776C150.901 92.5962 146.544 92.3199 146.392 92.3431Z" fill="#FDE18E"/>
<path d="M218.296 89.8755L235.77 73.9874L230.122 69.3242L218.296 89.8755Z" fill="white"/>
<path d="M226.062 97.2728L242.566 93.414L240.474 87.4082L226.062 97.2728Z" fill="white"/>
<path d="M239.686 121.113L243.537 114.507L223.15 103.85L239.686 121.113Z" fill="white"/>
<path d="M441.138 252.99L435.375 255.703L436.681 259.18L442.445 256.467L441.138 252.99Z" fill="#FFBF67"/>
<path d="M435.753 255.014L436.793 257.573L442.548 254.377L441.508 251.818L435.753 255.014Z" fill="#253191"/>
<path d="M439.016 238.346L428.552 243.26C425.488 244.699 422.931 247.221 421.273 250.44C419.616 253.659 418.949 257.396 419.375 261.079L419.636 263.327L458.082 245.266L456.826 243.485C454.769 240.57 451.913 238.489 448.696 237.561C445.48 236.632 442.079 236.908 439.016 238.346Z" fill="#C8E1FF"/>
<path d="M437.584 240.159L436.724 240.522C440.406 238.971 445.431 241.886 449.003 247.643L450.063 249.353L453.227 248.021L452.085 246.345C448.238 240.704 442.304 238.172 437.584 240.159Z" fill="#98BBFF"/>
<path d="M436.148 240.604L435.753 240.775C438.354 239.616 442.514 243.341 445.911 249.878L446.922 251.819L448.373 251.171L447.324 249.247C443.802 242.77 439.224 239.231 436.148 240.604Z" fill="#98BBFF"/>
<path d="M424.197 249.651C423.747 250.977 425.008 252.235 426.228 251.689L427.616 251.063C428.164 250.816 428.633 250.402 428.964 249.873C429.295 249.343 429.475 248.722 429.48 248.085C429.505 244.908 430.317 242.655 431.87 241.955L429.896 242.845C427.233 244.044 425.266 246.496 424.197 249.651Z" fill="white"/>
<path d="M428.844 253.144C428.803 252.901 428.723 252.674 428.61 252.477C428.497 252.281 428.353 252.12 428.189 252.006C428.025 251.893 427.844 251.829 427.66 251.82C427.475 251.81 427.292 251.855 427.121 251.952L423.909 253.769C423.673 253.901 423.472 254.127 423.334 254.417C423.195 254.706 423.125 255.046 423.133 255.39C423.133 255.585 423.146 255.779 423.155 255.973C423.168 256.245 423.229 256.508 423.333 256.742C423.436 256.975 423.58 257.171 423.751 257.315C423.923 257.459 424.117 257.545 424.318 257.567C424.519 257.589 424.721 257.546 424.908 257.442L428.184 255.585C428.462 255.426 428.689 255.138 428.824 254.774C428.959 254.409 428.993 253.992 428.92 253.596C428.897 253.447 428.87 253.296 428.844 253.144Z" fill="white"/>
<path d="M430.749 381.861L425.253 402.02C425.064 402.714 425.024 403.447 425.136 404.161C425.248 404.875 425.51 405.55 425.899 406.132C426.288 406.714 426.795 407.187 427.378 407.513C427.962 407.838 428.606 408.008 429.259 408.008H436.906C437.545 408.008 438.175 407.846 438.749 407.534C439.322 407.221 439.824 406.768 440.215 406.207L446.902 396.617C447.649 395.563 448.132 394.308 448.304 392.979C448.475 391.651 448.328 390.296 447.877 389.051C443.661 377.648 431.997 377.553 430.749 381.861Z" fill="#190163"/>
<path d="M434.777 379.27C436.495 380.815 438.025 382.955 439.088 385.799C439.435 386.73 439.606 387.73 439.589 388.736L429.963 384.194L428.255 390.414C430.654 392.697 433.331 394.602 436.207 396.073L431.365 402.962C430.971 403.523 430.465 403.976 429.886 404.289C429.308 404.601 428.672 404.763 428.028 404.763H425.074C425.344 405.705 425.88 406.528 426.603 407.111C427.327 407.695 428.201 408.009 429.098 408.008H436.81C437.454 408.008 438.09 407.846 438.668 407.533C439.246 407.221 439.752 406.767 440.146 406.207L446.889 396.613C447.643 395.558 448.13 394.302 448.303 392.974C448.476 391.645 448.328 390.289 447.873 389.044C445.058 381.491 438.949 378.903 434.777 379.27Z" fill="#120148"/>
<path d="M482.066 251.818H462.201V252.291C432.025 256.426 408.571 287.573 408.571 325.392C408.571 363.21 432.025 394.356 462.201 398.493V398.965H482.066C515.466 398.965 542.54 366.025 542.54 325.392C542.54 284.758 515.466 251.818 482.066 251.818Z" fill="#4060C3"/>
<path d="M461.964 398.965C495.206 398.965 522.153 366.025 522.153 325.392C522.153 284.758 495.206 251.818 461.964 251.818C428.723 251.818 401.775 284.758 401.775 325.392C401.775 366.025 428.723 398.965 461.964 398.965Z" fill="#73ACFF"/>
<path d="M463.906 259.299C463.034 259.245 462.155 259.218 461.272 259.217C432.213 259.217 408.571 288.718 408.571 324.982C408.571 361.245 432.213 390.745 461.272 390.745C462.159 390.745 463.038 390.718 463.906 390.664C436.065 388.945 413.839 360.142 413.839 324.982C413.839 289.822 436.059 261.017 463.906 259.299Z" fill="#253191"/>
<path d="M464.391 390.745C492.003 390.745 514.387 361.301 514.387 324.981C514.387 288.66 492.003 259.217 464.391 259.217C436.779 259.217 414.396 288.66 414.396 324.981C414.396 361.301 436.779 390.745 464.391 390.745Z" fill="#C8E1FF"/>
<path d="M465.848 265.793H463.906V276.48H465.848V265.793Z" fill="#190163"/>
<path d="M440.607 275.569L444.967 284.7L448.374 282.322L444.014 273.191L440.607 275.569Z" fill="#190163"/>
<path d="M425.074 297.148L432.777 303.608L434.782 298.56L427.081 292.1L425.074 297.148Z" fill="#190163"/>
<path d="M427.987 322.516H420.221V328.27H427.987V322.516Z" fill="#190163"/>
<path d="M425.074 351.993L427.081 357.042L434.782 350.581L432.777 345.533L425.074 351.993Z" fill="#190163"/>
<path d="M440.607 373.569L444.014 375.948L448.374 366.818L444.967 364.439L440.607 373.569Z" fill="#190163"/>
<path d="M465.848 373.482H463.906V383.347H465.848V373.482Z" fill="#190163"/>
<path d="M480.409 366.818L484.768 375.948L488.176 373.569L483.815 364.439L480.409 366.818Z" fill="#190163"/>
<path d="M494.972 350.581L502.675 357.042L504.68 351.993L496.978 345.533L494.972 350.581Z" fill="#190163"/>
<path d="M508.562 322.516H501.767V328.27H508.562V322.516Z" fill="#190163"/>
<path d="M494.972 298.56L496.978 303.608L504.68 297.148L502.675 292.1L494.972 298.56Z" fill="#190163"/>
<path d="M480.409 282.322L483.815 284.7L488.176 275.569L484.768 273.191L480.409 282.322Z" fill="#190163"/>
<path d="M460.967 328.27L449.344 352.805L450.631 356.219L454.225 354.767L465.847 330.23L463.408 329.25L460.967 328.27Z" fill="#4060C3"/>
<path d="M463.907 316.76C460.695 316.76 458.081 320.447 458.081 324.98C458.081 329.514 460.695 333.201 463.907 333.201C467.118 333.201 469.731 329.512 469.731 324.98C469.731 320.448 467.118 316.76 463.907 316.76Z" fill="#190163"/>
<path d="M432.841 304.858L433.665 308.815L462.516 328.269L463.697 325.665L464.877 323.061L436.024 303.607L432.841 304.858Z" fill="#190163"/>
<path d="M464.393 321.693H462.676V322.147C461.672 322.72 460.994 323.774 460.994 324.982C460.994 326.191 461.672 327.245 462.676 327.816V328.27H464.393C466.266 328.27 467.79 326.801 467.79 324.982C467.79 323.163 466.271 321.693 464.393 321.693Z" fill="#FF9168"/>
<path d="M462.449 321.693C461.111 321.693 460.022 323.162 460.022 324.982C460.022 326.803 461.111 328.27 462.449 328.27C463.787 328.27 464.876 326.801 464.876 324.982C464.876 323.163 463.788 321.693 462.449 321.693Z" fill="#FFBF67"/>
<path d="M517.189 381.862C516.099 377.553 505.893 377.648 502.2 389.046C501.806 390.291 501.677 391.647 501.827 392.975C501.977 394.304 502.4 395.559 503.054 396.614L508.904 406.207C509.247 406.767 509.686 407.221 510.187 407.533C510.689 407.845 511.241 408.008 511.8 408.008H518.491C519.063 408.008 519.627 407.838 520.137 407.513C520.648 407.187 521.091 406.714 521.432 406.132C521.772 405.55 522.001 404.874 522.099 404.16C522.197 403.446 522.162 402.712 521.996 402.018L517.189 381.862Z" fill="#190163"/>
<path d="M514.164 404.653C513.602 404.653 513.048 404.49 512.543 404.175C512.039 403.86 511.598 403.402 511.254 402.837L505.376 393.163C504.72 392.098 504.295 390.832 504.145 389.492C503.994 388.152 504.123 386.785 504.518 385.528C504.856 384.48 505.271 383.474 505.758 382.525C504.189 384.252 502.97 386.434 502.202 388.886C501.806 390.142 501.677 391.509 501.828 392.849C501.978 394.189 502.403 395.455 503.06 396.519L508.937 406.192C509.281 406.758 509.723 407.215 510.227 407.53C510.731 407.845 511.285 408.009 511.847 408.009H518.57C519.403 408.009 520.211 407.649 520.862 406.987C521.513 406.325 521.968 405.402 522.153 404.367C521.748 404.557 521.319 404.654 520.887 404.653H514.164Z" fill="#120148"/>
<path d="M507.195 258.458L505.493 262.951L512.942 266.485L514.643 261.992L507.195 258.458Z" fill="#253191"/>
<path d="M506.339 256.638L505.493 258.889L512.956 262.402L513.802 260.151L506.339 256.638Z" fill="#190163"/>
<path d="M522.916 243.567L509.578 237.117C505.672 235.229 501.335 234.866 497.233 236.084C493.13 237.303 489.488 240.036 486.866 243.864L485.264 246.201L534.282 269.903L534.615 266.952C535.157 262.119 534.306 257.215 532.193 252.991C530.08 248.766 526.821 245.456 522.916 243.567Z" fill="#C8E1FF"/>
<path d="M494.373 247.307L493.029 249.82L496.752 251.818L498 249.254C502.195 240.614 508.112 236.242 512.445 238.569L511.433 238.033C505.879 235.043 498.899 238.841 494.373 247.307Z" fill="#98BBFF"/>
<path d="M500.144 250.524L498.854 252.723L500.641 253.463L501.886 251.245C506.074 243.778 511.19 239.521 514.387 240.846L513.902 240.646C510.118 239.078 504.488 243.12 500.144 250.524Z" fill="#98BBFF"/>
<path d="M521.216 243.066L519.241 241.955C520.795 242.829 521.607 245.646 521.632 249.617C521.637 250.413 521.816 251.19 522.147 251.852C522.478 252.514 522.946 253.031 523.495 253.34L524.884 254.122C526.098 254.806 527.364 253.232 526.915 251.575C525.846 247.632 523.878 244.566 521.216 243.066Z" fill="white"/>
<path d="M527.914 258.444L523.635 256.1C523.408 255.977 523.163 255.919 522.917 255.931C522.671 255.944 522.431 256.026 522.212 256.172C521.993 256.318 521.802 256.525 521.651 256.778C521.5 257.03 521.394 257.323 521.339 257.634C521.305 257.827 521.27 258.024 521.233 258.218C521.135 258.726 521.181 259.262 521.361 259.73C521.54 260.198 521.843 260.568 522.213 260.772L526.579 263.157C526.828 263.293 527.097 263.349 527.366 263.321C527.634 263.294 527.894 263.183 528.123 262.999C528.352 262.814 528.543 262.561 528.682 262.26C528.82 261.96 528.901 261.621 528.918 261.272C528.93 261.021 528.941 260.772 528.948 260.524C528.958 260.081 528.865 259.646 528.68 259.274C528.495 258.903 528.228 258.613 527.914 258.444Z" fill="white"/>
<path d="M536.892 238.545C532.776 235.319 528.719 234.595 528.548 234.566C528.197 234.519 527.841 234.617 527.557 234.839C527.273 235.062 527.082 235.392 527.025 235.759C526.969 236.126 527.05 236.503 527.253 236.808C527.455 237.113 527.763 237.324 528.111 237.396C528.146 237.396 531.672 238.029 535.258 240.842C540.071 244.616 542.581 250.326 542.722 257.811C542.729 258.186 542.875 258.543 543.13 258.806C543.386 259.069 543.729 259.216 544.086 259.216H544.114C544.476 259.209 544.82 259.051 545.071 258.777C545.322 258.503 545.459 258.136 545.453 257.755C545.256 247.272 540.689 241.523 536.892 238.545Z" fill="#4060C3"/>
<path d="M545.72 233.385C542.99 230.949 540.27 230.478 540.154 230.462C539.814 230.405 539.467 230.495 539.19 230.712C538.912 230.929 538.726 231.256 538.673 231.62C538.62 231.984 538.704 232.355 538.907 232.653C539.109 232.951 539.414 233.15 539.754 233.207C540.11 233.27 548.489 234.891 548.684 247.985C548.689 248.35 548.828 248.697 549.071 248.953C549.313 249.209 549.64 249.353 549.981 249.352H550.002C550.172 249.35 550.34 249.311 550.497 249.238C550.653 249.166 550.794 249.061 550.913 248.93C551.031 248.799 551.124 248.644 551.187 248.474C551.249 248.305 551.28 248.124 551.277 247.941C551.158 239.912 548.188 235.595 545.72 233.385Z" fill="#4060C3"/>
<path d="M429.59 234.564C420.528 235.477 415.821 240.78 413.468 245.07C410.918 249.72 410.533 254.135 410.518 254.321C410.487 254.709 410.587 255.096 410.795 255.397C411.004 255.698 411.306 255.888 411.633 255.926C411.674 255.929 411.715 255.929 411.757 255.926C412.065 255.925 412.362 255.789 412.59 255.543C412.818 255.298 412.962 254.961 412.993 254.598C412.993 254.56 413.357 250.614 415.609 246.563C418.597 241.191 423.371 238.139 429.8 237.493C430.121 237.449 430.414 237.258 430.619 236.962C430.823 236.665 430.922 236.286 430.895 235.904C430.867 235.522 430.716 235.168 430.472 234.917C430.228 234.666 429.912 234.536 429.589 234.557L429.59 234.564Z" fill="#4060C3"/>
<path d="M419.901 228.801C412.6 229.389 408.857 232.517 407.003 235.036C404.956 237.817 404.701 240.477 404.692 240.595C404.663 240.926 404.768 241.254 404.983 241.509C405.197 241.763 405.505 241.923 405.838 241.954C405.878 241.954 405.917 241.954 405.957 241.954C406.272 241.953 406.576 241.836 406.809 241.626C407.042 241.415 407.188 241.127 407.218 240.815C407.253 240.467 408.197 232.264 420.116 231.304C420.433 231.255 420.72 231.09 420.918 230.84C421.117 230.59 421.213 230.275 421.187 229.959C421.161 229.642 421.014 229.346 420.778 229.132C420.541 228.918 420.231 228.8 419.91 228.804L419.901 228.801Z" fill="#4060C3"/>
<path d="M348.866 313.984C348.277 312.829 347.429 311.87 346.407 311.203C345.386 310.536 344.227 310.185 343.048 310.184C341.868 310.183 340.709 310.532 339.686 311.198C338.664 311.863 337.815 312.82 337.224 313.974L292.008 402.441C291.417 403.59 291.105 404.896 291.105 406.226C291.106 407.556 291.417 408.861 292.008 410.011C292.599 411.161 293.449 412.113 294.471 412.772C295.494 413.431 296.652 413.772 297.829 413.762H388.261C389.436 413.773 390.593 413.433 391.614 412.776C392.635 412.119 393.485 411.169 394.076 410.022C394.667 408.874 394.979 407.571 394.98 406.243C394.981 404.915 394.671 403.611 394.082 402.462L348.866 313.984Z" fill="#8C293D"/>
<path d="M346.073 320.382C345.765 319.78 345.323 319.28 344.79 318.933C344.257 318.586 343.652 318.403 343.037 318.404C342.812 318.406 342.587 318.432 342.367 318.483C341.874 318.594 341.409 318.823 341.001 319.154C340.593 319.485 340.253 319.911 340.002 320.402L298.372 401.933C298.063 402.543 297.9 403.233 297.9 403.936C297.9 404.639 298.063 405.329 298.372 405.939C298.998 407.164 300.156 408.008 301.406 408.008H384.678C385.93 408.008 387.088 407.168 387.714 405.939C388.022 405.329 388.184 404.639 388.184 403.937C388.184 403.235 388.022 402.545 387.714 401.934L346.073 320.382Z" fill="#D61450"/>
<path d="M346.394 346.016L339.741 345.54C339.183 345.501 338.649 345.626 338.264 346.016C338.073 346.199 337.924 346.423 337.828 346.672C337.731 346.922 337.69 347.19 337.707 347.457L339.121 375.412C339.178 376.526 340.072 377.473 341.147 377.499L345.012 377.593C345.525 377.599 346.02 377.399 346.391 377.037C346.763 376.674 346.983 376.177 347.003 375.652L348.38 348.204C348.392 347.925 348.35 347.648 348.257 347.386C348.164 347.125 348.022 346.885 347.838 346.68C347.653 346.476 347.429 346.312 347.181 346.198C346.933 346.084 346.665 346.022 346.394 346.016Z" fill="white"/>
<path d="M343.056 383.349C341.364 383.319 340.049 383.795 339.111 384.778C338.174 385.761 337.704 387.187 337.703 389.055C337.703 390.857 338.178 392.275 339.127 393.307C340.076 394.34 341.386 394.856 343.056 394.856C344.761 394.856 346.075 394.357 347 393.36C347.924 392.362 348.385 390.959 348.382 389.15C348.382 387.27 347.93 385.842 347.027 384.866C346.124 383.89 344.801 383.384 343.056 383.349Z" fill="white"/>
<path d="M260.848 332.531L251.603 283.025C249.73 273.275 242.71 266.37 231.213 263.033C221.542 260.226 209.185 260.13 196.362 262.805C183.391 265.512 171.617 270.704 163.275 277.442C153.179 285.6 148.838 295.34 150.802 305.568L161.006 357.253L161.065 357.437C164.786 369.221 173.528 380.032 186.95 389.493C197.528 396.95 208.646 401.907 216.07 404.744C218.524 405.674 221.163 405.794 223.675 405.091C226.209 404.388 228.518 402.905 230.343 400.808C235.874 394.465 243.781 384.47 250.227 372.72C258.257 358.068 261.816 344.641 260.859 332.721L260.848 332.531Z" fill="#6B69DB"/>
<path d="M263.748 332.663L254.466 283.135C252.588 273.38 245.618 266.456 234.224 263.084C224.639 260.248 212.401 260.113 199.712 262.752C186.871 265.419 175.223 270.574 166.977 277.287C156.998 285.412 152.722 295.139 154.692 305.37L164.924 357.078L164.982 357.263C168.697 369.062 177.381 379.893 190.697 389.394C201.192 396.881 212.215 401.872 219.581 404.729C222.007 405.668 224.623 405.797 227.113 405.1C229.624 404.403 231.909 402.927 233.706 400.841C239.168 394.513 246.979 384.545 253.33 372.816C261.249 358.191 264.736 344.778 263.764 332.854L263.748 332.663Z" fill="#A9ACFF"/>
<path d="M253.498 282.891C246.401 246.07 150.133 265.799 157.543 304.247L167.802 356.003C175.944 381.708 207.827 396.41 221.483 401.623C225.396 403.117 229.798 401.909 232.748 398.546C242.903 386.967 264.909 358.679 262.813 332.58L253.498 282.891Z" fill="#7059E8"/>
<path d="M244.849 284.979C243.922 280.266 239.856 276.865 232.73 274.861C224.674 272.594 213.69 272.632 202.548 274.996C191.294 277.383 180.855 281.934 173.963 287.493C167.788 292.472 165.119 297.485 166.056 302.371L176.214 353.201C179.187 362.004 186.334 370.423 197.398 378.193C207.641 385.387 218.732 390.118 224.395 392.286C224.702 392.404 225.033 392.421 225.349 392.335C225.668 392.249 225.959 392.067 226.189 391.807C230.468 387 238.554 377.294 244.891 365.951C251.629 353.901 254.729 343.233 254.146 334.165L244.849 284.979Z" fill="#4028A1"/>
<path d="M241.105 285.681C240.442 282.272 237.132 279.702 231.246 278.036C223.671 275.894 213.261 275.962 202.642 278.255C191.922 280.569 182.035 284.924 175.566 290.21C170.483 294.365 168.236 298.265 168.9 301.766L178.907 352.39C181.668 360.448 188.32 368.266 198.628 375.602C208.062 382.313 218.269 386.849 223.95 389.101C228.233 384.19 235.652 375.042 241.508 364.48C247.814 353.105 250.754 343.132 250.284 334.779L241.105 285.681Z" fill="#7059E8"/>
<path d="M224.647 293.761C221.767 293.998 219.015 296.802 218.442 299.991L212.539 332.832L199.566 321.029C197.913 319.525 195.419 320.108 194.006 322.267C192.622 324.381 192.767 327.26 194.324 328.754L212.279 345.996C213.433 347.104 215.091 347.465 216.658 346.942L216.817 346.885C218.46 346.273 219.715 344.774 220.078 342.971L228.84 299.407C229.512 296.062 227.606 293.515 224.647 293.761Z" fill="white"/>
<rect x="399.08" y="41.1016" width="209.583" height="34.9794" fill="url(#paint0_linear_150_3614)"/>
</g>
<defs>
<linearGradient id="paint0_linear_150_3614" x1="399.08" y1="58.5913" x2="608.663" y2="58.5913" gradientUnits="userSpaceOnUse">
<stop stop-color="#7B4CFA"/>
<stop offset="1" stop-color="#1EDD90"/>
</linearGradient>
<clipPath id="clip0_150_3614">
<rect width="565" height="425" fill="white"/>
</clipPath>
</defs>
</svg>
