<svg width="727" height="688" viewBox="0 0 727 688" fill="none" xmlns="http://www.w3.org/2000/svg">
<g clip-path="url(#clip0_335_4581)">
<path d="M463.469 260.581C456.071 255.899 448.872 251.343 444.747 243.287C443.514 240.877 442.33 237.345 443.35 234.662C444.308 232.143 446.6 230.224 448.807 228.808C452.552 226.406 456.819 224.721 460.866 222.891L477.629 215.324C486.311 211.398 494.922 206.729 503.763 203.241C519.56 197.008 541.201 194.85 557.032 201.726C578.781 211.171 580.363 232.27 579.59 253.244C579.32 260.55 578.383 268.59 581.211 275.519C584.668 283.988 592.935 287.945 601.645 288.379C603.404 288.466 605.872 287.868 607.429 288.678C607.932 288.939 607.906 289.205 608.092 289.693C606.748 294.675 589.28 308.049 584.238 311.328C590.918 314.523 597.547 319.28 601.694 325.499C607.715 325.923 612.752 328.212 617.573 331.784C637.127 346.274 640.797 377.592 644.101 400.069C644.404 402.067 644.67 404.082 645.039 406.069C647.874 404.464 657.825 398.261 660.799 398.315L661.479 398.801C661.348 399.733 660.975 400.136 660.241 400.73C657.285 403.126 649.218 406.973 645.551 408.594C645.818 411.712 646.256 414.796 646.573 417.906C649.434 416.72 659.156 410.751 661.4 411.441C661.627 411.901 661.869 412.045 661.628 412.563C660.511 414.965 649.726 419.51 647.005 420.854C648.928 439.046 651.091 457.161 651.837 475.456C659.09 471.81 666.03 467.23 672.898 462.895C675.943 460.972 678.993 458.679 682.3 457.241C683.791 456.594 686.236 455.702 687.84 456.436C689.046 456.986 689.587 458.248 689.842 459.466C690.889 464.464 688.601 476.172 687.863 481.655C682.2 525.662 673.438 569.216 661.644 611.99C660.011 617.735 658.36 626.456 655.122 631.332C652.493 635.292 647.24 638.339 643.393 641.032C614.863 660.999 567.877 678.34 533.613 684.163C530.352 684.717 527.04 684.913 523.778 685.45C520.5 685.991 517.253 687.026 513.931 687.244C498.01 688.288 482.849 682.266 469.082 674.906C461.681 678.655 453.98 681.784 446.061 684.258C443.267 685.136 436.717 686.19 434.679 687.715C433.708 688.086 433.48 688.197 432.465 688.046C430.456 681.686 429.14 675.06 427.724 668.546C425.978 660.51 424.154 652.373 423.167 644.204C421.664 643.029 420.181 641.761 418.592 640.708C408.307 653.63 399.693 667.975 391.667 682.377C389.15 686.893 386.892 691.582 384.311 696.056L382.31 696.713C380.2 695.779 372.001 697.335 369.336 697.587C361.869 698.279 354.385 698.794 346.893 699.129C342.329 699.32 337.361 699.082 332.86 699.787C331.931 699.899 331.736 699.918 330.878 699.564C330.548 698.48 330.705 698.145 330.961 697.067C332.148 694.685 332.919 691.887 333.825 689.378C335.638 684.315 337.488 679.265 339.376 674.228C347.449 652.83 355.867 631.353 365.459 610.585C369.024 602.865 372.522 594.815 376.981 587.577C379.526 583.446 382.59 579.543 386.259 576.35C394.917 568.815 404.219 568.297 415.14 569.057C416.049 564.84 417.369 560.884 418.926 556.868C399.893 565.477 381.161 574.789 362.335 583.839L301.791 612.614C282.813 621.93 263.742 631.056 244.582 639.99L206.416 657.796C200.967 660.359 195.447 663.722 189.759 665.642L188.104 663.824C191.002 661.959 194.379 660.616 197.497 659.152L211.546 652.498L256.398 631.587L444.931 542.285C442.759 540.024 440.563 537.786 438.344 535.571C429.524 539.168 420.953 543.395 412.313 547.406L359.623 572.446L251.192 624.036L209.931 643.571C200.913 647.897 191.593 653.123 182.124 656.35C181.035 656.721 179.178 657.401 178.084 656.867L178.328 656.114C182.035 652.672 193.361 648.664 198.451 646.29L231.316 630.725L367.281 565.899L417.569 542.151C423.667 539.331 429.59 536.029 435.825 533.532C432.366 529.61 428.526 525.973 424.95 522.153C420.501 517.305 416.195 512.327 412.037 507.225C408.219 502.598 405.23 497.35 401.426 492.723L401.098 492.328C393.894 495.145 386.824 499 379.875 502.406C369.153 507.661 361.458 511.232 349.371 507.598C344.754 506.21 340.319 503.456 336.044 501.255L315.752 490.848C307.327 486.517 298.88 482.228 290.412 477.985C284.881 475.213 279.16 472.589 273.824 469.461C271.971 468.375 269.629 467.071 268.631 465.112C268.544 464.942 268.466 464.767 268.38 464.595C264.854 457.444 262.761 449.413 260.108 441.898C254.476 425.946 248.941 409.775 242.277 394.22C229.979 399.485 217.877 405.431 205.688 410.968L141.385 439.92C103.564 456.761 65.904 473.962 28.4112 491.523L26.8544 492.067C26.4668 491.695 26.185 491.464 26.0145 490.935C25.8492 490.423 26.2116 490.057 26.4391 489.602L154.639 431.008L206.71 407.522C218.366 402.273 230.233 397.297 241.554 391.353C238.133 382.616 235.191 373.686 232.052 364.845C229.464 357.557 226.631 350.35 224.131 343.032C222.437 338.071 221.167 334.412 223.612 329.424C229.499 324.85 241.154 319.915 248.225 316.314L309.756 285.483L350.269 265.098C357.691 261.321 365.503 256.378 373.408 253.842C373.61 253.921 373.812 253.999 374.013 254.08C375.871 254.836 377.663 255.811 378.713 257.58C381.836 262.843 383.518 269.772 385.598 275.551C389.442 286.132 393.201 296.743 396.876 307.384C399.18 314.027 401.28 320.799 403.92 327.315C411.602 323.343 419.508 319.763 427.308 316.024L472.308 294.376C463.681 280.991 460.469 277.064 463.469 260.581Z" fill="#000002"/>
<path d="M332.859 699.785C336.582 690.709 339.66 681.339 343.15 672.166C350.053 654.069 357.342 636.121 365.009 618.334C369.757 607.47 374.44 596.071 381.075 586.197C383.488 582.606 386.165 579.391 389.746 576.918C393.461 574.353 397.939 572.455 402.43 571.872C407.845 571.167 413.764 571.774 419.202 572.036C446.168 573.333 476.516 577.802 503.143 582.696C502.618 585.816 502.435 588.985 502.812 592.132C503.972 601.828 509.811 610.713 517.423 616.644C524.293 621.998 534.962 626.299 543.802 625.203C539.733 637.277 535.912 649.35 529.864 660.625C505.55 655.399 482.33 646.435 459.247 637.353C452.357 634.641 445.378 632.162 438.508 629.398C427.668 625.04 416.795 620.22 405.739 616.466C402.879 615.495 398.655 613.91 395.661 614.586C395.038 615.14 394.689 615.38 394.697 616.307C394.75 622.324 411.89 635.217 416.776 639.009C405.869 650.991 389.914 677.843 383.098 692.721C382.457 694.121 381.749 695.204 382.309 696.711C380.199 695.778 372 697.334 369.335 697.586C361.868 698.278 354.384 698.792 346.892 699.127C342.327 699.319 337.36 699.081 332.859 699.785Z" fill="#667690"/>
<path d="M426.055 645.775C435.271 653.136 444.911 659.948 454.927 666.175C459.573 669.123 464.713 671.588 469.083 674.904C461.681 678.654 453.98 681.782 446.061 684.256C443.268 685.134 436.718 686.188 434.679 687.713C434.242 683.803 432.892 679.68 432.077 675.798C429.978 665.803 427.842 655.832 426.055 645.775Z" fill="#667690"/>
<path d="M602.063 328.352C602.157 328.35 602.251 328.346 602.345 328.346C608.95 328.353 615.139 332.647 619.696 337.109C627.222 344.477 631.46 354.393 634.549 364.307C640.007 381.82 641.683 401.019 643.93 419.173C646.274 438.106 649.028 457.982 649.211 477.053C632.201 487.259 613.797 495.19 595.381 502.481C587.694 505.526 574.245 509.477 567.716 513.56C565.922 514.681 565.219 515.508 564.717 517.575C563.6 522.173 563.422 527.28 562.793 531.997C561.962 538.23 560.799 544.429 559.75 550.63C555.724 574.797 550.811 598.807 545.019 622.612C541.253 622.605 537.571 622.469 533.891 621.6C523.977 619.264 515.408 613.063 510.088 604.378C507.484 600.07 505.46 594.632 505.258 589.564C505.02 583.596 507.392 575.99 508.423 570.006C509.904 561.425 511.033 552.556 511.777 543.878C512.24 538.216 512.617 532.546 512.907 526.872C513.14 521.749 512.299 514.338 513.931 509.612C516.429 502.381 520.543 495.142 523.864 488.228C527.895 479.834 531.579 471.303 535.476 462.85C537.327 458.834 540.702 453.165 541.589 448.919C541.78 448.009 541.881 447.576 541.331 446.779L540.325 446.764C538.462 448.194 526.584 476.034 524.779 480.047C517.466 495.34 509.992 510.49 502.399 525.644C498.827 532.773 495.576 540.822 491.036 547.372C489.658 549.362 488.134 550.854 486.008 552.044C480.849 554.93 474.582 554.946 468.996 553.449C447.786 547.766 411.418 505.097 400.375 486.037C408.174 476.419 412.295 469.271 424.788 465.029C438.112 473.315 450.193 483.677 462.146 493.792C460.994 498.922 457.077 513.038 457.148 517.533C457.162 518.411 457.356 518.453 457.968 519.02L458.727 518.924C459.408 518.147 459.67 517.431 459.944 516.437C460.602 514.046 460.814 511.459 461.37 509.022L466.137 488.822C471.21 467.066 476.821 445.439 482.966 423.961C486.098 413.059 489.075 401.599 493.518 391.155C495.452 386.607 498.312 381.08 502.205 377.9C503.746 376.642 510.781 373.791 511.14 373.227C510.171 372.412 509.353 372.44 508.121 372.222C510.589 369.449 513.072 366.113 516.169 364.034C525.33 357.885 544.204 358.724 554.997 358.747C557.68 358.752 560.479 359.071 563.139 358.772C564.378 358.633 565.512 358.321 566.614 357.735C569.407 356.249 572.069 354.004 574.633 352.127C581.304 347.242 588.1 342.29 594.2 336.702C597.038 334.102 599.702 331.395 602.063 328.352Z" fill="#FBFBFB"/>
<path d="M517.659 375.039C517.816 375.047 517.973 375.047 518.129 375.063C522.931 375.558 528.812 381.452 531.72 385.011C541.249 396.674 549.074 419.264 547.552 434.39C546.856 434.291 546.273 434.281 545.688 433.856C544.604 433.071 544.667 424.804 544.46 423.01C542.888 409.42 536.607 392.92 526.619 383.331C523.91 380.729 519.868 379.051 518.234 377.381C517.412 376.541 517.607 376.146 517.659 375.039Z" fill="#000002"/>
<path d="M372.854 260.838L373.926 260.976C375.21 262.296 412.585 370.572 416.014 380.84C402.144 386.611 388.998 394.325 375.579 401.05C340.686 418.768 305.929 436.753 271.311 455.004C267.514 446.263 264.649 436.828 261.411 427.846L245.024 383.041L234.553 354.761C231.963 347.788 229.044 340.811 227.562 333.501L372.854 260.838Z" fill="#7B4CFA"/>
<path d="M369.805 268.344C372.857 272.624 379.09 292.518 381.432 299.06L393.851 334.191C398.986 348.475 404.263 362.781 408.709 377.296C400.484 380.956 392.468 385.318 384.399 389.319C371.755 395.451 359.163 401.689 346.624 408.035C339.535 411.648 275.545 445.296 273.433 445.376C270.577 440.221 268.602 432.157 266.517 426.409L249.943 380.839C246.279 370.614 242.262 360.527 238.507 350.336C236.742 345.549 234.784 340.734 233.438 335.812C238.293 332.916 243.568 330.516 248.622 327.983C258.525 322.987 268.493 318.122 278.524 313.389L333.969 286.204C345.934 280.31 358.072 274.685 369.805 268.344Z" fill="#000002"/>
<path d="M369.016 270.84L369.617 271C371.02 273.087 371.563 276.074 372.419 278.46L380.212 300.662L406.765 376.077C362.252 397.721 318.708 421.264 274.406 443.318C269.657 430.726 265.361 417.957 260.648 405.345L264.581 403.41L350.855 358.901C355.589 356.457 376.296 347.062 378.868 344.345L378.821 343.868C375.825 343.573 346.045 359.476 341.091 362.102C333.329 340.185 324.113 318.737 316.309 296.834C333.985 288.421 351.496 279.577 369.016 270.84Z" fill="#FBFBFB"/>
<path d="M360.896 288.223C361.247 288.228 361.538 288.333 361.873 288.429L361.906 289.031C358.688 292.264 338.923 300.993 333.481 303.533L332.484 303.436L332.152 302.848C333.549 300.913 356.626 290.329 360.896 288.223Z" fill="#000002"/>
<path d="M360.116 296.686L360.633 296.811L360.7 297.469C358.129 300.249 346.395 305.27 342.354 307.066L341.66 306.956L341.254 306.375C342.124 304.591 357.44 297.79 360.116 296.686Z" fill="#000002"/>
<path d="M325.618 390.422C326.004 390.496 326.222 390.669 326.549 390.878L326.493 391.529C323.863 393.957 314.538 397.949 310.988 399.754C310.197 399.732 310.565 399.866 309.922 399.267L309.977 398.586C313.171 395.596 321.34 392.469 325.618 390.422Z" fill="#000002"/>
<path d="M293.804 409.984L294.62 410.383L294.841 411.125C293.223 413.105 286.495 415.564 283.901 416.75C283.24 416.223 283.227 416.228 283.043 415.405C284.922 413.019 290.955 411.213 293.804 409.984Z" fill="#000002"/>
<path d="M348.824 379.098C349.523 379.631 349.364 379.484 349.519 380.244C348.093 382.278 340.265 385.491 337.68 386.743C337.223 386.363 337.181 386.241 336.965 385.712C338.179 383.756 346.238 380.427 348.824 379.098Z" fill="#000002"/>
<path d="M297.034 418.502C297.69 418.843 297.566 418.882 297.82 419.531C296.389 421.79 289.839 424.083 287.303 425.291C286.579 424.808 286.615 424.867 286.441 424.016C287.791 421.842 294.57 419.609 297.034 418.502Z" fill="#000002"/>
<path d="M292.03 402.199C292.178 402.631 292.171 403.128 292.212 403.582C290.784 405.631 283.305 408.592 280.8 409.848C280.663 409.386 280.621 408.911 280.555 408.434C282.658 405.755 288.892 403.678 292.03 402.199Z" fill="#000002"/>
<path d="M322.116 403.975L323.012 404.567L323.082 405.169C321.106 407.416 316.314 408.952 313.534 410.212C313.067 409.8 312.94 409.619 312.656 409.091C314.021 406.88 319.672 405.015 322.116 403.975Z" fill="#000002"/>
<path d="M314.317 297.742C314.396 297.755 314.481 297.751 314.555 297.781C314.569 297.787 315.173 298.131 315.194 298.158C315.881 299 338.039 358.322 339.42 363.06C312.951 376.128 287.371 391.398 260.389 403.377L259.927 403.252C256.483 396.271 254.161 388.086 251.48 380.76C246.207 366.119 240.762 351.539 235.145 337.026C261.204 323.315 287.904 310.771 314.317 297.742Z" fill="#FBFBFB"/>
<path d="M309.117 308.785C309.215 308.828 309.32 308.858 309.411 308.914C311.55 310.251 314.621 320.539 315.548 323.168C304.169 329.138 292.413 334.464 280.929 340.246C271.566 344.958 262.188 350.483 252.475 354.409C250.833 353.362 247.179 342.197 246.203 339.615C266.922 328.949 288.696 320.017 309.117 308.785Z" fill="#000002"/>
<path d="M309.026 310.266C311.263 313.139 312.454 318.801 313.641 322.339C303.529 328.007 292.774 332.846 282.401 338.059C272.671 342.948 262.878 348.598 252.714 352.481C250.926 348.586 249.513 344.456 248.027 340.438C268.509 330.684 288.844 320.626 309.026 310.266Z" fill="#7B4CFA"/>
<path d="M319.721 333.311C320.38 333.703 320.221 333.641 320.399 334.322C317.594 337.843 264.814 360.408 256.191 365.9C256.908 367.625 257.936 369.22 258.878 370.832C262.714 369.435 272.215 364.004 275.469 364.026L275.686 364.399C273.547 366.549 262.876 370.872 259.493 372.323C260.173 373.856 260.932 375.356 261.666 376.864C263.776 376.999 265.896 377.057 268.008 377.149C270.034 375.985 271.521 375.149 273.893 374.918L273.79 375.724L274.35 375.1L273.755 375.06L273.601 376.001C273.046 376.558 271.947 376.963 271.237 377.34C268.209 379.26 265.877 379.051 262.47 378.311C263.603 380.085 264.689 381.889 265.726 383.721C268.114 382.046 273.193 378.633 276.041 378.46L276.275 378.871C276.059 379.628 275.756 380.03 275.077 380.465C271.77 382.588 267.787 384.054 264.344 386.079C262.295 378.923 257.538 371.741 254.758 364.618L301.883 342.126C307.839 339.22 313.915 336.509 319.721 333.311Z" fill="#000002"/>
<path d="M685.063 458.994L686.709 459.04C687.252 459.568 687.391 459.769 687.536 460.549C688.234 464.3 686.609 470.148 686.146 474.017C680.543 520.335 671.504 566.171 659.103 611.148C657.504 616.786 655.876 625.75 652.479 630.413C650.174 633.574 645.848 636.159 642.655 638.435C618.446 655.696 586.837 667.557 558.375 675.702C549.638 678.202 540.516 680.681 531.492 681.844C530.477 681.984 529.588 682.077 528.558 681.974C528.363 681.18 531.98 676.932 532.663 675.948C540.97 663.958 544.672 647.671 546.828 633.386C547.658 627.882 548.146 622.275 549.21 616.816C552.801 598.376 557.352 580.16 560.633 561.643C562.278 552.507 563.77 543.345 565.111 534.16C565.915 528.427 566.37 522.597 567.457 516.913C575.202 511.575 586.048 508.956 594.826 505.621C604.569 501.894 614.18 497.828 623.641 493.432C635.921 487.625 647.911 481.224 659.57 474.253C667.654 469.351 676.489 462.682 685.063 458.994Z" fill="#7B4CFA"/>
<path d="M526.712 200.706C529.879 200.315 533.374 200.359 536.556 200.437C547.613 200.706 559.511 203.405 567.33 211.801C578.426 223.716 577.371 241.532 576.783 256.591C576.409 266.169 576.389 276.271 583.401 283.713C588.809 289.452 596.284 290.625 603.791 290.879C598.807 296.872 592.755 302.455 586.347 306.873C575.312 314.482 556.581 319.392 544.724 310.693C541.871 308.6 537.114 301.001 534.444 300.516C534.223 301.276 534.246 301.437 534.496 302.169C536.457 307.916 542.737 312.907 548.041 315.381C559.359 320.658 571.188 316.693 582.135 312.741C581.755 313.935 581.377 315.262 580.744 316.348C577.745 321.503 569.723 324.047 564.342 325.579C559.464 326.514 554.146 326.761 549.242 325.875C537.932 323.831 535.158 315.126 531.895 305.644C530.991 303.014 530.172 300.37 528.539 298.081C528.468 297.983 528.394 297.885 528.322 297.787C530.497 296.04 532.15 294.222 533.357 291.655C536.301 285.393 534.725 279.411 532.475 273.316C535.715 270.569 540.42 267.935 542.685 264.316C542.34 263.623 542.301 263.767 541.615 263.52C538.464 264.101 533.73 268.864 531.004 270.972C525.215 269.197 519.717 270.636 513.767 270.635C493.966 270.745 474.606 264.8 458.28 253.597C453.064 249.968 446.748 244.401 445.769 237.703C445.575 236.376 445.766 235.3 446.61 234.247C448.271 232.178 450.745 230.692 453.047 229.437C456.843 227.366 460.905 225.826 464.827 224.018L486.291 214.169C492.901 211.184 499.491 207.416 506.335 205.054C512.949 202.772 519.769 201.448 526.712 200.706Z" fill="#667690"/>
<path d="M518.673 216.327C528.369 215.737 537.955 218.647 545.686 224.528C553.95 230.898 558.958 240.152 560.201 250.476C560.608 253.856 561.562 265.665 559.712 268.016C559.543 267.884 559.357 267.77 559.205 267.62C557.651 266.101 557.969 263.231 558.029 261.272C557.67 251.04 557.109 241.181 550.572 232.757C543.287 223.37 531.86 218.705 520.151 218.794C517.149 218.817 513.689 219.925 510.786 219.54L510.32 218.842L510.528 218.016C512.514 216.421 516.241 216.548 518.673 216.327Z" fill="#000002"/>
<path d="M467.451 238.674C469.395 239.219 473.894 245.653 476.258 247.597C479.533 250.238 483.231 252.307 487.195 253.716C492.003 255.459 497.132 256.408 502.216 256.896C505.928 257.253 515.747 255.892 518.317 257.416C518.58 258.282 518.548 258.262 518.18 259.095C507.895 260.718 496.313 259.927 486.487 256.416C480.642 254.327 469.688 247.421 467.249 241.551C466.748 240.345 467.01 239.813 467.451 238.674Z" fill="#000002"/>
<path d="M539.943 206.871C544.082 207.267 548.776 208.976 552.423 210.965C559.538 214.844 564.782 221.819 567.014 229.564C568.045 233.14 569.64 241.132 567.802 244.493C567.032 244.538 566.49 244.577 565.761 244.302C564.738 240.669 565.683 236.202 564.909 232.303C563.228 223.833 557.158 215.548 548.993 212.33C546.014 211.156 542.521 210.717 539.843 208.904C539.509 208.019 539.687 207.798 539.943 206.871Z" fill="#000002"/>
<path d="M546.745 271.373C547.392 271.697 547.701 271.791 548.036 272.478C548.624 273.68 548.785 275.412 549.072 276.726C550.09 281.376 551.556 285.527 554.866 289.081C561.51 296.215 570.847 295.268 579.653 295.578C580.515 296.237 580.365 296.605 580.519 297.65C574.644 298.681 568.402 298.636 562.672 296.832C556.636 294.932 551.651 290.927 548.783 285.249C546.81 281.342 545.337 275.626 546.745 271.373Z" fill="#000002"/>
<path d="M562.279 278.801L563.214 279.188C564.885 281.805 567.461 283.819 569.018 286.419L568.134 288.194C565.932 286.959 561.672 283.773 561.347 281.11C561.206 279.951 561.638 279.647 562.279 278.801Z" fill="#000002"/>
<path d="M471.802 297.784C472.344 297.721 472.514 297.773 473.018 297.934C473.324 301.602 467.802 307.16 466.019 310.378C465.416 311.468 465.174 312.482 465.573 313.702C466.548 316.679 472.553 319.083 475.202 320.583C478.341 326.17 481.365 332.049 485.44 337.025C489.306 341.748 494.307 345.416 500.583 345.909C510.366 346.68 519.079 337.418 525.888 331.534C529.929 334.767 532.492 338.421 533.783 343.439C523.738 351.213 515.173 360.797 506.469 370C502.099 374.62 497.252 378.656 493.948 384.18C490.1 390.615 488.06 398.035 485.812 405.131L484.466 408.92C481.283 407.93 478.085 406.113 475.058 404.698L454.952 395.216C448.133 391.97 441.284 388.79 434.404 385.676C430.325 383.833 426.139 382.182 422.152 380.144C418.816 372.454 416.48 364.03 413.811 356.065C410.877 347.314 407.611 338.679 404.691 329.931C416.649 323.852 428.705 317.969 440.856 312.286C451.126 307.383 461.358 302.299 471.802 297.784Z" fill="#78E2BA"/>
<path d="M419.744 385.959C425.349 387.15 430.623 390.009 435.811 392.352L455.065 401.072C464.124 405.262 473.168 409.999 483.025 411.91C482.24 415.415 479.24 430.229 477.235 432.689L476.635 432.435C476.644 431.724 476.552 431.927 476.839 431.38C477.211 430.674 477.614 430.007 477.925 429.267C479.465 425.598 480.965 420.436 479.296 416.621C476.606 410.469 461.334 406.081 455.288 403.518C448.614 400.69 442.001 397.835 435.258 395.169C429.723 398.101 424.001 400.71 418.409 403.538L377.908 423.94C366.837 429.443 355.721 434.789 345.047 441.047C345.55 441.42 346.079 441.756 346.487 442.233L346.61 442.772C345.933 443.089 345.517 443.254 344.995 443.803L347.602 447.134C345.1 448.9 342.408 450.254 339.652 451.574C337.44 450.205 335.478 448.556 333.374 447.038C331.018 448.184 323.604 451.003 322.656 453.209C322.433 453.725 322.659 454 322.821 454.497C323.995 455.608 327.514 457.674 329.158 457.494C329.26 457.483 329.356 457.444 329.455 457.419C329.346 456.479 328.906 455.945 328.168 455.331C327.184 454.511 325.806 453.886 324.699 453.211C327.425 451.837 330.142 450.471 333 449.388L336.623 453.374C334.892 454.29 332.083 455.395 330.846 456.849C330.663 457.84 330.55 458.114 331.136 459.014C332.463 461.051 335.47 460.775 337.152 461.931C337.836 462.401 338.278 463.575 338.958 464.056C340.117 464.875 344.078 465.996 345.494 466.047C346.064 466.068 346.64 465.935 347.182 465.772C348.272 466.678 349.035 467.964 349.844 469.117C349.966 469.157 350.089 469.195 350.211 469.237C353.413 470.334 362.514 476.659 365.285 475.477C365.285 474.572 364.861 474.154 364.348 473.452C363.322 472.993 362.284 472.562 361.235 472.16C360.577 470.041 360.383 468.518 358.289 467.404L357.334 466.687C359.384 466.125 360.876 464.283 362.994 463.57C363.685 463.835 364.336 464.045 364.949 464.466C365.668 464.836 366.445 465.064 366.896 465.744L367.839 466.897C368.922 466.335 370.041 466.006 371.251 466.449C371.678 466.606 371.7 466.657 372.004 466.905L371.834 467.394C371.09 467.751 370.382 468.069 369.598 468.334L369.068 470.137L369.316 470.562C369.943 470.258 370.635 469.879 371.311 469.715C372.094 469.525 372.763 469.657 373.453 470.029C372.54 471.675 367.444 473.091 365.625 475.724L365.943 476.041C370.493 475.477 377.743 470.607 382.228 468.568L386.336 469.281C388.414 474.188 391.496 478.27 394.732 482.451C385.746 486.333 377.32 491.379 368.344 495.254C364.344 496.981 360.854 497.919 356.475 497.008C348.97 495.447 338.655 489.072 331.612 485.469L296.988 468.097C290.468 464.897 284.19 461.468 277.414 458.813C289.414 451.924 302.213 446.14 314.502 439.757C338.797 427.138 362.926 414.35 387.462 402.186C393.659 399.083 399.808 395.883 405.905 392.588C410.386 390.207 414.902 387.526 419.744 385.959Z" fill="#FBFBFB"/>
<path d="M361.574 468.759C363.471 467.879 365.402 467.254 366.898 465.744L367.841 466.897C368.924 466.336 370.043 466.006 371.253 466.45C371.681 466.607 371.703 466.658 372.006 466.906L371.836 467.394C371.092 467.751 370.384 468.069 369.6 468.334L369.07 470.137L369.318 470.562C368.586 471.29 367.254 471.708 366.297 472.134C364.636 471.083 363.098 470.002 361.574 468.759Z" fill="#000110"/>
<path d="M367.84 466.898C368.923 466.336 370.042 466.007 371.252 466.45C371.68 466.607 371.702 466.658 372.005 466.906L371.835 467.395C371.091 467.752 370.383 468.07 369.599 468.335C368.612 468.751 367.087 469.493 366.062 469.131C366.299 468.078 367.074 467.629 367.84 466.898Z" fill="#FBFBFB"/>
<path d="M362.996 463.57C363.687 463.835 364.338 464.045 364.95 464.467C364.361 465.711 363.93 466.392 362.604 466.892C361.303 467.38 359.668 467.437 358.291 467.405L357.336 466.687C359.386 466.125 360.877 464.284 362.996 463.57Z" fill="#000110"/>
<path d="M344.242 443.47C343.076 444.049 341.909 444.632 340.719 445.159C339.755 445.586 338.727 445.903 337.699 445.507C338.452 443.631 341.214 442.806 342.96 442.055C343.422 442.504 343.919 442.909 344.242 443.47Z" fill="#000002"/>
<path d="M345.048 441.047C345.551 441.42 346.079 441.755 346.487 442.232L346.61 442.771C345.934 443.089 345.518 443.253 344.996 443.803L344.242 443.47C343.92 442.909 343.422 442.504 342.961 442.054L345.048 441.047Z" fill="#000110"/>
<path d="M466.103 261.881C473.05 265.175 479.864 267.991 487.311 269.984C483.237 270.19 479.044 270.355 475.164 271.741C473.014 272.508 468.773 274.285 468 276.583C467.689 277.508 467.92 278.15 468.306 278.989C470.381 279.947 473.569 275.135 475.901 274.538C483.384 272.624 490.65 272.443 498.322 273.035C505.647 278.023 504.368 281.709 508.988 286.758C510.308 288.201 511.965 289.241 513.97 289.275C523.296 289.435 518.968 276.34 524.22 272.681C525.004 272.136 525.521 272.016 526.461 272.193C527.867 272.457 529.381 274.162 530.152 275.266C532.415 278.507 532.858 283.001 532.057 286.798C531.026 291.678 528.13 294.363 524.184 297.001C532.153 304.226 529.091 318.546 541.16 325.767C548.518 330.17 558.744 329.398 566.705 327.415L564.128 329.044C554.931 333.857 545.487 337.928 536.088 342.302C534.304 336.687 531.76 333.076 527.57 328.992C528.671 327.18 531.318 323.811 530.978 321.599L530.429 321.22C527.806 321.684 526.446 326.428 524.801 328.433C521.772 332.128 517.203 335.838 513.322 338.638C509.249 341.576 504.438 343.854 499.289 342.946C490.532 341.401 485.419 333.281 481.486 326.1C480.297 323.928 479.132 321.162 477.474 319.321C475.037 316.615 470.298 316.086 468.191 312.987C468.297 310.304 473.921 303.553 475.438 300.782L475.714 300.273C476.55 301.32 477.502 302.572 478.863 302.862C479.527 302.429 479.375 302.317 479.534 301.58C479.159 300.296 478.55 299.397 477.826 298.294C473.566 291.809 466.201 281.615 465.132 274.065C464.558 270.01 465.278 265.847 466.103 261.881Z" fill="#FBFBFB"/>
<path d="M479.895 286.951C481.223 287.006 482.559 287.119 483.834 287.52C486.406 288.328 488.865 289.883 489.98 292.429C490.441 293.482 490.469 294.169 490.026 295.214L489.198 295.454C488.201 294.95 488.042 294.493 487.453 293.566C482.048 287.964 481.918 291.107 476.99 290.752C476.097 290.687 476.047 290.556 475.486 289.92C475.397 288.938 475.451 288.773 475.868 287.874C476.868 286.96 478.597 287.063 479.895 286.951Z" fill="#000002"/>
<path d="M496.016 321.488C496.464 321.696 496.912 321.968 497.345 322.205L497.549 323.002C496.618 325.532 492.924 327.578 490.776 329.131L489.971 329.293L489.52 328.54C489.766 326.126 494.224 323.062 496.016 321.488Z" fill="#000002"/>
<path d="M510.298 516.035C511.17 520.051 510.348 525.311 510.076 529.437C508.968 546.196 507.778 563.647 503.829 579.998C483.175 576.28 462.404 573.246 441.549 570.9C433.785 570.024 425.912 569.9 418.187 568.952L417.93 568.491C419.239 564.016 420.583 559.588 422.45 555.31C430.445 551.163 439.052 547.908 447.251 544.139C451.275 547.233 455.318 550.223 459.861 552.531C467.529 556.428 476.196 558.629 484.596 555.682C487.326 554.724 489.697 553.283 491.606 551.086C494.904 547.292 497.055 542.107 499.359 537.652C503.08 530.484 506.727 523.278 510.298 516.035Z" fill="#667690"/>
<path d="M405.746 619.74C409.916 620.528 414.222 622.592 418.185 624.116C427.569 627.727 436.85 631.592 446.205 635.277C465.144 642.737 484.376 650.404 503.804 656.52C511.923 659.076 520.168 661.139 528.416 663.225C526.593 665.626 524.686 667.855 522.573 670.006C519.625 672.701 516.077 674.568 512.097 675.148C506.836 675.914 501.29 674.722 496.298 673.107C486.921 670.074 477.818 665.076 469.192 660.355C447.176 648.223 425.981 634.656 405.746 619.74Z" fill="#7B4CFA"/>
<path d="M584.932 314.518C590.487 317.923 595.389 321.682 599.15 327.063C594.642 334.892 572.349 351.206 563.983 356.331C553.008 356.853 542.011 355.711 531.044 356.851C527.175 357.393 523.565 358.435 519.859 359.656C524.689 354.839 529.714 349.495 535.432 345.737C539.978 342.751 545.417 340.882 550.387 338.665C557.924 335.305 565.408 331.765 572.538 327.595C577.886 324.468 583.265 320.866 584.932 314.518Z" fill="#FBFBFB"/>
<path d="M470.898 433.542C471.276 433.465 471.721 433.512 472.108 433.514C472.03 434.043 464.421 442.069 462.866 445.611C451.742 451.574 441.397 458.836 430.891 465.805C424.924 462.056 418.698 458.687 412.693 454.979C409.18 452.859 405.851 450.507 402.535 448.092C403.652 447.398 404.985 445.959 406.297 445.881C406.297 446.403 406.314 446.17 406.233 446.745L406.17 447.173C407.401 446.767 407.377 445.79 408.564 445.44C410.504 444.867 412.698 445.05 414.64 444.376C417.466 443.396 419.916 441.405 422.781 440.443C426.524 439.186 430.649 439.46 434.385 438.143C436.204 437.502 437.548 436.484 439.012 435.269C443.058 435.73 447.249 436.604 451.314 436.633C457.229 436.674 464.966 434.552 470.898 433.542Z" fill="#FBFBFB"/>
<path d="M398.367 618.297C403.205 620.477 413.657 628.941 418.812 632.356C441.663 647.491 465.227 663.832 490.849 673.875C499.275 677.179 509.791 679.884 518.47 675.908C532.654 669.409 538.785 647.631 543.759 633.986C543.536 636.084 543.145 638.19 542.822 640.277C540.1 653.108 535.616 672.462 524.761 680.774C518.518 685.554 509.147 685.059 501.758 684.053C494.907 683.122 488.199 680.973 481.899 678.157C460.977 668.806 411.543 635.791 398.367 618.297Z" fill="#7B4CFA"/>
<path d="M367.048 439.92C370.751 439.922 374.438 440.876 378.141 440.98C380.155 441.036 382.171 440.538 384.17 440.343C385.716 440.193 387.139 440.199 388.618 440.714C393.137 442.286 401.102 448.709 404.94 451.915C397.363 455.473 391.751 459.587 387.067 466.605C379.161 465.564 372.011 464.572 364.472 461.716C360.333 459.997 356.769 458.345 352.13 458.895C351.91 458.921 351.691 458.953 351.471 458.981C348.291 459.378 345.945 461.411 342.936 462.218C341.811 462.519 341.201 462.395 340.233 461.792L340.164 461.211C341.676 459.255 344.072 458.172 345.773 456.376C349.335 452.615 351.043 448.323 355.535 445.337C361.98 444.97 368.386 445.854 374.811 445.507C369.044 442.751 363.207 442.896 356.976 443.146C360.186 441.676 363.62 440.721 367.048 439.92Z" fill="#FBFBFB"/>
<path d="M452.408 406.947C459.013 406.961 470.787 410.336 475.519 415.02C477.119 416.604 477.605 418.64 477.545 420.843C477.457 424.125 476.247 427.567 474.846 430.502L474.305 430.513C471.199 430.592 468.304 431.402 465.283 432.042C463.748 432.367 462.164 432.7 460.588 432.543C456.03 432.091 450.656 427.574 447.442 424.546C445.881 423.068 444.377 421.533 442.932 419.941C440.509 420.575 438.13 421.252 435.759 422.058C434.643 421.771 433.17 421.195 432.048 421.458L431.89 421.778L433.389 422.601C433.014 423.488 431.512 424.072 430.641 424.427C427.527 425.697 422.803 426.623 419.604 425.154C419.012 424.882 418.596 424.469 418.135 424.02C417.881 423.174 417.762 422.982 418.25 422.162C420.943 417.641 435.985 415.497 440.628 412.387C442.082 411.411 443.171 410.022 443.89 408.443C446.589 407.385 449.547 407.187 452.408 406.947Z" fill="#FBFBFB"/>
<path d="M274.803 459.99C281.533 461.716 288.411 465.825 294.639 468.892C306.478 474.692 318.24 480.647 329.923 486.753C336.435 490.1 342.9 493.714 349.562 496.748C352.972 498.301 357.135 499.843 360.947 499.519C368.796 498.851 386.719 487.63 395.789 484.261C396.623 485.29 397.449 486.12 397.459 487.486L396.619 488.262C387.973 492.51 379.33 497.267 370.481 501.048C364.092 503.777 356.516 504.669 349.931 501.891C341.154 498.188 332.694 493.21 324.177 488.918C316.146 484.869 308.23 480.617 300.218 476.537C291.816 472.259 283.302 468.143 275.059 463.571C274.533 463.279 274.24 462.942 273.917 462.445C273.858 461.268 274.2 460.976 274.803 459.99Z" fill="#7B4CFA"/>
<path d="M406.539 454.469C411.623 456.32 416.891 460.425 421.525 463.309C412.914 467.447 407.083 472.899 401.552 480.654L399.063 484.059C395.431 479.219 391.277 474.314 388.586 468.875C392.522 461.966 398.941 456.815 406.539 454.469Z" fill="#FBFBFB"/>
<path d="M269.239 456.298C269.909 457.094 269.999 457.427 271.043 457.642C275.828 456.258 280.966 452.638 285.417 450.32L317.086 433.888L418.433 381.889C422.217 383.013 425.85 384.515 429.471 386.075C441.334 391.185 452.802 397.065 464.535 402.436C466.282 403.235 473.217 405.709 474.2 406.619C474.358 406.766 474.424 406.986 474.535 407.17C472.983 407.143 469.981 405.442 468.464 404.792C459.835 401.096 425.25 383.748 419.572 383.593C417.881 383.546 415.94 384.54 414.439 385.281C404.549 390.163 394.971 395.761 385.14 400.78L305.481 441.554L284.033 452.623C280.302 454.546 275.26 456.405 272.169 459.198C271.416 459.879 271.043 460.654 271.156 461.693C271.323 463.228 272.536 464.467 273.741 465.315C276.834 467.493 280.672 469.011 284.065 470.708L301.895 479.782L332.693 495.573C338.411 498.508 344.085 502.053 350.174 504.129C354.628 505.648 359.644 506.24 364.281 505.294C370.735 503.976 384.174 496.716 390.939 493.422C393.357 492.245 395.946 490.636 398.565 490.035L398.804 490.282C395.71 492.713 370.026 504.75 365.584 505.791C361.966 506.639 358.23 506.554 354.561 506.107C351.814 505.773 349.355 504.923 346.83 503.816C342.417 501.881 338.149 499.482 333.861 497.281L310.419 485.274C298.392 479.148 284.78 473.084 273.352 466.142C272.473 465.608 271.73 465.033 271.116 464.198C269.638 462.187 268.911 459.482 268.066 457.159L268.554 456.032L269.239 456.298Z" fill="#FBFBFB"/>
<path d="M268.068 457.159C266.335 453.192 265.162 448.909 263.723 444.819C260.533 435.549 257.257 426.311 253.895 417.103L233.772 362.223C231.151 354.895 228.287 347.644 225.92 340.229C225.221 338.037 224.374 335.375 224.6 333.064C225.627 331.157 227.145 330.039 229.007 328.986C232.682 326.907 236.642 325.19 240.398 323.234C251.822 317.173 263.356 311.324 274.997 305.689L333.372 276.433L358.222 263.938C362.556 261.735 367.298 258.766 371.936 257.338L372.273 258.244L373.097 258.472C366.031 261.605 359.156 265.263 352.223 268.684C334.371 277.547 316.566 286.505 298.81 295.558C283.014 303.302 267.257 311.128 251.542 319.036C243.423 323.086 234.957 326.943 227.095 331.459C226.379 331.87 225.845 332.44 225.548 333.221C225.057 334.507 225.776 336.658 226.169 337.975C229.243 348.268 233.488 358.404 237.166 368.513L262.051 436.048C263.769 440.757 268.616 452.077 269.24 456.297L268.555 456.032L268.068 457.159Z" fill="#FBFBFB"/>
<path d="M469.761 459.652L470.047 459.714C470.145 459.878 470.294 460.022 470.341 460.207C470.436 460.572 468.601 466.423 468.333 467.416C466.246 475.14 464.665 482.997 462.767 490.771C459.066 488.054 455.57 484.965 452.03 482.037C448.389 479.214 444.881 476.215 441.344 473.264C450.939 469.152 460.298 464.109 469.761 459.652Z" fill="#FBFBFB"/>
<path d="M474.405 441.596L474.812 441.771C474.526 444.859 473.77 447.787 472.707 450.693C469.147 453.386 465.024 455.226 461.04 457.194C452.958 461.188 444.439 464.846 436.827 469.665L435.354 468.614L432.098 466.347C438.167 462.687 443.818 458.319 449.89 454.629C457.792 449.828 466.182 445.816 474.405 441.596Z" fill="#7B4CFA"/>
<path d="M435.397 397.207C441.243 399.112 447.689 401.958 453.174 404.789C452.516 405.148 450.897 404.939 450.097 404.929C450.873 406.297 450.805 406.483 452.405 406.946C449.544 407.186 446.586 407.384 443.887 408.442C443.31 408.52 442.677 408.667 442.099 408.668C440.56 408.884 439.102 409.304 437.607 409.718L436.58 407.785C433.779 409.076 432.312 408.806 429.369 408.332C427.418 409.205 425.4 410.248 423.35 410.86C422.425 411.136 421.862 411.073 421.031 410.616L421.115 410.431C421.959 410.22 422.61 410.131 423.267 409.527C423.385 409.132 423.593 408.845 423.394 408.449C422.719 407.096 420.631 406.388 419.316 405.793C424.326 402.503 430.055 399.936 435.397 397.207Z" fill="#FBFBFB"/>
<path d="M436.582 407.787C438.601 406.624 440.894 405.337 443.189 404.859C443.366 404.822 443.545 404.792 443.723 404.757C445.875 404.336 447.946 404.669 450.099 404.931C450.875 406.299 450.807 406.485 452.407 406.948C449.546 407.188 446.588 407.386 443.889 408.444C443.312 408.522 442.679 408.669 442.101 408.67C440.562 408.886 439.104 409.306 437.609 409.72L436.582 407.787Z" fill="url(#paint0_linear_335_4581)"/>
<path d="M377.968 261.865C380.263 266.559 381.882 271.824 383.599 276.76C386.326 284.801 389.114 292.82 391.964 300.819C396.118 312.953 399.953 325.304 404.637 337.242C407.783 346.035 410.668 354.908 413.709 363.737C415.252 368.217 417.249 372.804 418.523 377.337C418.812 378.368 418.956 379.17 418.827 380.233L418.376 380.672C418.199 380.559 417.99 380.488 417.847 380.334C417.7 380.177 404.741 343.433 403.742 339.649C403.723 339.578 403.718 339.505 403.707 339.433C398.905 327.507 395.286 314.943 390.945 302.836C386 289.46 380.873 275.768 376.848 262.097L377.968 261.865Z" fill="#C0C6D5"/>
<path d="M440.205 423.158C440.99 423.092 441.558 422.93 442.283 423.306C443.652 424.016 445.105 425.638 446.283 426.669C449.535 429.512 452.772 432.178 456.679 434.071C451.673 434.323 447.009 433.861 442.061 433.21C438.117 432.728 429.116 433.121 426.101 431.766C425.371 431.438 425.306 431.308 425.016 430.613C425.075 430.488 425.12 430.356 425.193 430.24C426.747 427.753 437.172 424.18 440.205 423.158Z" fill="#FBFBFB"/>
<path d="M502.133 272.768C508.118 273.312 513.928 273.614 519.939 273.341C518.624 276.764 518.232 280.462 517.674 284.067C517.451 284.512 517.422 284.596 517.125 285.053C516.475 286.054 515.398 286.959 514.194 287.083C510.608 287.452 508.601 280.17 507.096 277.938C505.812 276.033 503.829 274.302 502.133 272.768Z" fill="#667690"/>
<path d="M381.804 424.549C382.88 425.918 382.242 426.734 382.952 428.123C384.128 427.637 385.096 427.115 386.387 427.298C387.002 427.935 386.844 427.564 386.916 428.384L386.54 428.067L386.704 428.607L386.829 428.109L386.399 428.055L386.264 428.881C383.321 430.752 379.597 432.389 376.403 433.888C373.811 433.702 371.405 432.692 368.812 432.657C367.949 433.078 367.839 433.061 367.418 433.908L367.822 434.534C370.447 435.521 373.505 435.054 376.213 434.691C374.103 435.722 372.024 436.681 369.813 437.476C369.226 437.437 368.754 437.407 368.199 437.195C367.555 436.948 367.876 437.034 367.35 436.899C365.045 436.307 363.509 435.732 361.727 434.085C363.498 433.065 365.292 432.951 367.009 432.075C369.386 430.863 371.622 429.272 374.017 428.026C374.576 428.915 375.109 429.888 376.117 430.327C377.459 430.913 379.883 431.615 381.29 431.089L381.397 430.755C380.12 428.87 377.92 428.284 375.904 427.438C377.813 426.354 379.811 425.464 381.804 424.549Z" fill="#FBFBFB"/>
<path d="M416.426 406.732C417.273 406.71 417.984 407.003 418.755 407.324C419.67 407.703 420.909 408.185 421.286 409.12C420.094 409.508 418.716 409.782 417.576 410.298C416.845 410.629 416.542 411.028 416.224 411.734C417.514 412.247 419.323 411.595 420.755 411.698C420.5 412.367 419.585 412.824 418.97 413.151C416.023 414.719 412.689 415.658 409.648 417.055C407.665 417.966 405.815 419.31 403.805 420.107C403.07 420.399 402.441 420.648 401.652 420.436L401.805 419.855C402.436 419.296 402.953 418.831 403.76 418.538C404.73 418.186 405.687 417.841 406.647 417.452C404.616 417.636 402.414 418.499 400.401 418.276C399.182 418.14 398.86 417.556 398.105 416.697C398.839 415.343 400.787 414.659 402.117 413.975C402.817 414.793 403.557 415.715 404.455 416.322C405.496 417.025 407.359 417.361 408.577 417.088L408.957 416.212C407.892 414.975 405.592 414.316 404.167 413.36L403.797 413.108C405.298 412.307 407.324 410.919 409.02 410.731C409.967 410.626 410.145 410.797 410.783 411.386C410.935 412.423 410.971 413.419 411.639 414.271C412.085 414.455 412.445 414.574 412.937 414.534C413.867 414.459 414.793 414.22 415.394 413.455C415.942 412.759 415.963 412.68 415.852 411.855C414.401 410.7 412.501 410.925 410.912 410.026C411.532 408.851 415.142 407.396 416.426 406.732Z" fill="#FBFBFB"/>
<path d="M390.488 438.887C395.4 436.423 411.142 429.524 414.262 426.395C414.946 425.708 414.763 425.071 414.748 424.185L414.974 424.156C417.044 427.154 419.707 427.766 423.051 428.717C421.183 430.025 419.118 431.035 417.108 432.104C416.174 431.181 414.909 430.131 413.559 429.927C412.049 429.697 411.144 430.17 409.924 431.002C409.954 431.705 409.989 432.393 409.95 433.097C407.887 433.744 405.859 434.204 403.736 434.606C402.732 435.617 401.685 436.53 400.585 437.435C398.861 437.641 397.043 437.685 395.499 438.534C395.059 439.273 395.193 438.86 395.143 439.785L394.136 441.185C392.967 440.352 391.714 439.632 390.488 438.887Z" fill="#FBFBFB"/>
<path d="M393.154 433.514L392.943 433.35C392.802 433.347 392.661 433.349 392.52 433.342C390.943 433.266 387.935 432.561 386.863 431.432C387.53 429.938 403.599 422.873 406.439 421.436C406.527 421.78 406.652 422.114 406.642 422.471C406.795 423.142 407.296 424.579 406.954 425.166C406.458 426.018 405.387 426.615 404.595 427.183C402.913 426.63 401.192 425.856 399.402 426.067L398.742 426.455C398.902 427.316 398.944 427.308 399.628 427.805C400.498 428.439 401.849 428.919 402.92 428.781C404.947 428.521 407.245 427.25 408.734 425.892L408.892 425.252L408.183 424.39L408.575 423.977C409.96 424.222 411.288 424.53 412.64 424.923C408.72 427.161 404.718 429.583 400.515 431.251L400.042 431.118C398.008 430.527 395.279 428.365 393.388 429.147L393.113 429.967C393.589 430.829 394.17 431.169 394.972 431.678C394.394 432.401 393.895 432.941 393.154 433.514Z" fill="#FBFBFB"/>
<path d="M437.609 409.72C439.104 409.306 440.562 408.886 442.101 408.67C436.898 412.903 429.149 413.73 422.825 416.261C419.562 417.759 415.919 418.066 412.999 420.288L413.162 420.624L415.131 420.565C415.483 421.245 415.542 421.823 415.276 422.563C415.001 423.326 414.916 423.486 414.189 423.801C412.574 423.042 411.28 421.116 409.653 420.738C408.906 421.347 408.982 421.979 408.896 422.918C408.88 423.089 408.874 423.261 408.863 423.432C408.138 423.053 407.457 422.603 406.644 422.472C406.654 422.115 406.529 421.781 406.441 421.436C410.537 418.487 416.808 416.623 421.465 414.527C426.75 411.553 431.79 410.939 437.609 409.72Z" fill="#FBFBFB"/>
<path d="M380.549 434.097C381.786 433.381 383.268 432.247 384.725 432.258C388.7 434.736 388.356 435.245 393.355 435.414C388.609 437.298 385.946 436.102 382.029 437.874C381.827 437.966 381.62 438.049 381.415 438.136C380.781 438.367 380.331 438.529 379.651 438.588C377.646 438.228 375.543 438.097 373.516 437.879C375.434 436.803 377.41 435.844 379.383 434.87L380.549 434.097Z" fill="#FBFBFB"/>
<path d="M379.383 434.869L380.163 436.019C379.758 436.444 379.588 436.491 379.05 436.681C378.938 437.548 379.258 437.841 379.651 438.587C377.646 438.227 375.543 438.096 373.516 437.879C375.434 436.802 377.41 435.843 379.383 434.869Z" fill="#FBFBFB"/>
<path d="M379.382 434.871L380.548 434.098C381.374 434.712 382.237 435.092 382.588 436.078C382.151 436.759 381.758 437.402 381.415 438.137C380.781 438.368 380.33 438.53 379.651 438.589C379.258 437.843 378.937 437.549 379.05 436.683C379.588 436.492 379.758 436.446 380.163 436.02L379.382 434.871Z" fill="#000110"/>
<path d="M421.883 432.322C422.685 432.358 422.315 432.211 422.94 432.875C421.577 438.09 410.396 439.205 409.031 440.737L409.455 442.294C409.05 443.217 408.912 443.146 407.977 443.569C407.103 442.612 406.098 441.76 405.141 440.888C410.387 437.496 416.332 435.173 421.883 432.322Z" fill="#FBFBFB"/>
<path d="M395.955 417.148C396.379 418.227 396.758 418.869 397.657 419.611L400.221 421.733L400.263 422.276C399.668 422.695 399.067 423.147 398.432 423.501C397.558 423.99 397.172 424.026 396.218 423.792L395.445 422.35C394.379 421.525 391.588 422.338 390.171 421.783C389.672 421.588 389.679 421.329 389.465 420.886C391.335 419.345 393.808 418.283 395.955 417.148Z" fill="#FBFBFB"/>
<path d="M346.442 450.869L346.6 451C345.708 453.343 341.806 456.342 339.691 457.709C339.063 458.115 338.57 458.469 338.041 459.002C337.703 459.344 337.545 459.565 337.074 459.732C336.631 459.889 335.78 459.355 335.346 459.169C334.494 458.78 333.856 458.432 333.117 457.837C335.574 455.223 343.02 452.8 346.442 450.869Z" fill="#FBFBFB"/>
<path d="M388.433 421.037C388.956 421.572 388.887 422.753 388.978 423.504C390.726 424.312 392.992 424.292 394.897 424.489C392.887 425.491 390.9 426.546 388.904 427.576C388.517 427.603 388.257 427.316 387.955 427.076C386.549 425.958 384.623 425.098 383.512 423.714C384.236 422.694 387.215 421.636 388.433 421.037Z" fill="#FBFBFB"/>
<path d="M409.953 433.097C409.992 432.393 409.957 431.705 409.927 431.002C411.547 431.771 413.206 432.428 414.868 433.097C412.458 434.426 402.555 440.508 400.651 440.351L400.23 439.777C400.499 438.842 400.857 438.547 401.71 438.064C404.492 436.488 408.405 435.923 410.823 433.905L410.789 433.468L409.953 433.097Z" fill="#FBFBFB"/>
<path d="M351.743 439.777L354.88 441.739C353.361 443.221 351.94 444.746 350.544 446.344C349.295 445.013 348.117 443.828 346.611 442.771L346.488 442.232C348.254 441.444 350.005 440.626 351.743 439.777Z" fill="#FBFBFB"/>
<path d="M359.713 435.244C360.604 435.609 362.402 437.769 363.205 438.513L356.923 440.474C355.609 439.885 354.186 439.496 352.816 439.055L359.713 435.244Z" fill="#FBFBFB"/>
<path d="M427.752 434.977C430.611 434.732 433.5 434.872 436.366 434.937C434.421 435.841 432.573 436.621 430.504 437.198C428.723 437.586 426.909 437.722 425.099 437.903C424.166 437.505 423.553 437.216 422.797 436.514L423.003 435.941C424.463 435.287 426.176 435.198 427.752 434.977Z" fill="#FBFBFB"/>
<path d="M475.693 434.713L476.467 434.944C476.751 436.141 476.215 437.532 475.912 438.711C473.296 440.141 470.65 441.515 467.975 442.832L467.574 442.87L467.638 442.383C469.972 439.682 472.812 436.819 475.693 434.713Z" fill="#FBFBFB"/>
<path d="M357.338 466.686C356.042 466.482 354.894 467.741 353.653 468.059C352.715 468.3 351.923 468.147 351.085 467.688L350.996 467.069C352.578 465.664 355.448 465.84 357.408 465.067C358.195 464.756 358.211 464.794 358.548 463.979C358.171 463.124 357.935 462.751 358.028 461.784C359.524 461.63 361.628 462.947 362.998 463.569C360.879 464.283 359.388 466.125 357.338 466.686Z" fill="#FBFBFB"/>
<path d="M404.392 441.215C404.414 441.225 404.44 441.229 404.458 441.245C405.197 441.911 405.738 442.367 405.83 443.371C405.06 444.802 402.434 445.564 400.982 446.165L398.105 444.402C400.301 443.548 402.334 442.349 404.392 441.215Z" fill="#FBFBFB"/>
<path d="M420.913 437.641C421.556 438.106 421.851 438.103 422.043 438.902L421.719 439.001C421.539 439.058 421.36 439.118 421.18 439.173C418.083 440.122 415.334 441.833 412.288 442.957C411.706 442.862 411.997 442.982 411.465 442.497C411.723 440.612 416.445 440.234 418.049 439.572C419.11 439.135 420.036 438.364 420.913 437.641Z" fill="#FBFBFB"/>
<path d="M371.934 257.337C372.856 257.058 373.57 256.839 374.524 257.236C376.355 258 377.203 260.198 377.968 261.865L376.848 262.097C376.526 261.319 376.093 260.316 375.555 259.669C374.817 258.779 374.159 258.654 373.095 258.471L372.271 258.243L371.934 257.337Z" fill="#FBFBFB"/>
<path d="M395.143 439.785C395.283 439.857 395.415 439.941 395.561 440C396.345 440.312 396.875 440.153 397.682 440.027L398.694 440.665L398.787 441.349C398.149 442.036 397.451 442.283 396.521 442.328C395.49 442.378 394.889 441.792 394.137 441.184L395.143 439.785Z" fill="#FBFBFB"/>
<path d="M394.974 431.678C395.574 431.829 397.711 432.191 398.054 432.591C398.18 432.738 398.25 432.925 398.347 433.092L397.474 432.323L397.667 433.549C396.719 433.754 394.509 434.567 393.694 433.997C393.497 433.859 393.336 433.675 393.156 433.514C393.897 432.941 394.396 432.4 394.974 431.678Z" fill="#FBFBFB"/>
<path d="M373.395 467.314C374.815 467.495 376.581 467.52 377.87 468.148L377.163 468.548C376.274 469.06 375.462 469.502 374.479 469.823C373.622 469.145 373.654 468.356 373.395 467.314Z" fill="#FBFBFB"/>
<path d="M353.266 461.893C354.277 461.831 354.907 461.798 355.883 462.142C356.47 463.046 356.362 463.435 356.368 464.492C355.954 464.544 355.502 464.505 355.084 464.501C353.986 463.905 353.728 462.981 353.266 461.893Z" fill="#FBFBFB"/>
<path d="M140.553 482.371C143.96 483.487 150.618 489.141 153.998 491.573C177.821 508.721 200.847 526.742 223.971 544.807C231.373 533.052 237.237 520.358 244.566 508.587C250.253 508.586 313.793 515.685 315.911 516.537C316.029 516.584 316.114 516.688 316.216 516.764L316.839 516.818C316.876 516.943 316.927 517.063 316.952 517.19C317.118 518.045 316.785 518.735 316.43 519.486C309.799 533.522 301.875 547.13 294.681 560.901L284.917 579.68C282.969 583.436 281.159 587.39 278.822 590.922C268.031 590.003 257.234 589.145 246.432 588.351C239.587 587.645 232.495 587.715 225.743 586.305L196.382 600.048C189.075 603.507 181.606 607.448 174.024 610.253C169.486 607.582 165.25 603.92 160.994 600.795L134.937 581.622C108.29 561.887 81.3602 542.535 54.1562 523.575C57.2566 521.634 60.8681 520.207 64.1841 518.651L82.1063 510.259C101.657 501.155 121.316 492.12 140.553 482.371Z" fill="#000002"/>
<path d="M140.346 485.543C142.823 486.092 152.536 493.683 155.481 495.818C178.692 512.487 201.363 529.898 223.456 548.024C232.627 555.591 242.339 563.089 250.515 571.73C236.923 578.871 222.659 585.003 208.731 591.478C197.283 596.8 186.024 602.605 174.293 607.291L171.549 605.443C147.945 588.629 124.848 571.031 101.448 553.924C87.5205 543.743 73.2971 533.933 59.2305 523.943C71.016 517.884 83.2792 512.475 95.2981 506.893C105.926 501.957 116.423 496.783 126.988 491.72C131.415 489.598 135.975 487.786 140.346 485.543Z" fill="#7B4CFA"/>
<path d="M142.04 503.663C142.63 503.626 142.787 503.705 143.315 503.931L143.453 504.59C141.144 507.146 95.6735 527.598 88.1415 531.234C87.7944 531.322 87.4557 531.257 87.1007 531.231L86.7969 530.637C86.941 530.383 87.0304 530.089 87.2299 529.875C88.5881 528.42 135.945 506.639 142.04 503.663Z" fill="#000002"/>
<path d="M174.076 532.096C174.919 532.483 174.741 532.415 175.107 533.169C174.992 533.384 174.941 533.647 174.765 533.815C173.359 535.151 133.475 553.822 129.142 555.759L128.336 555.199L128.339 554.704C130.112 552.707 167.319 535.656 174.076 532.096Z" fill="#000002"/>
<path d="M160.03 520.771C160.51 521.44 160.533 521.268 160.496 522.178C159.691 523.016 119.117 542.964 115.524 544.198L114.77 543.387C114.853 543.186 114.886 542.956 115.019 542.785C116.194 541.259 154.76 523.415 160.03 520.771Z" fill="#000002"/>
<path d="M186.262 542.762C186.55 542.799 186.874 542.968 187.147 543.073L187.119 543.707C183.248 547.44 150.288 561.748 142.798 565.148C142.083 565.015 142.221 564.999 141.809 564.47C142.333 563.583 142.93 563.295 143.834 562.82C151.002 559.053 158.675 556.072 165.993 552.563C172.638 549.377 179.39 545.328 186.262 542.762Z" fill="#000002"/>
<path d="M198.906 552.996L199.572 553.377L199.753 554.046C198.248 556.086 161.939 572.688 156.73 574.837L156.183 574.808L155.766 574.186C155.898 573.957 155.974 573.684 156.163 573.5C157.288 572.401 193.384 555.641 198.906 552.996Z" fill="#000002"/>
<path d="M213.27 564.344L214.03 564.865L214.113 565.473C212.735 567.31 174.334 584.809 169.059 586.984C168.681 586.798 168.449 586.562 168.141 586.279C168.254 586.062 168.312 585.807 168.48 585.628C168.918 585.161 208.88 566.481 213.27 564.344Z" fill="#000002"/>
<path d="M245.797 511.127C256.435 511.498 267.17 513.352 277.745 514.572C289.79 515.963 301.915 516.895 313.925 518.554C305.638 535.614 296.217 552.256 287.382 569.049C284.051 575.379 280.528 581.669 277.557 588.178L271.47 587.779C257.83 586.484 244.145 585.853 230.515 584.398C236.736 580.863 243.409 578.248 249.855 575.176C251.309 574.482 253.146 573.823 253.71 572.238C252.578 567.605 231.014 551.197 226.086 546.435C232.78 534.828 239.981 523.192 245.797 511.127Z" fill="#7B4CFA"/>
<path d="M248.84 527.252C250.669 526.996 289.215 530.384 291.703 531.18L292.086 532.151C288.401 533.032 255.478 529.528 250.523 528.486C249.425 528.255 249.445 528.153 248.84 527.252Z" fill="#000002"/>
<path d="M243.543 536.808C244.73 536.73 245.885 536.87 247.066 536.977C251.488 537.378 285.083 540.513 286.119 541.325C286.445 541.581 286.65 541.962 286.917 542.281C284.287 542.598 246.317 538.835 244.415 538.12C243.821 537.896 243.785 537.353 243.543 536.808Z" fill="#000002"/>
<path d="M241.059 547.163C244.252 546.888 278.45 550.039 280.354 550.926L280.634 552.238L256.639 549.939C252.944 549.604 245.214 549.55 242.079 548.384C241.301 548.095 241.398 547.872 241.059 547.163Z" fill="#000002"/>
<path d="M252.129 558.456C256.168 558.373 273.642 559.083 276.646 560.417L276.797 561.512C273.982 561.767 254.597 560.397 252.376 559.477L252.129 558.456Z" fill="#000002"/>
<path d="M217.936 133.417C205.434 137.331 193.321 142.445 181.067 147.063C147.994 159.525 115.313 172.954 82.2173 185.349C73.582 188.583 65.0449 192.082 56.4171 195.341C53.2525 196.537 49.9159 198.138 46.657 198.976C46.1736 199.101 45.811 199.019 45.3518 198.863C44.9172 198.075 44.8943 198.052 45.0238 197.165C45.8479 196.351 88.1923 180.293 93.4637 178.266L200.774 136.726L231.276 125.134C235.625 123.501 240.056 121.329 244.513 120.058C245.408 119.802 245.845 119.705 246.644 120.187L246.753 121.241C247.219 127.121 246.977 133.159 246.986 139.061L247.017 169.844L246.982 201.321C246.962 206.618 247.249 212.14 246.774 217.403C247.037 220.269 246.851 223.228 246.804 226.105C242.389 228.22 237.65 229.849 233.087 231.618C224.589 234.881 216.121 238.218 207.683 241.631C166.693 258.429 125.542 274.835 84.2378 290.845L60.3669 300.271C56.1483 301.96 51.0138 304.734 46.5767 305.394C45.6337 305.534 45.1555 305.632 44.3398 305.067L44.5572 304.323C47.7589 301.478 57.2278 298.71 61.6096 296.933C74.9636 291.637 88.3442 286.41 101.752 281.251C108.975 278.431 116.114 275.388 123.352 272.612C132.096 269.35 140.783 265.941 149.412 262.389C153.539 260.715 157.952 259.205 161.886 257.124C161.998 257.065 162.11 257.003 162.222 256.943C157.435 253.332 151.875 249.833 146.606 246.973C146.487 238.067 146.791 229.12 146.917 220.211C143.116 228.415 137.669 236.278 133.055 244.091C127.523 253.459 122.49 263.27 116.2 272.157C108.819 267.791 101.571 263.182 94.1553 258.884C85.3091 261.108 50.0768 276.59 45.6316 276.025L45.3054 275.564C45.7774 274.597 46.6162 274.092 47.5548 273.625C52.0875 271.37 57.3482 269.84 62.0971 267.997C72.637 263.905 83.1203 259.736 93.791 255.991C99.1441 247.757 104.06 239.186 109.11 230.761L143.181 173.153C147.323 174.771 163.124 182.429 166.305 184.846C166.504 187.685 164.942 190.602 164.789 193.486C164.635 196.374 164.949 199.447 164.975 202.364L165.126 224.475C168.023 223.619 170.906 222.857 173.858 222.215L174.044 189.374C174.028 183.54 173.576 177.472 173.94 171.674C174.009 170.575 174.17 169.972 174.857 169.123C179.07 170.088 188.447 176.953 194.446 178.816L194.933 178.965C197.29 178.125 199.533 177.193 201.792 176.12C198.41 174.035 185.553 167.97 184.105 166.227C183.56 165.571 183.512 165.043 183.63 164.246C185.663 163.747 203.114 173.767 206.246 175.396C206.514 186.85 206.276 198.363 206.255 209.822C210.09 208.307 213.97 206.903 217.887 205.614C218.13 181.594 218.695 157.425 217.936 133.417Z" fill="#000002"/>
<path d="M246.754 121.24C247.22 127.12 246.978 133.158 246.987 139.061L247.018 169.843L246.983 201.321C246.963 206.618 247.25 212.139 246.775 217.403C246.358 214.718 246.586 211.816 246.486 209.092C246.38 206.191 245.953 203.287 245.932 200.385C245.911 197.569 246.26 194.741 246.32 191.923C246.427 186.834 246.383 181.734 246.385 176.644C246.39 164.923 245.493 153.247 245.667 141.537C245.719 137.978 246.282 134.521 246.449 130.982C246.601 127.73 246.466 124.488 246.754 121.24Z" fill="#000110"/>
<path d="M243.853 123.211C243.998 123.435 244.215 123.628 244.288 123.885C244.752 125.518 244.283 141.267 244.283 143.879L244.155 222.224L230.547 213.305C227.218 211.172 223.834 209.114 220.477 207.025L220.496 131.926C228.41 129.412 236.06 126.078 243.853 123.211Z" fill="#7FE4BD"/>
<path d="M144.281 176.027C148.224 177.997 152.088 180.12 155.865 182.393C154.571 185.364 152.602 188.065 150.934 190.837L138.672 210.993C128.104 228.399 118.085 246.149 107.508 263.544C105.007 263.289 98.5169 258.538 96.125 256.995C112.541 230.224 128.594 203.232 144.281 176.027Z" fill="#7B4CFA"/>
<path d="M176.457 172.623C182.228 175.424 187.757 178.725 193.444 181.696C193.346 192.266 193.316 202.838 193.352 213.409L188.539 215.101C184.552 216.666 180.523 218.051 176.463 219.412L176.457 172.623Z" fill="#7B4CFA"/>
<path d="M157.902 183.672C159.969 184.32 162.023 185.377 164.018 186.24C148.485 214.036 131.407 240.917 115.839 268.687C113.592 267.972 111.438 266.495 109.414 265.31C112.713 260.737 115.248 255.496 118.115 250.637L133.693 224.326C141.614 210.673 150.264 197.504 157.902 183.672Z" fill="#7B4CFA"/>
<path d="M217.331 208.336C220.585 208.968 238.973 222.13 243.592 224.728C238.024 227.436 231.82 229.337 226.038 231.601L206.234 239.261C206.143 230.349 206.141 221.437 206.227 212.525C209.957 211.242 213.642 209.74 217.331 208.336Z" fill="#7CE3BC"/>
<path d="M161.983 195.113C162.968 198.158 162.296 246.279 162.287 253.983C159.681 252.069 156.949 250.375 154.212 248.659C152.492 247.653 150.845 246.549 149.19 245.439C149.086 235.893 149.461 226.357 149.425 216.81C153.738 209.645 157.767 202.331 161.983 195.113Z" fill="#7B4CFA"/>
<path d="M203.263 178.219C203.637 178.543 203.521 178.346 203.622 178.886C204.306 182.564 203.653 187.372 203.644 191.213L203.485 221.472C203.507 227.729 203.275 233.99 204.347 240.18L197.428 243.178C197.076 243.307 196.678 243.345 196.309 243.411C194.942 240.454 195.895 189.068 195.98 181.208L203.263 178.219Z" fill="#7B4CFA"/>
<path d="M193.027 215.859C194.125 218.055 193.334 236.361 193.301 240.09C190.084 237.674 186.537 235.657 183.114 233.547C180.874 232.179 178.65 230.787 176.442 229.369L176.43 222.294C182.006 220.263 187.54 218.118 193.027 215.859Z" fill="#7B4CFA"/>
<path d="M173.57 224.428C174.162 225.44 173.685 249.115 173.714 252.605C170.971 253.65 168.275 254.847 165.568 255.983L165.284 255.706C164.607 252.762 165.037 248.948 165.038 245.897L165.076 226.842L173.57 224.428Z" fill="#7B4CFA"/>
<path d="M176.45 232.305C182.713 235.748 189.145 239.833 194.878 244.102L189.971 246.178C185.512 247.961 181.07 249.765 176.513 251.286C176.052 245.017 176.374 238.591 176.45 232.305Z" fill="#7DE3BC"/>
<path d="M540.529 42.3925C548.255 41.662 556.225 43.7001 562.337 48.5682C570.486 55.0564 574.967 65.3829 576.088 75.5662C578.551 97.9534 568.991 122.402 554.996 139.639C543.427 153.886 527.444 165.972 508.723 167.9C500.006 168.045 491.522 166.053 484.618 160.465C476.631 154.001 472.68 143.578 471.709 133.603C469.553 111.474 480.16 86.9696 494.161 70.0534C505.638 56.1883 522.188 44.1096 540.529 42.3925Z" fill="#000110"/>
<path d="M540.398 44.8613C541.081 44.7922 541.764 44.7372 542.45 44.6959C549.242 44.3051 556.606 46.6802 561.677 51.2517C569.559 58.3565 573.524 69.2109 574.021 79.6454C575.082 101.945 564.415 125.83 549.543 142.084C538.634 154.006 524.209 164.471 507.532 165.186C499.945 165.429 492.72 163.434 486.67 158.744C479.039 152.83 475.477 143.137 474.388 133.818C471.877 112.345 482.014 89.4634 495.128 72.8766C506.239 58.8218 522.196 46.9333 540.398 44.8613Z" fill="#7B4CFA"/>
<path d="M539.784 53.3885C539.855 53.3833 539.926 53.3751 539.998 53.373C545.934 53.1948 551.867 55.0543 556.337 59.0463C562.892 64.9029 565.554 73.8357 566.067 82.3609C567.281 102.532 557.672 122.888 544.445 137.614C535.305 147.79 522.161 155.955 508.247 156.689C502.203 156.643 496.033 154.999 491.34 151.044C485.317 145.968 482.472 137.903 481.807 130.248C480.117 110.824 488.655 90.3558 501.071 75.7363C510.827 64.2493 524.422 54.6958 539.784 53.3885Z" fill="url(#paint1_linear_335_4581)"/>
<path d="M539.853 55.8774C545.134 55.5481 550.684 57.3995 554.681 60.8616C560.604 65.9919 563.104 74.457 563.605 82.0316C564.908 101.735 555.916 121.076 543.099 135.58C534.238 145.609 521.75 153.409 508.166 154.24C503.053 154.106 497.736 152.784 493.626 149.62C487.729 145.078 485.178 137.837 484.349 130.676C482.283 112.81 490.548 92.4183 501.594 78.6876C511.175 66.7772 524.377 57.4984 539.853 55.8774Z" fill="#7B4CFA"/>
<path d="M548.888 71.5234C549.37 71.8479 549.632 72.1255 550.01 72.5571C549.901 75.3934 534.078 97.7892 531.496 101.656C531.664 103.12 531.909 104.689 531.701 106.157C531.253 109.339 528.994 107.545 527.142 108.396C526.474 108.703 525.746 109.898 525.315 110.505C522.519 114.441 517.428 124.288 514.099 126.741C513.159 126.643 513.334 126.61 512.739 125.974C513.785 123.718 515.307 121.757 516.621 119.656C519.593 114.906 522.525 110.18 525.617 105.499C521.44 103.076 516.899 101.247 512.599 99.0529C510.175 97.8161 501.479 94.0626 500.695 91.6608L501.423 91.32C505.331 91.5869 521.323 100.516 525.543 102.606C526.877 101.706 528.265 101.005 529.704 100.293C535.745 90.5788 542.112 80.7437 548.888 71.5234Z" fill="url(#paint2_linear_335_4581)"/>
<path d="M106.857 90.0443C106.755 89.7745 106.657 89.5033 106.563 89.2299C101.533 74.5969 101.889 58.4937 103.634 43.3324C103.984 40.302 104.006 36.3369 105.37 33.5754L106.095 33.332C106.536 33.4616 106.53 33.4356 106.992 33.7065C108.547 34.6185 110.019 37.5209 111.01 39.0062C120.114 52.6657 124.322 66.2549 128.081 82.0452C132.049 73.9871 137.054 66.1467 143.523 59.861C145.614 57.8287 150.466 52.6229 153.467 52.6696C155.389 54.1031 154.473 58.2938 154.251 60.4092C153.195 70.4597 150.817 80.6543 146.569 89.876C145.414 92.3829 140.76 98.338 141.133 100.684C141.752 101.049 142.941 101.601 143.312 102.218C144.616 104.381 141.338 115.166 140.638 118.191C163.07 110.008 185.268 101.202 207.843 93.3875C208.823 93.391 210.046 93.1965 210.846 93.8376L211.253 94.6917C203.18 97.9021 194.934 100.721 186.782 103.73L140.175 121.012C137.876 128.445 137.079 137.965 133.945 144.712C131.505 145.971 128.92 146.928 126.249 147.56C120.758 148.821 113.083 148.881 108.222 145.702C104.671 143.381 104.563 140.473 103.826 136.608C91.2513 140.978 78.7198 145.468 66.232 150.079C61.8511 151.687 49.9735 156.823 46.0778 157.178C45.2062 157.258 44.7803 157.241 44.0703 156.687L44.3219 156.034C47.7092 153.185 52.9752 152.392 57.0632 150.842C65.9651 147.466 74.8413 144.155 83.8223 140.971C90.2794 138.682 96.9317 136.636 103.196 133.865C101.297 125.662 99.298 117.484 97.198 109.33C94.2836 106.705 90.9553 104.518 88.0153 101.889C81.3403 95.9206 76.2669 88.6499 71.4761 81.1541C70.4306 79.5191 68.2204 76.7701 67.9977 74.8532C67.92 74.1845 68.2008 74.1191 68.6084 73.6357C69.4208 73.3311 70.0593 73.2005 70.9332 73.2274C84.053 73.6264 97.9626 80.5968 106.857 90.0443Z" fill="#000002"/>
<path d="M140.196 106.162L140.363 106.304C140.483 106.981 140.546 106.855 140.418 107.385C138.907 113.649 137.418 119.883 136.044 126.182C134.849 131.656 134.056 137.819 131.783 142.945C130.666 143.539 129.553 144.104 128.353 144.513C121.431 146.873 114.445 146.146 107.938 142.973C107.385 140.825 106.92 138.644 106.416 136.482C104.928 127.76 101.854 115.164 99.2344 106.733C100.61 107.221 101.995 107.679 103.39 108.109C113.712 111.173 130.572 111.392 140.196 106.162Z" fill="#7B4CFA"/>
<path d="M107.171 38.1973C118.349 52.2917 128.607 83.5423 126.407 101.433C126.23 102.872 125.341 104.043 125.062 105.478L125.393 105.907C128.431 106.177 131.512 105.498 134.577 105.521C123.731 108.272 112.356 108.151 101.571 105.168L101.137 104.715L102.931 105.15C108.189 106.353 114.429 106.089 119.808 105.932C119.362 99.0408 114.193 62.6468 111.91 59.4367L111.264 59.2949C110.637 59.9186 110.633 60.0672 110.634 60.996C110.637 65.4598 112.31 70.4533 113.098 74.8588C113.734 78.4114 117.535 101.599 116.374 103.292C115.175 103.356 114.924 103.438 113.845 102.826C112.262 100.572 111.927 97.7018 111.087 95.1239C105.259 77.235 103.535 59.1029 106.748 40.5232C106.883 39.7468 107.024 38.9715 107.171 38.1973Z" fill="#7B4CFA"/>
<path d="M71.0312 75.8105C77.2136 76.3388 83.6047 78.2386 89.2836 80.688C99.7378 85.1969 107.021 92.8652 111.191 103.361L105.694 103.26C104.751 102.455 103.755 101.699 102.785 100.925C102.316 102.455 102.619 103.637 102.933 105.149L101.139 104.714L101.573 105.167C100.54 105.306 99.9082 105.655 99.0357 106.176L97.9878 105.995C97.8813 105.989 97.7705 106.004 97.6676 105.977C96.2434 105.593 94.5828 104.1 93.427 103.212C83.9582 95.9408 77.3492 85.7606 71.0312 75.8105Z" fill="#7B4CFA"/>
<path d="M100.246 101.282C97.3776 98.4694 84.2874 88.1267 83.5312 85.4217L83.9544 85.0703C88.7857 86.4547 98.3957 96.8897 102.588 100.623L100.246 101.282Z" fill="#000002"/>
<path d="M97.9854 105.996C97.5821 105.202 97.4238 104.857 97.5679 103.968C98.2133 102.824 99.1277 102.323 100.213 101.625C100.936 102.593 100.984 103.558 101.136 104.715L101.571 105.168C100.538 105.307 99.9058 105.656 99.0333 106.177L97.9854 105.996Z" fill="#000110"/>
<path d="M102.586 100.623L102.781 100.925C102.312 102.455 102.615 103.637 102.929 105.149L101.135 104.715C100.983 103.557 100.934 102.592 100.211 101.624L100.244 101.281L102.586 100.623Z" fill="#000110"/>
<path d="M151.562 56.4609C151.849 58.6174 151.508 61.0343 151.232 63.1818C149.728 74.8739 144.036 95.3598 134.469 102.789C132.718 103.118 130.959 103.223 129.186 103.355C130.432 98.5795 139.005 84.4463 141.828 79.2821C142.185 78.6275 142.557 77.9701 142.865 77.2906C143.328 76.2647 143.716 75.657 143.344 74.5928L143.116 74.5509C141.113 75.6939 131.032 93.8391 129.259 96.8444C129.152 93.2747 128.854 89.6936 128.641 86.1282C134.218 74.5431 141.533 64.5632 151.562 56.4609Z" fill="#7B4CFA"/>
<path d="M192.633 475.861C192.35 474.255 192.061 472.646 191.955 471.017C191.846 469.324 191.642 466.263 193.074 465.066C195.765 462.817 206.733 464.41 210.165 464.871C217.754 465.892 237.645 469.248 241.932 474.875C242.47 476.748 241.315 479.243 240.585 480.989C238.073 487.001 232.96 491.143 227.044 493.533C227.12 494.883 226.929 497.24 227.687 498.342C228.304 498.662 229.113 499.026 229.619 499.519C230.29 500.17 230.362 500.754 230.427 501.639C229.583 503.659 227.981 504.233 226.106 505.052C215.081 502.792 203.981 499.592 193.069 496.774C188.926 495.703 182.88 493.928 180.715 489.91C179.979 488.543 179.823 486.944 180.369 485.481C182.112 480.803 188.399 477.824 192.633 475.861Z" fill="#000002"/>
<path d="M227.687 498.341C227.333 499.259 227.519 500.338 227.344 501.344C226.677 501.924 226.55 502.118 225.611 502.083C221.602 501.931 213.731 499.045 209.485 497.941C203.025 496.264 196.259 495.04 189.93 492.948C188.354 492.426 184.35 491.144 183.414 489.782C182.721 488.775 182.669 487.166 183.1 486.069C184.519 482.454 190.026 480.1 193.42 478.736C195.659 483.839 198.355 487.845 203.287 490.679C210.682 494.928 218.902 495.693 227.044 493.532C227.12 494.882 226.929 497.239 227.687 498.341Z" fill="url(#paint3_linear_335_4581)"/>
<path d="M187.452 486.249C187.822 486.236 188.023 486.217 188.375 486.245C190.063 486.381 193.404 487.404 194.42 488.929C195.071 489.906 194.927 490.268 194.779 491.373C192.755 490.533 188.238 489.17 187.082 487.208L187.452 486.249Z" fill="#000002"/>
<path d="M194.48 470.438C208.132 475.648 223.972 479.358 238.676 478.525C237.192 481.551 235.559 484.042 233.286 486.534C230.457 489.204 227.068 491.028 223.253 491.795C216.768 493.098 208.734 491.419 203.274 487.697C197.42 483.707 195.794 476.973 194.48 470.438Z" fill="#7B4CFA"/>
<path d="M194.895 466.962C202.806 465.826 232.273 470.107 238.241 474.919C238.851 475.411 238.708 475.404 238.799 476.111C236.753 476.344 234.688 476.248 232.641 476.074C226.072 475.512 198.376 471.094 194.895 466.962Z" fill="#7B4CFA"/>
<path d="M254.828 231.22C255.834 225.393 255.318 218.906 255.334 212.985L255.347 179.352L255.415 64.4027L255.352 40.9986C255.318 36.8012 254.632 31.2551 255.579 27.1952C255.788 26.3001 255.894 25.7256 256.696 25.209C256.782 25.2708 256.879 25.3207 256.956 25.3944C257.88 26.2811 258.078 28.3362 258.145 29.539C258.385 33.9047 258.086 38.4866 258.092 42.8755L258.079 74.1558L258.066 168.657L258.038 206.764C258.019 215.444 258.123 224.134 257.65 232.803C253.37 235.314 248.132 236.885 243.511 238.699C233.676 242.56 223.792 246.311 214.002 250.281C172.485 267.316 130.828 284.005 89.0333 300.346C83.0469 302.448 77.1841 304.989 71.2758 307.306C66.7971 309.063 62.2332 310.593 57.7439 312.331C54.1293 313.731 49.4216 316.393 45.6352 316.837L45.0339 316.33L44.9648 315.506C45.7608 314.103 46.9882 313.689 48.443 313.074C53.1949 311.063 58.1339 309.447 62.9604 307.621L94.4077 295.388C134.146 279.846 173.747 263.961 213.21 247.734C227.018 242.105 241.168 237.192 254.828 231.22Z" fill="#000110"/>
<path d="M244.263 106.168L244.212 51.4194L244.223 36.3939C244.21 34.3491 243.913 32.228 244.085 30.1975C244.188 28.9871 244.468 27.0968 245.324 26.156C245.434 26.0334 245.586 25.9543 245.717 25.8535C246.812 27.152 246.902 28.3019 247.04 29.964C247.37 33.9584 247.092 38.1187 247.064 42.1338L246.961 64.8701L247.049 96.5288C247.076 101.049 247.402 105.69 247.227 110.194C239.932 114.012 231.31 116.573 223.593 119.518L176.813 137.285C162.181 142.808 49.1727 188.048 45.4129 187.349C45.3021 187.329 45.1987 187.279 45.0917 187.244C45.0168 186.396 44.9171 186.075 45.617 185.434C47.3377 183.856 78.6681 172.825 83.1373 171.094C125.91 154.151 168.796 137.498 211.794 121.137C222.421 117.113 232.984 112.834 243.668 108.974C235.096 103.625 227.104 97.2643 218.474 92.0432C216.087 92.9357 213.686 93.953 211.251 94.6928L210.844 93.8387C210.044 93.1976 208.821 93.3922 207.841 93.3886C211.283 91.9971 214.832 90.7021 218.207 89.1636L218.174 51.8275C218.174 47.3628 217.594 41.7387 217.995 37.4233C218.092 36.3763 218.415 35.5468 218.902 34.6268L219.626 34.1163C220.313 34.525 220.31 34.5946 220.524 35.3394C221.477 38.6682 220.816 48.9591 220.801 53.2003L220.745 90.5545C228.563 95.6655 236.243 101.44 244.263 106.168Z" fill="#000110"/>
</g>
<defs>
<linearGradient id="paint0_linear_335_4581" x1="443.247" y1="408.934" x2="443.504" y2="404.863" gradientUnits="userSpaceOnUse">
<stop stop-color="#010514"/>
<stop offset="1" stop-color="#09092D"/>
</linearGradient>
<linearGradient id="paint1_linear_335_4581" x1="541.647" y1="143.498" x2="505.777" y2="66.7338" gradientUnits="userSpaceOnUse">
<stop stop-color="#000001"/>
<stop offset="1" stop-color="#010219"/>
</linearGradient>
<linearGradient id="paint2_linear_335_4581" x1="511.755" y1="80.5193" x2="535.5" y2="103.105" gradientUnits="userSpaceOnUse">
<stop/>
<stop offset="1" stop-color="#04071C"/>
</linearGradient>
<linearGradient id="paint3_linear_335_4581" x1="204.359" y1="496.332" x2="207.883" y2="483.846" gradientUnits="userSpaceOnUse">
<stop stop-color="#F9CBCC"/>
<stop offset="1" stop-color="#EBECEC"/>
</linearGradient>
<clipPath id="clip0_335_4581">
<rect width="727" height="727" fill="white"/>
</clipPath>
</defs>
</svg>
