<svg width="25" height="24" viewBox="0 0 25 24" fill="none" xmlns="http://www.w3.org/2000/svg">
<path fill-rule="evenodd" clip-rule="evenodd" d="M3.9541 6.5C3.9541 3.87479 3.98221 3 7.4541 3C10.926 3 10.9541 3.87479 10.9541 6.5C10.9541 9.12521 10.9652 10 7.4541 10C3.94303 10 3.9541 9.12521 3.9541 6.5Z" stroke="white" stroke-width="1.5" stroke-linecap="round" stroke-linejoin="round"/>
<path fill-rule="evenodd" clip-rule="evenodd" d="M14.9541 6.5C14.9541 3.87479 14.9822 3 18.4541 3C21.926 3 21.9541 3.87479 21.9541 6.5C21.9541 9.12521 21.9652 10 18.4541 10C14.943 10 14.9541 9.12521 14.9541 6.5Z" stroke="white" stroke-width="1.5" stroke-linecap="round" stroke-linejoin="round"/>
<path fill-rule="evenodd" clip-rule="evenodd" d="M3.9541 17.5C3.9541 14.8748 3.98221 14 7.4541 14C10.926 14 10.9541 14.8748 10.9541 17.5C10.9541 20.1252 10.9652 21 7.4541 21C3.94303 21 3.9541 20.1252 3.9541 17.5Z" stroke="white" stroke-width="1.5" stroke-linecap="round" stroke-linejoin="round"/>
<path fill-rule="evenodd" clip-rule="evenodd" d="M14.9541 17.5C14.9541 14.8748 14.9822 14 18.4541 14C21.926 14 21.9541 14.8748 21.9541 17.5C21.9541 20.1252 21.9652 21 18.4541 21C14.943 21 14.9541 20.1252 14.9541 17.5Z" stroke="white" stroke-width="1.5" stroke-linecap="round" stroke-linejoin="round"/>
<path fill-rule="evenodd" clip-rule="evenodd" d="M17 17.5C17 16.3749 17.012 16 18.5 16C19.988 16 20 16.3749 20 17.5C20 18.6251 20.0047 19 18.5 19C16.9953 19 17 18.6251 17 17.5Z" fill="white"/>
</svg>
