<svg width="25" height="24" viewBox="0 0 25 24" fill="none" xmlns="http://www.w3.org/2000/svg">
<g clip-path="url(#clip0_159_3578)">
<path d="M4.73929 11.4328C9.58009 9.32426 12.8073 7.93402 14.4209 7.26238C19.0334 5.34448 19.9907 5.01138 20.6159 5.0001C20.7534 4.99789 21.0595 5.03188 21.2592 5.19337C21.4253 5.32956 21.472 5.51375 21.4953 5.64307C21.5161 5.77227 21.5446 6.06671 21.5213 6.29656C21.2722 8.9219 20.1904 15.2928 19.6405 18.2333C19.4096 19.4775 18.9504 19.8946 18.5068 19.9354C17.5417 20.0241 16.8102 19.2982 15.8763 18.6863C14.4157 17.7282 13.5907 17.1321 12.1717 16.1974C10.5322 15.1171 11.5958 14.5233 12.5297 13.5531C12.7736 13.2991 17.0229 9.43504 17.1033 9.08456C17.1137 9.04072 17.1241 8.87728 17.0255 8.79115C16.9295 8.70477 16.7868 8.73434 16.6831 8.75769C16.5352 8.79089 14.203 10.3339 9.67867 13.3865C9.01715 13.8416 8.41788 14.0634 7.87829 14.0517C7.28681 14.039 6.14535 13.7165 5.29704 13.441C4.25936 13.103 3.4318 12.9243 3.50444 12.3502C3.54076 12.0513 3.95324 11.7454 4.73929 11.4328Z" fill="white"/>
</g>
<defs>
<clipPath id="clip0_159_3578">
<rect width="24" height="24" fill="white" transform="translate(0.5)"/>
</clipPath>
</defs>
</svg>
