<svg width="25" height="24" viewBox="0 0 25 24" fill="none" xmlns="http://www.w3.org/2000/svg">
<path d="M19.6367 4.91891C17.7774 3.02706 15.2071 2 12.582 2C7.00397 2 2.51957 6.48647 2.57421 11.9459C2.57421 13.6757 3.0664 15.3514 3.88676 16.8649L2.46484 22L7.76953 20.6486C9.24609 21.4595 10.8867 21.8379 12.5274 21.8379C18.0508 21.8379 22.5352 17.3513 22.5352 11.892C22.5352 9.24327 21.496 6.75676 19.6367 4.91891ZM12.582 20.1622C11.1055 20.1622 9.62891 19.7839 8.37108 19.0272L8.04299 18.865L4.87113 19.6757L5.69142 16.5947L5.47269 16.2703C3.0664 12.4326 4.21486 7.35134 8.15235 4.97292C12.0898 2.59459 17.1758 3.72974 19.5821 7.62163C21.9883 11.5135 20.8398 16.5406 16.9024 18.919C15.6445 19.7298 14.1133 20.1622 12.582 20.1622V20.1622ZM17.3945 14.1623L16.793 13.892C16.793 13.892 15.918 13.5136 15.3711 13.2433C15.3164 13.2433 15.2618 13.1892 15.2071 13.1892C15.043 13.1892 14.9336 13.2433 14.8242 13.2974C14.8242 13.2974 14.7696 13.3514 14.0039 14.2163C13.9492 14.3244 13.8399 14.3785 13.7305 14.3785H13.6758C13.6211 14.3785 13.5118 14.3244 13.457 14.2704L13.1836 14.1623C12.582 13.892 12.0352 13.5676 11.5977 13.1352C11.4883 13.0271 11.3242 12.919 11.2148 12.8109C10.832 12.4326 10.4492 12.0001 10.1758 11.5136L10.1211 11.4055C10.0665 11.3514 10.0665 11.2974 10.0117 11.1893C10.0117 11.0812 10.0117 10.9731 10.0665 10.919C10.0665 10.919 10.2852 10.6487 10.4492 10.4866C10.5586 10.3784 10.6133 10.2163 10.7227 10.1082C10.832 9.94604 10.8867 9.72984 10.832 9.56765C10.7774 9.29736 10.1211 7.8379 9.95709 7.51361C9.84764 7.35142 9.73836 7.29741 9.57427 7.24332H8.97271C8.86327 7.24332 8.75398 7.29741 8.64454 7.29741L8.58982 7.35142C8.48045 7.40551 8.37108 7.51361 8.26172 7.56762C8.15235 7.67579 8.09763 7.78382 7.98826 7.89199C7.60544 8.37848 7.38671 8.97306 7.38671 9.56765C7.38671 10 7.49608 10.4325 7.66016 10.8109L7.71489 10.9731C8.20707 12.0001 8.86327 12.919 9.73836 13.7298L9.95709 13.946C10.1211 14.1082 10.2852 14.2163 10.3946 14.3784C11.543 15.3515 12.8555 16.0541 14.332 16.4325C14.4961 16.4865 14.7149 16.4865 14.879 16.5406H15.4258C15.6992 16.5406 16.0273 16.4325 16.2461 16.3244C16.4102 16.2163 16.5195 16.2163 16.6289 16.1082L16.7383 16.0001C16.8477 15.892 16.9571 15.838 17.0664 15.7299C17.1758 15.6218 17.2852 15.5137 17.3399 15.4055C17.4493 15.1893 17.5039 14.919 17.5586 14.6488V14.2704C17.5586 14.2704 17.5039 14.2163 17.3945 14.1623Z" fill="#12122A" fill-opacity="0.6"/>
<path d="M19.6367 4.91891C17.7774 3.02706 15.2071 2 12.582 2C7.00397 2 2.51957 6.48647 2.57421 11.9459C2.57421 13.6757 3.0664 15.3514 3.88676 16.8649L2.46484 22L7.76953 20.6486C9.24609 21.4595 10.8867 21.8379 12.5274 21.8379C18.0508 21.8379 22.5352 17.3513 22.5352 11.892C22.5352 9.24327 21.496 6.75676 19.6367 4.91891ZM12.582 20.1622C11.1055 20.1622 9.62891 19.7839 8.37108 19.0272L8.04299 18.865L4.87113 19.6757L5.69142 16.5947L5.47269 16.2703C3.0664 12.4326 4.21486 7.35134 8.15235 4.97292C12.0898 2.59459 17.1758 3.72974 19.5821 7.62163C21.9883 11.5135 20.8398 16.5406 16.9024 18.919C15.6445 19.7298 14.1133 20.1622 12.582 20.1622V20.1622ZM17.3945 14.1623L16.793 13.892C16.793 13.892 15.918 13.5136 15.3711 13.2433C15.3164 13.2433 15.2618 13.1892 15.2071 13.1892C15.043 13.1892 14.9336 13.2433 14.8242 13.2974C14.8242 13.2974 14.7696 13.3514 14.0039 14.2163C13.9492 14.3244 13.8399 14.3785 13.7305 14.3785H13.6758C13.6211 14.3785 13.5118 14.3244 13.457 14.2704L13.1836 14.1623C12.582 13.892 12.0352 13.5676 11.5977 13.1352C11.4883 13.0271 11.3242 12.919 11.2148 12.8109C10.832 12.4326 10.4492 12.0001 10.1758 11.5136L10.1211 11.4055C10.0665 11.3514 10.0665 11.2974 10.0117 11.1893C10.0117 11.0812 10.0117 10.9731 10.0665 10.919C10.0665 10.919 10.2852 10.6487 10.4492 10.4866C10.5586 10.3784 10.6133 10.2163 10.7227 10.1082C10.832 9.94604 10.8867 9.72984 10.832 9.56765C10.7774 9.29736 10.1211 7.8379 9.95709 7.51361C9.84764 7.35142 9.73836 7.29741 9.57427 7.24332H8.97271C8.86327 7.24332 8.75398 7.29741 8.64454 7.29741L8.58982 7.35142C8.48045 7.40551 8.37108 7.51361 8.26172 7.56762C8.15235 7.67579 8.09763 7.78382 7.98826 7.89199C7.60544 8.37848 7.38671 8.97306 7.38671 9.56765C7.38671 10 7.49608 10.4325 7.66016 10.8109L7.71489 10.9731C8.20707 12.0001 8.86327 12.919 9.73836 13.7298L9.95709 13.946C10.1211 14.1082 10.2852 14.2163 10.3946 14.3784C11.543 15.3515 12.8555 16.0541 14.332 16.4325C14.4961 16.4865 14.7149 16.4865 14.879 16.5406H15.4258C15.6992 16.5406 16.0273 16.4325 16.2461 16.3244C16.4102 16.2163 16.5195 16.2163 16.6289 16.1082L16.7383 16.0001C16.8477 15.892 16.9571 15.838 17.0664 15.7299C17.1758 15.6218 17.2852 15.5137 17.3399 15.4055C17.4493 15.1893 17.5039 14.919 17.5586 14.6488V14.2704C17.5586 14.2704 17.5039 14.2163 17.3945 14.1623Z" fill="white"/>
</svg>
