<svg width="327" height="327" viewBox="0 0 327 327" fill="none" xmlns="http://www.w3.org/2000/svg">
<g clip-path="url(#clip0_214_4810)">
<path d="M163.5 327C253.799 327 327 253.799 327 163.5C327 73.2014 253.799 0 163.5 0C73.2014 0 0 73.2014 0 163.5C0 253.799 73.2014 327 163.5 327Z" fill="#BBB0F0"/>
<path d="M324.315 193.124L202.32 71.1289L128.084 76.5206V194.513L101.555 258.877L169.555 326.877C247.02 324.056 310.729 267.353 324.315 193.124Z" fill="#7358F1"/>
<path d="M180.197 210.843H146.8C129.903 210.843 116.156 197.096 116.156 180.198V92.3016C116.156 75.403 129.904 61.6562 146.8 61.6562H180.197C197.095 61.6562 210.843 75.4037 210.843 92.3016V180.198C210.843 197.096 197.095 210.843 180.197 210.843ZM146.8 83.6764C142.045 83.6764 138.176 87.5467 138.176 92.3016V180.198C138.176 184.953 142.045 188.823 146.8 188.823H180.197C184.953 188.823 188.822 184.952 188.822 180.198V92.3016C188.822 87.5461 184.952 83.6764 180.197 83.6764H146.8Z" fill="#FFD15D"/>
<path d="M180.197 61.6562H163.133V83.6764H180.197C184.953 83.6764 188.823 87.5467 188.823 92.3016V180.198C188.823 184.953 184.952 188.823 180.197 188.823H163.133V210.843H180.197C197.096 210.843 210.843 197.096 210.843 180.198V92.3016C210.843 75.403 197.095 61.6562 180.197 61.6562Z" fill="#F9B54C"/>
<path d="M211.707 264.537H115.293C104.521 264.537 95.7891 255.805 95.7891 245.033V172.801C95.7891 162.029 104.521 153.297 115.293 153.297H211.708C222.48 153.297 231.212 162.029 231.212 172.801V245.033C231.212 255.804 222.48 264.537 211.707 264.537Z" fill="#363636"/>
<path d="M211.707 153.297H163.133V264.539H211.707C222.479 264.539 231.211 255.807 231.211 245.033V172.801C231.211 162.03 222.479 153.297 211.707 153.297Z" fill="#889299"/>
<path d="M178.915 205.614C178.915 197.101 172.014 190.199 163.5 190.199C154.987 190.199 148.086 197.1 148.086 205.614C148.086 210.726 150.585 215.243 154.416 218.047V224.606C154.416 229.622 158.484 233.689 163.5 233.689C168.516 233.689 172.583 229.622 172.583 224.606V218.047C176.415 215.243 178.915 210.726 178.915 205.614Z" fill="#324A5E"/>
<path d="M163.499 190.199C163.376 190.199 163.256 190.215 163.133 190.218V233.67C163.255 233.675 163.376 233.689 163.499 233.689C168.516 233.689 172.583 229.622 172.583 224.606V218.047C176.414 215.243 178.913 210.726 178.913 205.614C178.914 197.1 172.012 190.199 163.499 190.199Z" fill="#1E2D3D"/>
</g>
<defs>
<clipPath id="clip0_214_4810">
<rect width="327" height="327" fill="white"/>
</clipPath>
</defs>
</svg>
