<svg width="82" height="84" viewBox="0 0 82 84" fill="none" xmlns="http://www.w3.org/2000/svg">
<path d="M9.60447 54.9552C9.66361 54.9302 9.72127 54.9017 9.77711 54.8698C9.82173 54.8438 9.86419 54.815 9.90598 54.7852C10.0973 54.6575 10.2556 54.4845 10.3677 54.2808C10.3909 54.2418 10.4197 54.2071 10.44 54.1659L14.3452 46.1851C14.5404 45.7863 14.5727 45.3245 14.435 44.9013C14.2974 44.4781 14.0011 44.1281 13.6113 43.9284C13.2214 43.7287 12.77 43.6957 12.3564 43.8365C11.9427 43.9773 11.6006 44.2805 11.4055 44.6793L9.38322 48.8123C7.88826 41.8704 8.61921 34.6205 11.4678 28.1371C14.3164 21.6536 19.131 16.2817 25.198 12.8174C25.579 12.6006 25.8602 12.2379 25.9798 11.809C26.0994 11.3801 26.0475 10.9201 25.8356 10.5304C25.6238 10.1406 25.2692 9.85287 24.85 9.73052C24.4308 9.60818 23.9812 9.66123 23.6002 9.878C16.9462 13.6768 11.6583 19.5585 8.51322 26.6592C5.36814 33.7599 4.53166 41.7053 6.12663 49.3283L2.74607 46.9114C2.5694 46.78 2.36888 46.6859 2.15626 46.6347C1.94363 46.5834 1.72314 46.5761 1.5077 46.613C1.29226 46.65 1.08617 46.7305 0.901498 46.8498C0.716823 46.9692 0.557292 47.125 0.43216 47.3082C0.307028 47.4914 0.218817 47.6982 0.172728 47.9167C0.12664 48.1352 0.123602 48.3608 0.16374 48.5805C0.203879 48.8002 0.286403 49.0095 0.406512 49.1961C0.526622 49.3828 0.681868 49.5431 0.86323 49.6677L8.02877 54.7911L8.03667 54.7951C8.05563 54.8085 8.07881 54.8137 8.09822 54.8261C8.35824 54.9981 8.6606 55.0912 8.97021 55.0945C8.98449 55.0945 8.99885 55.0894 9.0132 55.089C9.11487 55.0858 9.216 55.0729 9.31531 55.0504C9.33487 55.046 9.35479 55.0479 9.37427 55.0428C9.40261 55.0352 9.42789 55.0206 9.45608 55.0117C9.48166 55.0036 9.50765 55.0001 9.53316 54.9906C9.55867 54.9811 9.57978 54.9659 9.60447 54.9552Z" fill="#4C4C4C"/>
<path d="M80.9625 33.7077L73.8254 28.605L73.8144 28.5974L73.7966 28.5846C73.7797 28.5725 73.7602 28.5658 73.743 28.5542C73.6698 28.5049 73.593 28.4616 73.5131 28.4248C73.4738 28.4071 73.4331 28.3957 73.3928 28.3813C73.3294 28.3575 73.2646 28.3378 73.1988 28.3223C73.1511 28.3118 73.1031 28.3064 73.0546 28.3003C72.9926 28.2919 72.9302 28.2872 72.8677 28.2862C72.8172 28.2858 72.7674 28.2893 72.7168 28.2938C72.653 28.2993 72.5896 28.3087 72.5269 28.3218C72.5018 28.3272 72.4763 28.3263 72.4515 28.333C72.4266 28.3396 72.4047 28.3524 72.3804 28.36C72.3507 28.3691 72.3209 28.3721 72.2918 28.3828C72.2587 28.3951 72.2307 28.4145 72.199 28.4285C72.1527 28.4492 72.1076 28.4706 72.0635 28.4955C72.0059 28.5284 71.9504 28.5648 71.8972 28.6047C71.8601 28.6322 71.8228 28.659 71.7882 28.6895C71.7362 28.7362 71.6871 28.7863 71.6414 28.8394C71.6127 28.8719 71.5829 28.9027 71.5566 28.9375C71.5107 29.0004 71.4692 29.0665 71.4324 29.1353C71.4181 29.1611 71.3988 29.183 71.3857 29.2096L67.4804 37.1904C67.3794 37.3883 67.318 37.6047 67.2996 37.8272C67.2812 38.0496 67.3063 38.2736 67.3735 38.486C67.4406 38.6984 67.5483 38.895 67.6905 39.0644C67.8326 39.2337 68.0063 39.3724 68.2014 39.4724C68.3965 39.5723 68.6091 39.6316 68.8268 39.6466C69.0445 39.6616 69.263 39.6321 69.4694 39.5599C69.6759 39.4877 69.8662 39.3741 70.0293 39.2258C70.1924 39.0775 70.325 38.8975 70.4194 38.6962L72.4424 34.5618C73.9396 41.5015 73.212 48.7501 70.3674 55.2336C67.5228 61.7171 62.7126 67.0908 56.6492 70.5586C56.4604 70.6659 56.294 70.8102 56.1597 70.9834C56.0255 71.1566 55.9259 71.3551 55.8667 71.5677C55.8074 71.7802 55.7898 72.0026 55.8146 72.2222C55.8395 72.4418 55.9064 72.6542 56.0116 72.8472C56.1168 73.0403 56.2581 73.2103 56.4276 73.3474C56.597 73.4846 56.7912 73.5862 56.999 73.6465C57.2069 73.7068 57.4244 73.7245 57.6389 73.6988C57.8535 73.673 58.061 73.6042 58.2496 73.4964C64.8988 69.6939 70.1814 63.8108 73.322 56.7108C76.4626 49.6107 77.2958 41.6676 75.6993 34.0474L79.0796 36.4642C79.2563 36.5953 79.4568 36.6892 79.6693 36.7402C79.8818 36.7912 80.1022 36.7984 80.3174 36.7614C80.5327 36.7244 80.7387 36.6438 80.9232 36.5245C81.1077 36.4052 81.2671 36.2494 81.3921 36.0663C81.5172 35.8833 81.6054 35.6766 81.6515 35.4583C81.6976 35.24 81.7008 35.0144 81.6608 34.7949C81.6208 34.5753 81.5384 34.3661 81.4185 34.1795C81.2986 33.9928 81.1436 33.8324 80.9625 33.7077Z" fill="#4C4C4C"/>
<path d="M54.0021 74.1597C53.9996 74.1397 53.9971 74.12 53.9938 74.1C53.9864 74.0499 53.9853 73.9994 53.9731 73.9499C53.9609 73.9004 53.9376 73.8544 53.9211 73.8061L53.9188 73.7967L53.9142 73.787C53.7735 73.3851 53.4881 73.0533 53.1162 72.8595L45.3155 68.8642C44.9257 68.6645 44.4743 68.6314 44.0606 68.7722C43.6469 68.913 43.3049 69.2162 43.1097 69.615C42.9145 70.0139 42.8822 70.4757 43.0198 70.8989C43.1575 71.3221 43.4538 71.6721 43.8436 71.8718L47.8949 73.9466C41.1088 75.4842 34.019 74.7415 27.6783 71.8287C21.3377 68.9159 16.0844 63.9885 12.6988 57.7782C12.594 57.5851 12.453 57.4151 12.284 57.2778C12.1149 57.1404 11.9211 57.0385 11.7136 56.9778C11.5061 56.9172 11.2888 56.8989 11.0744 56.9241C10.86 56.9492 10.6524 57.0174 10.4637 57.1246C10.275 57.2319 10.1088 57.3761 9.97462 57.549C9.84039 57.722 9.74077 57.9203 9.68146 58.1326C9.62214 58.3449 9.60427 58.5671 9.62889 58.7865C9.65351 59.0059 9.72014 59.2182 9.82495 59.4113C13.5232 66.2335 19.272 71.6546 26.219 74.8709C33.1659 78.0872 40.941 78.9274 48.3915 77.2668L46.0249 80.7311C45.7752 81.0967 45.6778 81.5488 45.7539 81.988C45.8301 82.4271 46.0737 82.8173 46.431 83.0728C46.7884 83.3282 47.2303 83.4279 47.6596 83.35C48.0888 83.2721 48.4702 83.0229 48.7199 82.6573L53.703 75.363L53.7069 75.3574L53.7281 75.3264C53.7472 75.2985 53.7583 75.2668 53.7756 75.2379C53.8127 75.1781 53.846 75.116 53.8754 75.0519C53.9002 74.9916 53.9216 74.9299 53.9394 74.8671C53.9519 74.8258 53.9657 74.7853 53.9751 74.7431C53.9913 74.6679 54.0024 74.5916 54.0083 74.5148C54.0109 74.4835 54.0141 74.4527 54.015 74.4212C54.0174 74.3338 54.0131 74.2464 54.0021 74.1597Z" fill="#4C4C4C"/>
<path d="M28.263 10.1535L28.2731 10.164C28.3385 10.2344 28.4098 10.2988 28.4862 10.3565C28.5154 10.3788 28.5472 10.3966 28.5777 10.4168C28.6231 10.4461 28.6643 10.4809 28.7127 10.5058L36.5134 14.5011C36.7065 14.6 36.9166 14.659 37.1319 14.6748C37.3473 14.6905 37.5635 14.6628 37.7683 14.5931C37.9732 14.5233 38.1625 14.413 38.3257 14.2684C38.4889 14.1238 38.6226 13.9477 38.7192 13.7503C38.8159 13.5528 38.8735 13.3378 38.889 13.1175C38.9044 12.8972 38.8773 12.676 38.8091 12.4664C38.741 12.2569 38.6331 12.0631 38.4918 11.8962C38.3505 11.7293 38.1783 11.5925 37.9853 11.4936L33.9633 9.4337C40.7447 7.90539 47.8268 8.65269 54.1605 11.5649C60.4942 14.477 65.7425 19.3991 69.1278 25.6019C69.2327 25.7949 69.3737 25.9649 69.5429 26.1021C69.712 26.2394 69.9059 26.3412 70.1135 26.4018C70.3211 26.4623 70.5383 26.4805 70.7527 26.4552C70.9672 26.4299 71.1746 26.3616 71.3633 26.2543C71.5519 26.1469 71.7181 26.0026 71.8522 25.8296C71.9863 25.6566 72.0859 25.4582 72.1451 25.2458C72.2043 25.0335 72.222 24.8112 72.1973 24.5918C72.1725 24.3724 72.1058 24.1602 72.0009 23.9672C68.2858 17.1598 62.5341 11.7512 55.5913 8.53664C48.6485 5.32205 40.8807 4.47097 33.43 6.10851L35.8032 2.63403C36.0438 2.26827 36.1343 1.82051 36.0554 1.38714C35.9764 0.953767 35.7342 0.569439 35.381 0.316915C35.0278 0.0643923 34.5919 -0.0361412 34.1669 0.0369597C33.742 0.110061 33.3621 0.350961 33.1091 0.707776L28.1012 8.03866C27.882 8.35478 27.7782 8.7395 27.8077 9.12588C27.8372 9.51227 27.9985 9.87607 28.263 10.1535Z" fill="#4C4C4C"/>
<path d="M62.0592 56.9818C62.2119 56.8256 62.333 56.6402 62.4157 56.4361C62.4983 56.2321 62.5408 56.0133 62.5408 55.7924C62.5408 55.5715 62.4983 55.3528 62.4157 55.1488C62.333 54.9447 62.2119 54.7593 62.0592 54.6031L59.1596 51.6362C59.8252 50.4375 60.3744 49.175 60.7992 47.8667H64.7847C65.2206 47.8667 65.6387 47.6895 65.9469 47.3741C66.2552 47.0588 66.4284 46.631 66.4284 46.185V37.2018C66.4284 36.7558 66.2552 36.3281 65.9469 36.0127C65.6387 35.6974 65.2206 35.5202 64.7847 35.5202H61.1347C60.7542 34.0772 60.2247 32.6797 59.5553 31.3512L62.0592 28.7891C62.2119 28.633 62.333 28.4476 62.4156 28.2437C62.4983 28.0397 62.5408 27.821 62.5408 27.6002C62.5408 27.3794 62.4983 27.1607 62.4156 26.9567C62.333 26.7527 62.2119 26.5674 62.0592 26.4113L55.8489 20.0583C55.6963 19.9021 55.5152 19.7782 55.3158 19.6937C55.1164 19.6091 54.9027 19.5656 54.6868 19.5656C54.471 19.5656 54.2573 19.6091 54.0579 19.6937C53.8585 19.7782 53.6773 19.9021 53.5248 20.0583L51.1894 22.4472C49.8472 21.6682 48.4236 21.0462 46.9455 20.5928V17.2695C46.9455 16.8235 46.7723 16.3958 46.464 16.0804C46.1558 15.7651 45.7377 15.5879 45.3018 15.5879H36.5222C36.0863 15.5879 35.6682 15.7651 35.3599 16.0804C35.0517 16.3958 34.8785 16.8235 34.8785 17.2695V20.5928C33.4003 21.0463 31.9767 21.6683 30.6343 22.4472L28.2989 20.0583C28.1463 19.9021 27.9652 19.7782 27.7658 19.6937C27.5664 19.6091 27.3527 19.5656 27.1369 19.5656C26.921 19.5656 26.7073 19.6091 26.5079 19.6937C26.3085 19.7782 26.1273 19.9021 25.9747 20.0583L19.765 26.4113C19.6124 26.5674 19.4913 26.7527 19.4087 26.9567C19.3261 27.1607 19.2835 27.3794 19.2835 27.6002C19.2835 27.821 19.3261 28.0397 19.4087 28.2437C19.4913 28.4476 19.6124 28.633 19.765 28.7891L22.269 31.3512C21.5996 32.6797 21.0702 34.0772 20.6896 35.5202H17.0392C16.6033 35.5202 16.1852 35.6974 15.8769 36.0127C15.5687 36.3281 15.3955 36.7558 15.3955 37.2018V46.1851C15.3955 46.6311 15.5687 47.0588 15.8769 47.3742C16.1852 47.6896 16.6033 47.8667 17.0392 47.8667H21.025C21.45 49.175 21.9992 50.4375 22.6646 51.6362L19.765 54.6032C19.6124 54.7593 19.4913 54.9447 19.4086 55.1488C19.326 55.3528 19.2835 55.5715 19.2836 55.7924C19.2836 56.0132 19.3262 56.2319 19.4089 56.4359C19.4916 56.6399 19.6128 56.8253 19.7655 56.9814L25.9752 63.3294C26.1277 63.4856 26.3088 63.6095 26.5082 63.694C26.7076 63.7784 26.9213 63.8219 27.1371 63.8219C27.3529 63.8218 27.5666 63.7783 27.7659 63.6937C27.9653 63.6091 28.1464 63.4852 28.2989 63.329L31.3643 60.1925C32.4895 60.7866 33.6659 61.2731 34.8786 61.6458V66.1174C34.8786 66.5634 35.0518 66.9911 35.36 67.3064C35.6683 67.6218 36.0863 67.799 36.5222 67.799H45.3025C45.5184 67.799 45.7321 67.7555 45.9315 67.671C46.1309 67.5865 46.3121 67.4626 46.4648 67.3064C46.6174 67.1503 46.7385 66.9649 46.8211 66.7609C46.9037 66.5569 46.9462 66.3382 46.9462 66.1174V61.6458C48.1586 61.2733 49.3348 60.7869 50.4598 60.193L53.5255 63.329C53.8337 63.6442 54.2516 63.8213 54.6874 63.8215C55.1232 63.8216 55.5412 63.6448 55.8496 63.3298L62.0592 56.9818ZM51.9078 56.9185C51.6492 56.6539 51.3117 56.4851 50.9487 56.4389C50.5857 56.3927 50.218 56.4718 49.9039 56.6636C48.3607 57.6076 46.683 58.2998 44.9313 58.715C44.5694 58.8008 44.2466 59.0094 44.0154 59.307C43.7843 59.6045 43.6584 59.9734 43.6585 60.3534V64.4358H38.1654V60.3534C38.1654 59.9733 38.0396 59.6044 37.8083 59.3069C37.5771 59.0093 37.2542 58.8007 36.8922 58.715C35.1406 58.2996 33.4629 57.6073 31.9196 56.6632C31.6055 56.4714 31.2378 56.3924 30.8748 56.4386C30.5118 56.4849 30.1742 56.6538 29.9157 56.9185L27.136 59.7623L23.2517 55.7916L25.9034 53.0784C26.1707 52.8049 26.3378 52.4456 26.3764 52.0608C26.4149 51.6761 26.3227 51.2895 26.1152 50.9662C25.0863 49.3657 24.317 47.6056 23.8372 45.7539C23.7444 45.3954 23.5382 45.0783 23.2509 44.8522C22.9635 44.626 22.6111 44.5034 22.2486 44.5034H18.6825V38.8832H21.9901C22.3696 38.8832 22.7375 38.7488 23.0312 38.5028C23.3248 38.2568 23.5262 37.9145 23.6012 37.5338C23.9896 35.5532 24.7055 33.6549 25.7179 31.9206C25.9057 31.5992 25.9832 31.2229 25.9382 30.8513C25.8931 30.4797 25.7281 30.1342 25.4692 29.8695L23.2514 27.6001L27.1365 23.6253L29.2231 25.7596C29.4902 26.0326 29.8409 26.2032 30.2164 26.2429C30.5918 26.2826 30.9692 26.1889 31.2852 25.9776C32.998 24.8276 34.8963 23.997 36.8922 23.5243C37.2542 23.4386 37.5771 23.23 37.8083 22.9325C38.0396 22.6349 38.1654 22.266 38.1654 21.8859V18.951H43.6585V21.8859C43.6585 22.2661 43.7844 22.635 44.0157 22.9326C44.247 23.2301 44.5701 23.4387 44.9322 23.5243C46.9278 23.9968 48.8257 24.8274 50.5379 25.9776C50.8538 26.1894 51.2314 26.2833 51.607 26.2436C51.9827 26.2039 52.3335 26.033 52.6004 25.7596L54.6871 23.6253L58.573 27.6001L56.3547 29.8695C56.096 30.1343 55.931 30.4798 55.886 30.8513C55.8409 31.2228 55.9183 31.5991 56.1059 31.9206C57.1184 33.6548 57.8341 35.5532 58.2223 37.5338C58.2974 37.9145 58.4988 38.2569 58.7926 38.5028C59.0863 38.7488 59.4542 38.8832 59.8338 38.8832H63.1411V44.5034H59.5754C59.2129 44.5034 58.8606 44.6259 58.5734 44.852C58.2861 45.0782 58.08 45.3951 57.9871 45.7535C57.5068 47.6051 56.7375 49.3652 55.7087 50.9658C55.5012 51.2891 55.409 51.6757 55.4476 52.0604C55.4862 52.4452 55.6532 52.8046 55.9206 53.078L58.5722 55.7912L54.6878 59.7619L51.9078 56.9185Z" fill="#4C4C4C"/>
<path d="M52.1119 38.4433C51.6798 38.5021 51.2883 38.7341 51.0234 39.0883C50.7585 39.4424 50.6419 39.8897 50.6993 40.3318C50.7588 40.7835 50.7888 41.2389 50.7893 41.6947C50.788 43.6917 50.2081 45.6434 49.1229 47.3033C48.0377 48.9631 46.4959 50.2566 44.6923 51.0202C42.8888 51.7838 40.9044 51.9832 38.9901 51.5933C37.0758 51.2034 35.3174 50.2417 33.9372 48.8296C32.557 47.4176 31.6169 45.6186 31.2358 43.6601C30.8547 41.7016 31.0497 39.6714 31.796 37.8263C32.5424 35.9811 33.8067 34.4037 35.4291 33.2934C37.0515 32.1832 38.9593 31.5899 40.9111 31.5886C42.474 31.5834 44.0154 31.9618 45.4058 32.6919C45.5983 32.7964 45.8091 32.8607 46.0261 32.8811C46.2431 32.9015 46.4619 32.8775 46.6697 32.8105C46.8776 32.7436 47.0704 32.6351 47.2368 32.4912C47.4033 32.3474 47.5401 32.1711 47.6394 31.9726C47.7387 31.7742 47.7984 31.5575 47.8151 31.3353C47.8318 31.113 47.8051 30.8895 47.7366 30.6779C47.6681 30.4663 47.5592 30.2707 47.4161 30.1025C47.273 29.9344 47.0987 29.797 46.9033 29.6984C44.9492 28.6776 42.7766 28.1728 40.5832 28.23C38.3898 28.2871 36.2451 28.9043 34.3443 30.0256C32.2769 31.2441 30.5722 33.0147 29.4124 35.1479C28.2527 37.2812 27.6815 39.6968 27.7601 42.1365C27.8386 44.5762 28.5639 46.9481 29.8584 48.9986C31.1528 51.0492 32.9677 52.7012 35.109 53.7779C37.2502 54.8547 39.6373 55.3157 42.0149 55.1116C44.3925 54.9076 46.6712 54.0462 48.6072 52.6195C50.5432 51.1929 52.0637 49.2546 53.0062 47.0121C53.9486 44.7696 54.2775 42.3072 53.9577 39.8882C53.8997 39.4464 53.6729 39.0462 53.3268 38.7753C52.9808 38.5044 52.5439 38.385 52.1119 38.4433Z" fill="#4C4C4C"/>
<path d="M51.2748 31.1902L40.514 42.1995L36.2585 37.8462C35.9485 37.5398 35.5332 37.3702 35.1022 37.374C34.6712 37.3778 34.2589 37.5546 33.9541 37.8664C33.6493 38.1782 33.4764 38.6001 33.4727 39.0411C33.469 39.482 33.6347 39.9068 33.9342 40.224L39.3519 45.7666C39.5044 45.9228 39.6856 46.0467 39.885 46.1312C40.0844 46.2158 40.2981 46.2593 40.5139 46.2593C40.7298 46.2593 40.9435 46.2158 41.1429 46.1312C41.3423 46.0467 41.5235 45.9228 41.676 45.7666L53.599 33.568C53.899 33.251 54.0652 32.826 54.0617 32.3848C54.0582 31.9435 53.8853 31.5214 53.5803 31.2093C53.2754 30.8973 52.8627 30.7204 52.4314 30.7169C52.0001 30.7133 51.5847 30.8833 51.2748 31.1902Z" fill="#4C4C4C"/>
</svg>
