<svg width="73" height="81" viewBox="0 0 73 81" fill="none" xmlns="http://www.w3.org/2000/svg">
<path d="M44.3196 10.0603C41.4914 8.23865 38.1332 7.47662 34.8174 7.90405C31.5016 8.33147 28.4332 9.92191 26.1351 12.4044C23.837 14.8869 22.4513 18.1078 22.2142 21.5184C21.977 24.9289 22.9031 28.3181 24.8346 31.1083C26.7661 33.8986 29.5836 35.9174 32.8069 36.8208C36.0302 37.7241 39.4599 37.456 42.5117 36.0623C45.5634 34.6685 48.0484 32.2353 49.5432 29.1772C51.0381 26.1191 51.4502 22.6253 50.7094 19.2912C49.8585 15.4699 47.5604 12.1501 44.3196 10.0603ZM46.0659 28.6495C44.6904 30.8846 42.5999 32.5627 40.1507 33.3977C37.7014 34.2328 35.0449 34.1732 32.6338 33.229C30.2227 32.2849 28.2062 30.5146 26.9279 28.2199C25.6495 25.9252 25.1884 23.248 25.6231 20.6444C26.0579 18.0409 27.3615 15.6721 29.312 13.9417C31.2625 12.2113 33.7391 11.2263 36.3198 11.1546C38.9005 11.0829 41.4257 11.9289 43.4651 13.5484C45.5044 15.168 46.9319 17.4609 47.5041 20.0365C47.8329 21.4981 47.8751 23.012 47.6282 24.4904C47.3814 25.9689 46.8503 27.3824 46.0659 28.6495Z" fill="#4C4C4C"/>
<path d="M71.434 49.3937C70.5471 48.1578 69.2548 47.2901 67.7936 46.9496C66.3324 46.609 64.8002 46.8184 63.4776 47.5394L49.6305 55.0024C49.4522 53.9433 49.0354 52.9412 48.4132 52.0752C47.7911 51.2093 46.9804 50.5034 46.0455 50.0133C42.658 48.2459 37.0418 46.5381 32.9263 45.4165C29.2217 44.4002 25.2786 44.8512 21.8849 46.6796L12.7949 51.5698C12.2546 51.1343 11.6029 50.8678 10.9182 50.8022C10.2334 50.7367 9.54465 50.875 8.93485 51.2004L2.6068 54.6058C2.19135 54.8292 1.82312 55.1344 1.5234 55.5039C1.22369 55.8734 0.998444 56.2999 0.860457 56.7588C0.722471 57.2177 0.674548 57.7001 0.719461 58.178C0.764374 58.656 0.901192 59.1201 1.12211 59.5437L11.0543 78.613C11.498 79.4616 12.2514 80.0964 13.1504 80.3793C14.0494 80.6622 15.0213 80.5702 15.8544 80.1234L22.1801 76.7205C22.8312 76.3736 23.3603 75.8274 23.6935 75.1582C24.0267 74.4889 24.1474 73.7299 24.0387 72.9871L24.6158 72.6853C27.178 71.3387 30.0817 70.827 32.9366 71.2193L43.9025 72.7046C46.5374 73.0629 49.2102 72.437 51.4305 70.9418L69.4942 58.7891C70.2658 58.3409 70.9355 57.7302 71.4592 56.9974C71.9828 56.2646 72.3484 55.4264 72.5317 54.5382C72.7151 53.6501 72.7121 52.7322 72.5228 51.8453C72.3336 50.9585 71.9625 50.1229 71.434 49.3937ZM20.7846 73.5783C20.7743 73.6137 20.7572 73.6466 20.7342 73.6751C20.7112 73.7036 20.6827 73.7271 20.6507 73.7442L14.3251 77.147C14.2609 77.1812 14.1862 77.1882 14.117 77.1665C14.0478 77.1449 13.9897 77.0964 13.9552 77.0313L4.02285 57.962C4.00586 57.9295 3.99535 57.8938 3.99189 57.8571C3.98842 57.8204 3.9921 57.7834 4.00269 57.7481C4.01328 57.7128 4.03061 57.6801 4.05363 57.6517C4.07665 57.6233 4.10487 57.5999 4.13679 57.5827L10.464 54.1773C10.5034 54.1563 10.5472 54.1453 10.5917 54.1453C10.6414 54.1451 10.6903 54.1588 10.733 54.1849C10.7757 54.211 10.8107 54.2486 10.8341 54.2935L10.9261 54.4704L10.9311 54.4827L20.5512 72.9551L20.554 72.9592L20.7648 73.3636C20.7819 73.3962 20.7926 73.432 20.796 73.4689C20.7994 73.5058 20.7955 73.5429 20.7846 73.5783ZM69.3122 53.8595C69.2247 54.285 69.0481 54.686 68.7946 55.0349C68.541 55.3838 68.2166 55.6723 67.8435 55.8806C67.8074 55.9011 67.7714 55.9233 67.7369 55.9467L49.6249 68.1322C48.0648 69.1833 46.1863 69.6231 44.3346 69.3707L33.3686 67.885C29.8521 67.4051 26.2762 68.0352 23.1193 69.691L22.6931 69.9135L14.6109 54.3927L23.4146 49.6561C26.0783 48.2213 29.1731 47.8679 32.0805 48.6663C36.0419 49.746 41.4213 51.3758 44.5531 53.0093C45.2978 53.3862 45.8803 54.031 46.1889 54.8202C46.4975 55.6093 46.5107 56.4872 46.2257 57.2856L46.2192 57.3012C45.5788 58.9307 43.5886 59.2872 40.3687 58.3788L30.7711 55.2346C30.3559 55.0985 29.9049 55.1367 29.5173 55.3408C29.1296 55.5449 28.8371 55.8982 28.7041 56.3229C28.571 56.7477 28.6084 57.2091 28.8079 57.6057C29.0074 58.0022 29.3527 58.3015 29.7678 58.4376L39.4297 61.6012C45.5459 63.3303 48.0162 61.0477 49.0041 59.1412L65.01 50.5147C65.5121 50.244 66.0793 50.1255 66.6449 50.1732C67.2106 50.221 67.7512 50.433 68.2031 50.7843C68.655 51.1356 68.9994 51.6116 69.1959 52.1563C69.3925 52.701 69.4326 53.2921 69.3122 53.8595Z" fill="#4C4C4C"/>
<path d="M17.0006 20.972C17.0895 20.9873 17.1794 20.9949 17.2695 20.9949C17.6587 20.9943 18.0352 20.8525 18.3319 20.5946C18.6286 20.3368 18.8263 19.9796 18.8898 19.5867C19.4654 16.0073 21.0628 12.682 23.4809 10.0291C25.8991 7.37611 29.0301 5.51401 32.4801 4.67696C35.9301 3.8399 39.545 4.06529 42.8701 5.32478C46.1952 6.58428 49.082 8.82162 51.1674 11.7554C51.8948 12.7847 52.5152 13.8889 53.0183 15.0501L52.2783 15.2609C52.0481 15.3265 51.8388 15.4528 51.6714 15.6272C51.504 15.8016 51.3844 16.0179 51.3245 16.2546C51.2646 16.4912 51.2666 16.7398 51.3302 16.9754C51.3939 17.211 51.5169 17.4253 51.6871 17.5969L55.475 21.4192C55.6458 21.5916 55.858 21.7148 56.0903 21.7763C56.3225 21.8379 56.5665 21.8356 56.7976 21.7697C57.0287 21.7039 57.2387 21.5768 57.4064 21.4013C57.5742 21.2258 57.6936 21.0081 57.7527 20.7703L59.0642 15.4949C59.1231 15.258 59.1201 15.0095 59.0555 14.7742C58.9909 14.5389 58.867 14.3251 58.6962 14.1542C58.5254 13.9834 58.3136 13.8615 58.0822 13.8007C57.8508 13.7399 57.6079 13.7425 57.3778 13.808L56.1986 14.144C56.1815 14.072 56.1598 14.0013 56.1336 13.9324C55.517 12.4646 54.7431 11.0714 53.8262 9.77823C51.3597 6.3079 47.9452 3.66127 44.0122 2.17124C40.0792 0.681216 35.8033 0.414339 31.7225 1.40417C27.6416 2.39401 23.938 4.59634 21.0775 7.73418C18.2169 10.872 16.3271 14.8052 15.646 19.039C15.6108 19.2569 15.618 19.4798 15.667 19.6949C15.7161 19.91 15.8061 20.1131 15.9319 20.2926C16.0577 20.4721 16.2168 20.6245 16.4001 20.7411C16.5835 20.8577 16.7876 20.9362 17.0006 20.972Z" fill="#4C4C4C"/>
<path d="M15.9932 31.7727L17.2313 31.4199C17.2525 31.5052 17.2803 31.5887 17.3144 31.6695C17.9679 33.1334 18.783 34.5159 19.7437 35.7901C21.7159 38.4443 24.261 40.5964 27.1803 42.0782C30.0997 43.56 33.3143 44.3315 36.5732 44.3325C38.5188 44.3313 40.4551 44.0592 42.329 43.5237C46.1658 42.4467 49.6275 40.2836 52.316 37.2832C55.0046 34.2828 56.8108 30.5669 57.5267 26.5629C57.569 26.3448 57.5686 26.1203 57.5256 25.9024C57.4825 25.6844 57.3976 25.4774 57.2758 25.2933C57.154 25.1091 56.9977 24.9515 56.8159 24.8296C56.6342 24.7076 56.4307 24.6238 56.2171 24.5828C56.0035 24.5419 55.784 24.5447 55.5715 24.5911C55.3589 24.6375 55.1575 24.7265 54.9788 24.8531C54.8001 24.9797 54.6477 25.1412 54.5305 25.3284C54.4132 25.5156 54.3334 25.7248 54.2957 25.9437C53.6578 29.4386 52.0434 32.6694 49.6478 35.2449C47.2523 37.8205 44.1784 39.6303 40.7982 40.4555C37.418 41.2806 33.8765 41.0856 30.6024 39.8941C27.3283 38.7026 24.4619 36.5656 22.3504 33.7419C21.5961 32.7384 20.9486 31.6556 20.4187 30.5117L21.0926 30.3197C21.3228 30.2541 21.532 30.1278 21.6994 29.9534C21.8668 29.779 21.9865 29.5627 22.0464 29.3261C22.1063 29.0895 22.1043 28.8409 22.0407 28.6053C21.9771 28.3697 21.8541 28.1553 21.684 27.9837L17.8959 24.1614C17.7251 23.989 17.5129 23.8658 17.2806 23.8043C17.0484 23.7428 16.8044 23.745 16.5733 23.8109C16.3422 23.8768 16.1321 24.0038 15.9644 24.1793C15.7967 24.3549 15.6773 24.5726 15.6182 24.8104L14.3067 30.0857C14.2478 30.3226 14.2508 30.5711 14.3154 30.8065C14.38 31.0418 14.5039 31.2556 14.6747 31.4265C14.8455 31.5974 15.0573 31.7193 15.2887 31.7801C15.5201 31.8409 15.7631 31.8383 15.9932 31.7727Z" fill="#4C4C4C"/>
</svg>
