<svg width="67" height="74" viewBox="0 0 67 74" fill="none" xmlns="http://www.w3.org/2000/svg">
<path d="M45.301 69.6811H5.98896C5.36814 69.6803 4.77298 69.4276 4.33404 68.9784C3.8951 68.5293 3.64825 67.9203 3.64758 67.2852V10.1591C3.64833 9.52397 3.89524 8.91512 4.33418 8.46604C4.77311 8.01696 5.3682 7.76433 5.98896 7.76355H10.8828V8.81703C10.8837 9.61762 11.1948 10.3852 11.7481 10.9513C12.3014 11.5175 13.0517 11.836 13.8342 11.8369H17.3257C18.1082 11.836 18.8584 11.5175 19.4117 10.9513C19.965 10.3852 20.2762 9.61762 20.277 8.81703V7.76065H32.705V8.81696C32.7058 9.61755 33.0171 10.3851 33.5704 10.9513C34.1237 11.5174 34.8739 11.8359 35.6564 11.8368H39.1478C39.9304 11.8359 40.6806 11.5174 41.2339 10.9513C41.7872 10.3851 42.0985 9.61756 42.0993 8.81696V7.76308H46.9993C47.6199 7.76484 48.2144 8.01831 48.6525 8.46792C49.0906 8.91753 49.3366 9.52656 49.3364 10.1614V34.9392C49.3364 35.16 49.3789 35.3787 49.4615 35.5827C49.5441 35.7867 49.6651 35.9721 49.8178 36.1282C49.9704 36.2844 50.1516 36.4083 50.351 36.4928C50.5505 36.5773 50.7642 36.6208 50.98 36.6208C51.1959 36.6208 51.4096 36.5773 51.6091 36.4928C51.8085 36.4083 51.9897 36.2844 52.1423 36.1282C52.2949 35.9721 52.416 35.7867 52.4986 35.5827C52.5812 35.3787 52.6237 35.16 52.6237 34.9392V10.1615C52.6229 8.635 52.0303 7.17117 50.976 6.09108C49.9216 5.011 48.4915 4.40287 46.9995 4.40009H42.0991V3.3434C42.0983 2.54279 41.7871 1.7752 41.2338 1.20904C40.6805 0.642886 39.9303 0.324401 39.1477 0.323474H35.6564C34.8738 0.324421 34.1236 0.642912 33.5704 1.20906C33.0171 1.77522 32.7058 2.5428 32.705 3.3434V4.39742H20.277V3.34317C20.2762 2.54257 19.965 1.77498 19.4117 1.20883C18.8584 0.642679 18.1082 0.324189 17.3257 0.323242H13.8342C13.0517 0.324189 12.3014 0.642679 11.7481 1.20883C11.1948 1.77498 10.8837 2.54257 10.8828 3.34317V4.40023H5.98896C4.49664 4.4019 3.0659 5.00915 2.01068 6.08874C0.955463 7.16832 0.361966 8.63207 0.360352 10.1588V67.285C0.361966 68.8118 0.955473 70.2756 2.01068 71.3552C3.06589 72.4349 4.49661 73.0422 5.98896 73.0439H45.3008C45.7368 73.0439 46.1548 72.8668 46.4631 72.5514C46.7713 72.2361 46.9445 71.8083 46.9445 71.3623C46.9445 70.9163 46.7713 70.4886 46.4631 70.1732C46.1548 69.8579 45.7369 69.6811 45.301 69.6811ZM38.8121 3.68694V6.06572L38.8104 6.082L38.8121 6.09828V8.47417H35.9923V6.09173L35.9935 6.07956L35.9923 6.0673V3.68694H38.8121ZM14.1703 3.68694H16.99V8.47417H14.1702L14.1703 3.68694Z" fill="#4C4C4C"/>
<path d="M16.0073 44.373C16.0073 43.927 15.8341 43.4993 15.5258 43.1839C15.2175 42.8686 14.7995 42.6914 14.3636 42.6914H8.49136C8.05543 42.6914 7.63732 42.8686 7.32907 43.1839C7.02082 43.4993 6.84766 43.927 6.84766 44.373V50.3807C6.84766 50.8267 7.02082 51.2545 7.32907 51.5698C7.63732 51.8852 8.05543 52.0624 8.49136 52.0624H14.3636C14.7995 52.0624 15.2175 51.8852 15.5258 51.5698C15.8341 51.2545 16.0073 50.8267 16.0073 50.3807V44.373ZM12.7198 48.6992H10.1349V46.0546H12.7198V48.6992Z" fill="#4C4C4C"/>
<path d="M14.3636 56.5566H8.49136C8.27551 56.5566 8.06174 56.6001 7.86232 56.6846C7.6629 56.7691 7.4817 56.893 7.32907 57.0492C7.17644 57.2053 7.05537 57.3907 6.97276 57.5947C6.89016 57.7987 6.84766 58.0174 6.84766 58.2383V64.2461C6.84766 64.4669 6.89016 64.6856 6.97276 64.8896C7.05537 65.0936 7.17644 65.279 7.32907 65.4351C7.4817 65.5913 7.6629 65.7152 7.86232 65.7997C8.06174 65.8842 8.27551 65.9277 8.49136 65.9277H14.3636C14.7995 65.9277 15.2175 65.7505 15.5258 65.4351C15.8341 65.1198 16.0073 64.6921 16.0073 64.2461V58.2383C16.0073 57.7923 15.8341 57.3645 15.5258 57.0492C15.2175 56.7338 14.7995 56.5566 14.3636 56.5566ZM12.7198 62.5644H10.1349V59.9197H12.7198V62.5644Z" fill="#4C4C4C"/>
<path d="M44.4938 17.9668H20.7501C20.3142 17.9668 19.8961 18.144 19.5879 18.4593C19.2796 18.7747 19.1064 19.2024 19.1064 19.6484C19.1064 20.0944 19.2796 20.5221 19.5879 20.8375C19.8961 21.1529 20.3142 21.3301 20.7501 21.3301H44.4938C44.9297 21.3301 45.3478 21.1529 45.6561 20.8375C45.9643 20.5221 46.1375 20.0944 46.1375 19.6484C46.1375 19.2024 45.9643 18.7747 45.6561 18.4593C45.3478 18.144 44.9297 17.9668 44.4938 17.9668Z" fill="#4C4C4C"/>
<path d="M44.4938 31.8311H20.7501C20.3142 31.8311 19.8961 32.0082 19.5879 32.3236C19.2796 32.639 19.1064 33.0667 19.1064 33.5127C19.1064 33.9587 19.2796 34.3864 19.5879 34.7018C19.8961 35.0171 20.3142 35.1943 20.7501 35.1943H44.4938C44.9297 35.1943 45.3478 35.0171 45.6561 34.7018C45.9643 34.3864 46.1375 33.9587 46.1375 33.5127C46.1375 33.0667 45.9643 32.639 45.6561 32.3236C45.3478 32.0082 44.9297 31.8311 44.4938 31.8311Z" fill="#4C4C4C"/>
<path d="M50.9821 38.6631C48.4654 38.665 45.9889 39.3088 43.7766 40.5362C41.5643 41.7636 39.686 43.5359 38.3115 45.6927H20.7482C20.3122 45.6927 19.8942 45.8699 19.5859 46.1853C19.2777 46.5006 19.1045 46.9283 19.1045 47.3743C19.1045 47.8203 19.2777 48.2481 19.5859 48.5634C19.8942 48.8788 20.3122 49.056 20.7482 49.056H36.6965C35.5124 52.4585 35.5498 56.1809 36.8019 59.5578H20.7482C20.3122 59.5578 19.8942 59.735 19.5859 60.0503C19.2777 60.3657 19.1045 60.7934 19.1045 61.2394C19.1045 61.6854 19.2777 62.1132 19.5859 62.4285C19.8942 62.7439 20.3122 62.9211 20.7482 62.9211H38.5006C39.9764 65.1214 41.9828 66.8943 44.3252 68.0682C46.6677 69.242 49.2667 69.7769 51.8706 69.6211C54.4745 69.4652 56.9949 68.6239 59.1876 67.1786C61.3803 65.7333 63.1709 63.7331 64.3859 61.3718C65.6008 59.0104 66.199 56.368 66.1225 53.7006C66.0459 51.0332 65.2972 48.4313 63.9489 46.1469C62.6006 43.8626 60.6983 41.9733 58.4265 40.6621C56.1548 39.3509 53.5905 38.6624 50.9821 38.6631ZM50.9821 66.2933C48.6365 66.2932 46.3435 65.5816 44.3932 64.2484C42.4429 62.9151 40.9228 61.0201 40.0252 58.803C39.1276 56.5859 38.8927 54.1462 39.3503 51.7926C39.8079 49.4389 40.9375 47.277 42.5961 45.5801C44.2547 43.8832 46.3679 42.7275 48.6685 42.2593C50.969 41.7912 53.3536 42.0314 55.5207 42.9497C57.6878 43.8681 59.5401 45.4232 60.8433 47.4186C62.1465 49.4139 62.8421 51.7597 62.8421 54.1595C62.8385 57.3764 61.5879 60.4606 59.3645 62.7353C57.1411 65.01 54.1265 66.2896 50.9821 66.2933Z" fill="#4C4C4C"/>
<path d="M57.7608 52.4781H52.5647V45.5947C52.5647 45.3739 52.5222 45.1552 52.4396 44.9512C52.357 44.7471 52.2359 44.5618 52.0833 44.4056C51.9307 44.2495 51.7495 44.1256 51.55 44.0411C51.3506 43.9566 51.1369 43.9131 50.921 43.9131C50.7052 43.9131 50.4914 43.9566 50.292 44.0411C50.0926 44.1256 49.9114 44.2495 49.7588 44.4056C49.6061 44.5618 49.4851 44.7471 49.4025 44.9512C49.3198 45.1552 49.2773 45.3739 49.2773 45.5947V54.1596C49.2773 54.6056 49.4505 55.0334 49.7588 55.3487C50.067 55.6641 50.4851 55.8413 50.921 55.8413H57.7607C58.1966 55.8413 58.6147 55.6641 58.9229 55.3487C59.2312 55.0334 59.4044 54.6056 59.4044 54.1596C59.4044 53.7136 59.2312 53.2859 58.9229 52.9705C58.6147 52.6552 58.1967 52.4781 57.7608 52.4781Z" fill="#4C4C4C"/>
<path d="M16.7418 16.5942C16.5892 16.4381 16.408 16.3141 16.2086 16.2296C16.0092 16.1451 15.7955 16.1016 15.5797 16.1016C15.3639 16.1016 15.1501 16.1451 14.9507 16.2296C14.7514 16.3141 14.5702 16.4381 14.4176 16.5942L10.9369 20.1548L9.14801 18.325C8.83794 18.0191 8.42288 17.8499 7.99212 17.8539C7.56135 17.8579 7.14932 18.0347 6.84472 18.3463C6.54011 18.658 6.36725 19.0795 6.36335 19.5202C6.35945 19.9609 6.52484 20.3856 6.82388 20.7028L9.77482 23.7219C9.92739 23.8781 10.1085 24.002 10.3079 24.0865C10.5073 24.1711 10.7211 24.2146 10.9369 24.2146C11.1528 24.2146 11.3665 24.1711 11.5659 24.0865C11.7653 24.002 11.9464 23.8781 12.099 23.7219L16.7417 18.972C16.8944 18.816 17.0155 18.6306 17.0981 18.4266C17.1807 18.2226 17.2233 18.004 17.2233 17.7832C17.2233 17.5623 17.1808 17.3437 17.0982 17.1397C17.0155 16.9357 16.8944 16.7503 16.7418 16.5942Z" fill="#4C4C4C"/>
<path d="M16.7418 29.3256C16.5892 29.1695 16.408 29.0456 16.2086 28.961C16.0092 28.8765 15.7955 28.833 15.5797 28.833C15.3639 28.833 15.1501 28.8765 14.9507 28.961C14.7514 29.0456 14.5702 29.1695 14.4176 29.3256L10.9369 32.8862L9.14801 31.0565C8.83794 30.7505 8.42288 30.5814 7.99212 30.5854C7.56135 30.5893 7.14932 30.7662 6.84472 31.0778C6.54011 31.3895 6.36725 31.811 6.36335 32.2517C6.35945 32.6924 6.52484 33.1171 6.82388 33.4343L9.77482 36.4533C9.9274 36.6095 10.1086 36.7334 10.308 36.8179C10.5074 36.9025 10.7211 36.946 10.9369 36.946C11.1528 36.946 11.3664 36.9025 11.5658 36.8179C11.7652 36.7334 11.9464 36.6095 12.099 36.4533L16.7417 31.7035C16.8944 31.5474 17.0155 31.3621 17.0981 31.1581C17.1807 30.9541 17.2233 30.7354 17.2233 30.5146C17.2233 30.2938 17.1808 30.0751 17.0982 29.8711C17.0155 29.6671 16.8944 29.4818 16.7418 29.3256Z" fill="#4C4C4C"/>
</svg>
