<svg width="81" height="85" viewBox="0 0 81 85" fill="none" xmlns="http://www.w3.org/2000/svg">
<path d="M40.1273 24.7529C36.1836 24.7503 32.3836 26.267 29.4835 29.001C26.5833 31.735 24.7957 35.486 24.4764 39.5074C24.157 43.5288 25.3294 47.5258 27.7601 50.7029C30.1909 53.88 33.7018 56.0043 37.5941 56.653C37.7405 56.6987 37.8924 56.723 38.0454 56.7253L38.0517 56.7246C39.4278 56.9341 40.8266 56.9341 42.2027 56.7246L42.2091 56.7253C42.3621 56.723 42.514 56.6986 42.6604 56.6529C46.5526 56.0041 50.0634 53.8798 52.4941 50.7027C54.9247 47.5256 56.097 43.5287 55.7777 39.5074C55.4583 35.4861 53.6708 31.7352 50.7707 29.0011C47.8707 26.2671 44.0708 24.7505 40.1273 24.7529ZM40.5655 53.4959C40.4188 53.5011 40.2754 53.5187 40.1273 53.5187C39.9791 53.5187 39.8357 53.5012 39.689 53.4959V42.4345C39.8314 42.4776 39.9788 42.5007 40.1273 42.503H40.1347C40.2806 42.5009 40.4256 42.4787 40.5657 42.437L40.5655 53.4959ZM43.8528 52.9328V40.1799C43.8542 39.8864 43.9693 39.6054 44.1728 39.3986C44.3764 39.1917 44.6518 39.0759 44.9387 39.0765H46.1325C46.418 39.079 46.6911 39.1967 46.8921 39.4041C47.0932 39.6115 47.206 39.8918 47.206 40.1839C47.206 40.4761 47.0932 40.7564 46.8921 40.9638C46.6911 41.1712 46.418 41.2889 46.1325 41.2913C45.6966 41.2913 45.2785 41.4685 44.9703 41.7839C44.662 42.0992 44.4888 42.527 44.4888 42.973C44.4888 43.419 44.662 43.8467 44.9703 44.162C45.2785 44.4774 45.6966 44.6546 46.1325 44.6546C46.7094 44.6595 47.2814 44.5474 47.8157 44.3249C48.3501 44.1025 48.836 43.7739 49.2456 43.3584C49.6552 42.9428 49.9803 42.4483 50.2022 41.9035C50.424 41.3587 50.5382 40.7744 50.5382 40.1842C50.5382 39.594 50.424 39.0097 50.2022 38.4649C49.9803 37.9201 49.6552 37.4256 49.2456 37.0101C48.836 36.5945 48.3501 36.2659 47.8157 36.0435C47.2814 35.821 46.7094 35.709 46.1325 35.7138H44.9386C43.9411 35.7148 42.9738 36.0642 42.1969 36.7043C41.4201 37.3443 40.8801 38.2366 40.6665 39.2334L40.6398 39.225C40.6186 39.2178 40.598 39.211 40.5764 39.2048C40.2531 39.1003 39.9049 39.1104 39.588 39.2334C39.3744 38.2366 38.8344 37.3442 38.0574 36.7042C37.2805 36.0641 36.3131 35.7147 35.3156 35.7138H34.1219C32.9693 35.7236 31.8671 36.1988 31.0554 37.0361C30.2437 37.8734 29.7883 39.0049 29.7883 40.1842C29.7883 41.3635 30.2437 42.495 31.0554 43.3323C31.8671 44.1696 32.9693 44.6449 34.1219 44.6546C34.5578 44.6546 34.9759 44.4774 35.2842 44.162C35.5924 43.8467 35.7656 43.419 35.7656 42.973C35.7656 42.527 35.5924 42.0992 35.2842 41.7839C34.9759 41.4685 34.5578 41.2913 34.1219 41.2913C33.979 41.2925 33.8373 41.2648 33.7049 41.2097C33.5726 41.1546 33.4522 41.0732 33.3507 40.9703C33.2492 40.8673 33.1687 40.7448 33.1137 40.6099C33.0588 40.4749 33.0305 40.3301 33.0305 40.1839C33.0305 40.0377 33.0588 39.893 33.1137 39.758C33.1687 39.6231 33.2492 39.5006 33.3507 39.3976C33.4522 39.2947 33.5726 39.2133 33.7049 39.1582C33.8373 39.1031 33.979 39.0753 34.1219 39.0765H35.3156C35.6026 39.0758 35.8781 39.1916 36.0818 39.3984C36.2854 39.6053 36.4005 39.8863 36.4019 40.1799V52.9333C33.5726 52.0227 31.1555 50.1059 29.588 47.5298C28.0205 44.9538 27.4063 41.8887 27.8565 38.8894C28.3067 35.8901 29.7917 33.1548 32.0425 31.1787C34.2933 29.2026 37.1613 28.1162 40.1273 28.1162C43.0933 28.1162 45.9613 29.2026 48.2121 31.1787C50.463 33.1548 51.9479 35.8901 52.3981 38.8894C52.8484 41.8887 52.2341 44.9538 50.6667 47.5298C49.0992 50.1059 46.6821 52.0222 43.8528 52.9328Z" fill="#4C4C4C"/>
<path d="M66.9557 46.9678C67.3916 46.9678 67.8097 46.7906 68.1179 46.4752C68.4262 46.1599 68.5993 45.7322 68.5993 45.2862V36.3497C68.5993 35.9037 68.4262 35.4759 68.1179 35.1606C67.8097 34.8452 67.3916 34.668 66.9557 34.668H64.5468C63.9427 32.1418 62.9627 29.7255 61.6413 27.5038L63.3474 25.7578C63.5001 25.6017 63.6212 25.4164 63.7038 25.2124C63.7865 25.0084 63.829 24.7897 63.829 24.5689C63.829 24.3481 63.7865 24.1294 63.7038 23.9254C63.6212 23.7214 63.5001 23.5361 63.3474 23.38L57.171 17.0606C56.8569 16.7567 56.4411 16.5874 56.0088 16.5874C55.5765 16.5874 55.1606 16.7567 54.8465 17.0606L53.1403 18.8067C50.9687 17.4548 48.6069 16.4522 46.1377 15.834V13.3691C46.1377 12.9231 45.9645 12.4954 45.6562 12.18C45.348 11.8647 44.9299 11.6875 44.494 11.6875H35.7592C35.3232 11.6875 34.9051 11.8647 34.5969 12.18C34.2886 12.4954 34.1155 12.9231 34.1155 13.3691V15.834C31.6461 16.4523 29.2842 17.4549 27.1124 18.8067L25.4062 17.0606C25.2536 16.9045 25.0724 16.7806 24.873 16.6961C24.6735 16.6116 24.4598 16.5681 24.2439 16.5681C24.0281 16.5681 23.8143 16.6116 23.6149 16.6961C23.4155 16.7806 23.2343 16.9045 23.0816 17.0606L16.9052 23.38C16.7526 23.5361 16.6315 23.7215 16.5489 23.9255C16.4662 24.1295 16.4237 24.3481 16.4237 24.5689C16.4237 24.7897 16.4662 25.0084 16.5489 25.2124C16.6315 25.4164 16.7526 25.6017 16.9052 25.7578L18.6115 27.5038C17.2902 29.7256 16.3103 32.1419 15.7059 34.668H13.297C12.8611 34.668 12.443 34.8452 12.1347 35.1606C11.8265 35.4759 11.6533 35.9037 11.6533 36.3497V45.2862C11.6533 45.7322 11.8265 46.16 12.1347 46.4753C12.443 46.7907 12.8611 46.9678 13.297 46.9678H15.7059C16.3103 49.494 17.2902 51.9102 18.6115 54.1321L16.9049 55.8785C16.5967 56.1939 16.4236 56.6215 16.4236 57.0674C16.4236 57.5133 16.5967 57.941 16.9049 58.2563L23.0813 64.5753C23.2338 64.7314 23.415 64.8553 23.6144 64.9399C23.8138 65.0244 24.0275 65.0679 24.2433 65.0679C24.4592 65.0679 24.6729 65.0244 24.8723 64.9399C25.0717 64.8553 25.2528 64.7314 25.4054 64.5753L27.1137 62.828C27.3596 62.9799 27.6081 63.1275 27.8593 63.271C28.0778 63.3912 28.261 63.5688 28.3902 63.7856C28.5193 64.0023 28.5896 64.2504 28.5939 64.5042V67.9788C28.5951 69.0252 29.0019 70.0284 29.7252 70.7683C30.4484 71.5083 31.429 71.9245 32.4518 71.9257H47.8005C48.8234 71.9246 49.804 71.5084 50.5273 70.7685C51.2506 70.0285 51.6575 69.0253 51.6587 67.9788V64.5045C51.663 64.2507 51.7332 64.0027 51.8623 63.7859C51.9914 63.5692 52.1746 63.3916 52.393 63.2713C52.6439 63.1284 52.8924 62.9807 53.1387 62.8283L54.8468 64.5756C54.9994 64.7317 55.1806 64.8556 55.38 64.9402C55.5794 65.0247 55.7931 65.0682 56.0089 65.0682C56.2248 65.0682 56.4385 65.0247 56.6379 64.9402C56.8373 64.8556 57.0185 64.7317 57.171 64.5756L63.3474 58.2566C63.6556 57.9413 63.8288 57.5137 63.8289 57.0678C63.829 56.6219 63.656 56.1943 63.3479 55.8788L61.6413 54.1324C62.9627 51.9107 63.9427 49.4944 64.5468 46.9681L66.9557 46.9678ZM61.6067 44.9742C61.0523 47.9998 59.8867 50.8737 58.1843 53.412C57.968 53.7357 57.8691 54.1265 57.9046 54.5169C57.94 54.9073 58.1077 55.2727 58.3785 55.5501L59.8612 57.067L56.0086 61.0077L54.5263 59.4917C54.2553 59.2144 53.898 59.0427 53.5164 59.0064C53.1348 58.97 52.7527 59.0712 52.4363 59.2925C51.9098 59.6607 51.3565 60.0114 50.7911 60.3336C50.0616 60.7457 49.4528 61.3494 49.0274 62.0824C48.602 62.8155 48.3754 63.6513 48.371 64.5038V67.9788C48.3708 68.1337 48.3106 68.2821 48.2035 68.3916C48.0965 68.501 47.9514 68.5626 47.8 68.5627H32.4522C32.3009 68.5625 32.1559 68.5009 32.0489 68.3914C31.942 68.282 31.8818 68.1336 31.8816 67.9788V64.5045C31.877 63.6519 31.6503 62.816 31.2248 62.0829C30.7992 61.3498 30.1903 60.7461 29.4608 60.3339C28.8962 60.012 28.3428 59.6619 27.8159 59.2932C27.4995 59.0718 27.1175 58.9705 26.7358 59.0068C26.3541 59.0432 25.9969 59.215 25.726 59.4924L24.2437 61.0084L20.3914 57.0677L21.8742 55.5508C22.145 55.2734 22.3126 54.9079 22.3481 54.5175C22.3836 54.1271 22.2846 53.7363 22.0684 53.4127C20.3662 50.8743 19.2005 48.0004 18.6458 44.9749C18.5748 44.5898 18.3745 44.2422 18.0796 43.9922C17.7848 43.7421 17.4138 43.6052 17.0308 43.6052H14.9408V38.0318H17.0308C17.4138 38.0318 17.7848 37.8949 18.0796 37.6448C18.3745 37.3948 18.5748 37.0472 18.6458 36.6622C19.2006 33.6366 20.3662 30.7628 22.0684 28.2244C22.2847 27.9007 22.3836 27.5098 22.3481 27.1194C22.3125 26.7289 22.1447 26.3635 21.8737 26.0862L20.3918 24.5696L24.2437 20.6286L25.7256 22.1451C25.9966 22.4225 26.3538 22.5942 26.7354 22.6306C27.1171 22.6669 27.4992 22.5656 27.8155 22.3442C30.2968 20.6029 33.1059 19.4103 36.0633 18.8428C36.4397 18.7701 36.7794 18.5652 37.0238 18.2635C37.2682 17.9618 37.402 17.5822 37.402 17.1904V15.0514H42.8497V17.1904C42.8497 17.5822 42.9835 17.9618 43.2279 18.2635C43.4723 18.5652 43.8121 18.7701 44.1884 18.8428C47.1458 19.4099 49.9549 20.6025 52.4358 22.3442C52.7523 22.5656 53.1345 22.6669 53.5163 22.6305C53.898 22.5942 54.2554 22.4225 54.5265 22.1451L56.0083 20.6286L59.8601 24.5696L58.3782 26.0862C58.1072 26.3635 57.9394 26.7289 57.9039 27.1194C57.8684 27.5098 57.9673 27.9007 58.1837 28.2244C59.8861 30.7626 61.0517 33.6365 61.6061 36.6622C61.6772 37.0472 61.8774 37.3948 62.1723 37.6449C62.4672 37.8949 62.8382 38.0318 63.2212 38.0318H65.3112V43.6052H63.2212C62.8384 43.6053 62.4676 43.7422 62.1729 43.9921C61.8781 44.242 61.6779 44.5893 61.6067 44.9742Z" fill="#4C4C4C"/>
<path d="M51.8644 14.0663C52.0623 14.1547 52.2752 14.2024 52.4911 14.2065C52.7069 14.2106 52.9215 14.1711 53.1224 14.0902C53.3233 14.0094 53.5066 13.8888 53.6619 13.7353C53.8172 13.5819 53.9413 13.3986 54.0273 13.1959L58.1351 3.54518C58.2259 3.342 58.2763 3.12234 58.2832 2.89903C58.2901 2.67571 58.2535 2.45322 58.1754 2.24456C58.0973 2.0359 57.9794 1.84523 57.8285 1.68372C57.6776 1.52221 57.4968 1.39309 57.2965 1.30389C57.0963 1.21469 56.8807 1.16721 56.6623 1.16421C56.444 1.16122 56.2272 1.20279 56.0247 1.28647C55.8222 1.37015 55.6381 1.49426 55.483 1.65158C55.3279 1.8089 55.2051 1.99627 55.1216 2.20272L51.0137 11.8535C50.9275 12.056 50.8811 12.2738 50.8772 12.4946C50.8733 12.7153 50.912 12.9347 50.991 13.1402C51.07 13.3457 51.1878 13.5333 51.3377 13.6922C51.4875 13.8511 51.6665 13.9782 51.8644 14.0663Z" fill="#4C4C4C"/>
<path d="M10.6377 51.708L1.06333 55.557C0.859626 55.6357 0.673222 55.755 0.514948 55.9079C0.356675 56.0609 0.229683 56.2445 0.141348 56.4481C0.0530142 56.6517 0.00510286 56.8712 0.000385842 57.0939C-0.00433117 57.3166 0.0342425 57.5381 0.113873 57.7454C0.193504 57.9527 0.312606 58.1418 0.464254 58.3016C0.615901 58.4615 0.797075 58.5889 0.997258 58.6765C1.19744 58.7641 1.41264 58.8101 1.63036 58.8119C1.84808 58.8137 2.06398 58.7713 2.26552 58.687L11.8399 54.8378C12.0439 54.7594 12.2306 54.6403 12.3892 54.4874C12.5478 54.3344 12.6751 54.1507 12.7636 53.947C12.8522 53.7433 12.9003 53.5236 12.9051 53.3007C12.9099 53.0778 12.8713 52.8561 12.7916 52.6486C12.7119 52.4411 12.5926 52.2519 12.4408 52.0919C12.2889 51.932 12.1075 51.8046 11.9071 51.7171C11.7067 51.6295 11.4912 51.5836 11.2733 51.5821C11.0554 51.5805 10.8393 51.6233 10.6377 51.708Z" fill="#4C4C4C"/>
<path d="M80.1185 25.5527C79.9591 25.1377 79.645 24.8045 79.2454 24.6263C78.8458 24.4482 78.3935 24.4397 77.9878 24.6028L68.4133 28.4519C68.2094 28.5305 68.0228 28.6497 67.8644 28.8026C67.7059 28.9556 67.5787 29.1392 67.4903 29.3429C67.4018 29.5466 67.3538 29.7662 67.349 29.989C67.3443 30.2119 67.3829 30.4334 67.4625 30.6409C67.5422 30.8483 67.6614 31.0375 67.8132 31.1974C67.965 31.3572 68.1463 31.4847 68.3466 31.5722C68.547 31.6598 68.7623 31.7057 68.9802 31.7074C69.198 31.709 69.414 31.6663 69.6156 31.5818L79.19 27.7327C79.5956 27.5695 79.9214 27.2482 80.0955 26.8394C80.2696 26.4306 80.2779 25.9678 80.1185 25.5527Z" fill="#4C4C4C"/>
<path d="M1.58066 26.3046L11.0058 30.5073C11.2036 30.5956 11.4166 30.6431 11.6324 30.6472C11.8482 30.6512 12.0627 30.6117 12.2636 30.531C12.4645 30.4503 12.6479 30.3298 12.8034 30.1766C12.9588 30.0233 13.0832 29.8402 13.1694 29.6378C13.2557 29.4354 13.3021 29.2175 13.3061 28.9967C13.3101 28.7759 13.2715 28.5565 13.1926 28.3509C13.1137 28.1453 12.9959 27.9577 12.8461 27.7987C12.6963 27.6397 12.5174 27.5124 12.3195 27.4242L2.89435 23.2212C2.69648 23.1329 2.48356 23.0854 2.26774 23.0813C2.05192 23.0773 1.83742 23.1168 1.63651 23.1975C1.4356 23.2782 1.2522 23.3987 1.09678 23.5519C0.941359 23.7052 0.816964 23.8882 0.730701 24.0907C0.644439 24.2931 0.598003 24.511 0.594029 24.7318C0.590054 24.9526 0.62862 25.172 0.707539 25.3776C0.786458 25.5831 0.904184 25.7707 1.05398 25.9297C1.20378 26.0887 1.38279 26.2164 1.58066 26.3046Z" fill="#4C4C4C"/>
<path d="M78.6794 56.9777L69.2464 52.7754C69.0478 52.6825 68.8331 52.631 68.6148 52.6239C68.3965 52.6168 68.179 52.6543 67.9751 52.7342C67.7711 52.814 67.5847 52.9347 67.4269 53.0891C67.269 53.2434 67.1428 53.4285 67.0556 53.6333C66.9684 53.8382 66.922 54.0587 66.9191 54.2821C66.9162 54.5056 66.9568 54.7273 67.0386 54.9345C67.1204 55.1416 67.2417 55.3301 67.3955 55.4887C67.5492 55.6474 67.7324 55.7731 67.9341 55.8585L77.3672 60.0608C77.5658 60.1534 77.7804 60.2047 77.9985 60.2116C78.2166 60.2185 78.4339 60.1808 78.6376 60.1009C78.8414 60.021 79.0276 59.9003 79.1853 59.746C79.343 59.5917 79.4691 59.4068 79.5562 59.2021C79.6433 58.9974 79.6897 58.777 79.6927 58.5538C79.6957 58.3305 79.6552 58.1089 79.5736 57.9019C79.492 57.6948 79.3709 57.5064 79.2173 57.3478C79.0638 57.1891 78.881 57.0633 78.6794 56.9777Z" fill="#4C4C4C"/>
<path d="M27.2316 12.6975C27.3911 13.1126 27.7053 13.4458 28.1049 13.6239C28.5046 13.802 28.9571 13.8104 29.3628 13.6472C29.7685 13.4839 30.0942 13.1625 30.2683 12.7536C30.4423 12.3447 30.4505 11.8818 30.291 11.4667L26.5287 1.67965C26.4499 1.47385 26.3322 1.28596 26.1824 1.12673C26.0325 0.967497 25.8535 0.840045 25.6555 0.751659C25.4575 0.663274 25.2444 0.615673 25.0284 0.611612C24.8124 0.607551 24.5977 0.647114 24.3967 0.727997C24.1956 0.80888 24.0121 0.929511 23.8567 1.083C23.7012 1.2365 23.5769 1.41983 23.4908 1.62253C23.4046 1.82522 23.3584 2.0433 23.3547 2.26429C23.351 2.48528 23.39 2.70484 23.4693 2.91043L27.2316 12.6975Z" fill="#4C4C4C"/>
<path d="M48.859 75.1045H31.3937C30.9578 75.1045 30.5397 75.2817 30.2314 75.597C29.9232 75.9124 29.75 76.3401 29.75 76.7861C29.75 77.2321 29.9232 77.6598 30.2314 77.9752C30.5397 78.2906 30.9578 78.4677 31.3937 78.4677H48.859C49.2949 78.4677 49.713 78.2906 50.0213 77.9752C50.3295 77.6598 50.5027 77.2321 50.5027 76.7861C50.5027 76.3401 50.3295 75.9124 50.0213 75.597C49.713 75.2817 49.2949 75.1045 48.859 75.1045Z" fill="#4C4C4C"/>
<path d="M46.2384 81H33.6437C33.2078 81 32.7897 81.1772 32.4814 81.4925C32.1732 81.8079 32 82.2356 32 82.6816C32 83.1276 32.1732 83.5553 32.4814 83.8707C32.7897 84.1861 33.2078 84.3632 33.6437 84.3632H46.2384C46.6744 84.3632 47.0924 84.1861 47.4007 83.8707C47.7089 83.5553 47.8821 83.1276 47.8821 82.6816C47.8821 82.2356 47.7089 81.8079 47.4007 81.4925C47.0924 81.1772 46.6744 81 46.2384 81Z" fill="#4C4C4C"/>
</svg>
