<svg width="82" height="68" viewBox="0 0 82 68" fill="none" xmlns="http://www.w3.org/2000/svg">
<path d="M66.1166 42.562C66.0075 42.5391 65.8963 42.5276 65.7849 42.5276L65.7809 42.5281H3.45928V14.3566C3.46125 13.369 3.84609 12.4227 4.52933 11.7251C5.21257 11.0275 6.13841 10.6357 7.10368 10.6357H38.5731C39.009 10.6357 39.4271 10.4585 39.7353 10.1432C40.0436 9.8278 40.2167 9.40007 40.2167 8.95408C40.2167 8.50808 40.0436 8.08037 39.7353 7.76501C39.4271 7.44964 39.009 7.27246 38.5731 7.27246H7.10368C5.26689 7.27361 3.50552 8.0201 2.20602 9.34816C0.906522 10.6762 0.174967 12.4774 0.171875 14.3566V47.7125C0.174967 49.5917 0.906522 51.3928 2.20602 52.7209C3.50552 54.049 5.26689 54.7955 7.10368 54.7966H21.5187L19.9253 57.8543H18.1796C16.3907 57.8564 14.6756 58.5845 13.4108 59.8787C12.1459 61.1729 11.4344 62.9276 11.4325 64.7578V65.4731C11.4325 65.9191 11.6057 66.3468 11.914 66.6622C12.2222 66.9775 12.6404 67.1547 13.0763 67.1547H54.5285C54.9644 67.1547 55.3825 66.9775 55.6907 66.6622C55.999 66.3468 56.1722 65.9191 56.1722 65.4731V64.7578C56.1701 62.9275 55.4585 61.1728 54.1935 59.8786C52.9285 58.5844 51.2133 57.8564 49.4243 57.8543H47.6795L46.086 54.7966H60.5043C62.3401 54.7944 64.1001 54.0474 65.3982 52.7193C66.6963 51.3913 67.4265 49.5907 67.4286 47.7125V44.242C67.4286 44.2309 67.4318 44.2205 67.4318 44.2094C67.4316 43.8218 67.3007 43.4462 67.0611 43.146C66.8214 42.8458 66.4878 42.6395 66.1166 42.562ZM52.754 63.7915H14.8506C15.0571 63.0508 15.4937 62.399 16.0942 61.9347C16.6948 61.4703 17.4268 61.2185 18.1796 61.2174H49.4245C50.1773 61.2184 50.9094 61.4701 51.5101 61.9344C52.1107 62.3987 52.5473 63.0508 52.754 63.7915ZM23.6505 57.8543L25.2428 54.7987H42.3619L43.9541 57.8543H23.6505ZM60.5041 51.4336H7.10368C6.13841 51.4336 5.21257 51.0418 4.52933 50.3442C3.84609 49.6467 3.46125 48.7003 3.45928 47.7127V45.8909H64.1413V47.7125C64.1401 48.699 63.7565 49.6447 63.0747 50.3422C62.3928 51.0397 61.4684 51.4325 60.5041 51.4336Z" fill="#4C4C4C"/>
<path d="M33.5061 50.4287C34.4592 50.4287 35.2319 49.6382 35.2319 48.6631C35.2319 47.688 34.4592 46.8975 33.5061 46.8975C32.553 46.8975 31.7803 47.688 31.7803 48.6631C31.7803 49.6382 32.553 50.4287 33.5061 50.4287Z" fill="#4C4C4C"/>
<path d="M8.32734 15.42C7.89141 15.42 7.4733 15.5972 7.16505 15.9125C6.8568 16.2279 6.68359 16.6556 6.68359 17.1016V37.8003C6.68359 38.2463 6.8568 38.674 7.16505 38.9894C7.4733 39.3048 7.89141 39.482 8.32734 39.482H41.4973C41.9332 39.482 42.3513 39.3048 42.6596 38.9894C42.9678 38.674 43.141 38.2463 43.141 37.8003C43.141 37.3543 42.9678 36.9266 42.6596 36.6112C42.3513 36.2959 41.9332 36.1187 41.4973 36.1187H38.2631V17.1015C38.2631 16.6555 38.0899 16.2278 37.7816 15.9124C37.4734 15.5971 37.0554 15.4199 36.6194 15.4199H31.8811C31.6653 15.4199 31.4515 15.4634 31.2521 15.5479C31.0527 15.6324 30.8715 15.7563 30.7188 15.9124C30.5662 16.0686 30.4452 16.254 30.3626 16.458C30.28 16.662 30.2375 16.8807 30.2375 17.1015V36.1187H29.0642V24.4683C29.0642 24.0224 28.891 23.5946 28.5827 23.2793C28.2745 22.9639 27.8564 22.7867 27.4204 22.7867H22.6828C22.2468 22.7867 21.8288 22.9639 21.5206 23.2793C21.2123 23.5946 21.0391 24.0224 21.0391 24.4683V36.1187H19.8658V29.9981C19.8658 29.5521 19.6927 29.1243 19.3844 28.809C19.0762 28.4936 18.6581 28.3164 18.2222 28.3164H13.4838C13.0479 28.3164 12.6299 28.4936 12.3216 28.809C12.0134 29.1243 11.8402 29.5521 11.8402 29.9981V36.1187H9.97109V17.1015C9.97108 16.8807 9.9285 16.662 9.84589 16.458C9.76328 16.254 9.64218 16.0686 9.48954 15.9125C9.33691 15.7563 9.15576 15.6325 8.95633 15.548C8.75691 15.4635 8.5432 15.42 8.32734 15.42ZM33.5248 18.7832H34.9759V36.1187H33.5248V18.7832ZM24.326 26.1503H25.7771V36.1187H24.326V26.1503ZM15.1272 31.6798H16.5783V36.1189H15.1272V31.6798Z" fill="#4C4C4C"/>
<path d="M68.2411 10.9735C67.0209 8.99222 65.2539 7.42556 63.1635 6.47155C61.0731 5.51755 58.7532 5.21906 56.497 5.61378C54.2408 6.0085 52.1497 7.07873 50.4879 8.68916C48.8261 10.2996 47.6684 12.378 47.161 14.6615C46.6536 16.945 46.8194 19.3311 47.6374 21.5182C48.4553 23.7054 49.8887 25.5953 51.7564 26.9491C53.6241 28.3029 55.8421 29.0598 58.1302 29.1241C60.4183 29.1884 62.6737 28.5572 64.6112 27.3103C67.2073 25.634 69.0476 22.9725 69.7281 19.9098C70.4086 16.8471 69.8738 13.6333 68.2411 10.9735ZM62.86 24.4645C61.2365 25.5105 59.3087 25.9481 57.4051 25.7029C55.5015 25.4576 53.7399 24.5447 52.4205 23.1196C51.1011 21.6945 50.3055 19.8455 50.1692 17.8875C50.033 15.9296 50.5646 13.9839 51.6734 12.382C52.7822 10.7801 54.3996 9.62106 56.2501 9.10243C58.1005 8.5838 60.0695 8.73765 61.8215 9.53776C63.5735 10.3379 65 11.7347 65.8582 13.4903C66.7163 15.246 66.9529 17.2517 66.5276 19.1657C66.0392 21.3592 64.7203 23.265 62.86 24.4645Z" fill="#4C4C4C"/>
<path d="M80.6367 43.7917L73.5205 32.2277C73.4056 32.0408 73.2558 31.8789 73.0797 31.7513C72.9036 31.6236 72.7045 31.5328 72.4941 31.4838C72.2836 31.4349 72.0658 31.4288 71.853 31.466C71.6403 31.5032 71.4368 31.583 71.2542 31.7007L69.8224 32.6227L68.6826 30.7701C71.7805 28.2951 73.9201 24.7763 74.7209 20.8393C75.5217 16.9024 74.9317 12.8024 73.0561 9.26855C71.1804 5.73464 68.1406 2.99581 64.477 1.53902C60.8134 0.0822266 56.7635 0.00188923 53.0474 1.31231C49.3314 2.62273 46.1901 5.23897 44.1819 8.69584C42.1738 12.1527 41.429 16.2262 42.08 20.1919C42.7311 24.1577 44.7358 27.7587 47.7376 30.3547C50.7394 32.9507 54.5438 34.3735 58.4744 34.37C61.0533 34.3665 63.5955 33.7455 65.8977 32.5566L67.0408 34.4142L65.6098 35.3359C65.4272 35.4536 65.2689 35.6068 65.1442 35.787C65.0194 35.9672 64.9307 36.1708 64.8828 36.3861C64.835 36.6014 64.829 36.8242 64.8654 37.0419C64.9017 37.2595 64.9796 37.4678 65.0946 37.6546L72.2108 49.2185C72.5575 49.7859 73.0109 50.2772 73.5445 50.664C74.0782 51.0508 74.6815 51.3255 75.3196 51.472C75.6848 51.5572 76.0582 51.6003 76.4328 51.6004C77.322 51.598 78.1944 51.3521 78.9593 50.8883C79.7242 50.4245 80.3539 49.7596 80.7828 48.9628C81.2118 48.166 81.4244 47.2662 81.3987 46.3568C81.373 45.4475 81.11 44.5618 80.6367 43.7917ZM55.4713 30.6595C52.447 29.9561 49.7548 28.2017 47.8532 25.6952C45.9516 23.1886 44.9582 20.085 45.0425 16.9132C45.1268 13.7414 46.2835 10.6977 48.3154 8.30057C50.3473 5.90344 53.1288 4.30127 56.186 3.76705C59.2431 3.23284 62.3866 3.79963 65.0811 5.37085C67.7755 6.94207 69.8542 9.42051 70.9627 12.3839C72.0713 15.3472 72.1412 18.6121 71.1606 21.6223C70.18 24.6325 68.2096 27.2017 65.585 28.8922C64.0972 29.8564 62.4371 30.509 60.7011 30.8123C58.9651 31.1157 57.1875 31.0638 55.4713 30.6595ZM77.3245 47.9697C76.945 48.2141 76.4862 48.2943 76.0489 48.1927C75.6115 48.091 75.2316 47.8159 74.9924 47.4278L68.7518 37.2859L71.6145 35.4422L77.8551 45.5829C78.0935 45.9716 78.1715 46.4411 78.072 46.8885C77.9726 47.3359 77.7037 47.7247 77.3245 47.9697Z" fill="#4C4C4C"/>
</svg>
