<svg width="320" height="308" viewBox="0 0 320 308" fill="none" xmlns="http://www.w3.org/2000/svg">
<g clip-path="url(#clip0_547_5066)">
<mask id="mask0_547_5066" style="mask-type:luminance" maskUnits="userSpaceOnUse" x="32" y="84" width="253" height="210">
<path d="M243.851 84.4648L32.1477 140.295L72.6023 293.695L284.305 237.865L243.851 84.4648Z" fill="white"/>
</mask>
<g mask="url(#mask0_547_5066)">
<path d="M83.0753 142.878C91.1339 138.83 98.6323 134.745 105.324 130.912C102.747 130.602 99.4342 130.139 95.1787 129.456C86.2956 133.91 80.28 137.036 71.2734 141.284C76.1672 142.101 80.2483 142.655 83.0753 142.878Z" fill="url(#paint0_linear_547_5066)"/>
<path d="M138.071 112.361C138.071 112.361 115.14 128.698 83.4011 144.595C79.1326 144.302 72.4688 143.259 66.1844 142.115C56.9224 146.925 35.8473 154.324 35.8473 154.324C36.9748 157.344 38.3133 160.286 39.8542 163.128C85.631 250.461 187.014 263.523 187.014 263.523C187.014 263.523 256.381 222.405 269.067 180.084C216.708 178.472 167.341 157.265 138.071 112.361Z" fill="url(#paint1_linear_547_5066)"/>
</g>
<mask id="mask1_547_5066" style="mask-type:luminance" maskUnits="userSpaceOnUse" x="51" y="117" width="136" height="105">
<path d="M166.542 117.012L51.3782 147.383L70.8454 221.201L186.009 190.83L166.542 117.012Z" fill="white"/>
</mask>
<g mask="url(#mask1_547_5066)">
<path d="M56.5947 167.163C87.9832 155.778 119.795 137.404 137.418 124.692C146.299 136.846 162.664 152.849 178.143 161.004C165.089 176.208 126.853 200.047 100.173 213.466C83.3641 204.183 63.6699 177.985 56.5947 167.163Z" fill="url(#paint2_linear_547_5066)"/>
<path d="M125.843 164.204L126.34 157.161L142.781 162.139L135.246 167.052L125.843 164.204ZM109.969 161.879L108.366 184.579L132.647 168.746L109.969 161.879ZM99.7572 168.538C99.1462 168.936 98.6682 169.493 98.3837 170.138C98.0991 170.783 98.0208 171.486 98.1586 172.16C98.2964 172.834 98.6442 173.448 99.1579 173.923C99.6716 174.399 100.328 174.716 101.045 174.833C101.761 174.95 102.505 174.863 103.183 174.582C103.861 174.302 104.442 173.84 104.852 173.256C105.263 172.672 105.484 171.992 105.489 171.301C105.494 170.611 105.282 169.941 104.88 169.377C104.613 169.002 104.269 168.683 103.867 168.438C103.465 168.193 103.013 168.027 102.537 167.949C102.062 167.871 101.571 167.883 101.094 167.984C100.617 168.085 100.163 168.273 99.7572 168.538Z" fill="white"/>
</g>
<mask id="mask2_547_5066" style="mask-type:luminance" maskUnits="userSpaceOnUse" x="111" y="169" width="113" height="88">
<path d="M206.773 169.279L111.43 194.423L127.899 256.872L223.242 231.728L206.773 169.279Z" fill="white"/>
</mask>
<g mask="url(#mask2_547_5066)">
<path d="M120.646 227.131C120.515 227.166 120.376 227.155 120.254 227.101C120.133 227.047 120.038 226.954 119.986 226.837C119.934 226.721 119.928 226.589 119.97 226.466C120.012 226.343 120.098 226.237 120.214 226.167C146.138 210.414 178.494 186.952 193.876 172.752C193.93 172.702 193.994 172.662 194.063 172.634C194.133 172.607 194.208 172.592 194.282 172.592C194.357 172.592 194.431 172.605 194.499 172.632C194.567 172.658 194.629 172.697 194.68 172.747C194.731 172.797 194.772 172.856 194.798 172.921C194.825 172.986 194.837 173.056 194.835 173.126C194.833 173.197 194.816 173.267 194.786 173.332C194.755 173.397 194.711 173.456 194.657 173.506C179.227 187.751 146.788 211.276 120.807 227.063C120.757 227.093 120.703 227.116 120.646 227.131Z" fill="#3E6E5C"/>
<path d="M170.677 245.591C170.547 245.625 170.409 245.615 170.289 245.563C170.168 245.51 170.073 245.418 170.02 245.304C169.966 245.189 169.958 245.059 169.997 244.937C170.036 244.814 170.119 244.707 170.231 244.634C183.12 236.337 201.79 222.566 212.323 211.94C212.428 211.834 212.572 211.771 212.722 211.764C212.873 211.756 213.019 211.806 213.127 211.901C213.236 211.996 213.298 212.13 213.301 212.272C213.304 212.414 213.246 212.553 213.142 212.658C202.546 223.347 183.792 237.183 170.851 245.514C170.798 245.549 170.739 245.574 170.677 245.591Z" fill="#3E6E5C"/>
<path d="M143.824 235.476C143.692 235.51 143.553 235.5 143.432 235.446C143.311 235.392 143.216 235.298 143.164 235.181C143.111 235.065 143.106 234.933 143.148 234.81C143.19 234.687 143.277 234.581 143.393 234.511C170.212 218.278 196.342 198.767 209.959 184.805C210.063 184.699 210.206 184.634 210.357 184.626C210.507 184.617 210.653 184.666 210.763 184.76C210.872 184.854 210.936 184.987 210.94 185.129C210.944 185.271 210.888 185.411 210.784 185.517C197.103 199.544 170.882 219.128 143.984 235.408C143.934 235.438 143.881 235.461 143.824 235.476Z" fill="#3E6E5C"/>
<path d="M132.527 231.839C132.395 231.873 132.257 231.863 132.136 231.81C132.016 231.757 131.92 231.664 131.867 231.549C131.814 231.433 131.808 231.303 131.848 231.18C131.888 231.057 131.973 230.95 132.087 230.879C157.445 214.995 181.071 197.314 200.412 179.745C200.522 179.645 200.669 179.59 200.819 179.59C200.97 179.591 201.112 179.648 201.214 179.748C201.317 179.849 201.371 179.985 201.366 180.127C201.361 180.269 201.296 180.406 201.186 180.506C181.794 198.121 158.11 215.846 132.694 231.766C132.642 231.799 132.586 231.823 132.527 231.839Z" fill="#3E6E5C"/>
<path d="M156.005 240.915C155.875 240.949 155.737 240.939 155.617 240.887C155.496 240.834 155.401 240.742 155.347 240.628C155.294 240.513 155.286 240.383 155.325 240.26C155.364 240.138 155.447 240.031 155.56 239.958C169.954 230.711 185.911 219.736 205.047 202.19C205.101 202.14 205.165 202.101 205.235 202.074C205.305 202.047 205.379 202.033 205.454 202.033C205.529 202.032 205.602 202.046 205.67 202.073C205.738 202.1 205.799 202.139 205.851 202.189C205.902 202.239 205.942 202.298 205.968 202.363C205.994 202.428 206.007 202.498 206.004 202.568C206.002 202.638 205.985 202.708 205.954 202.773C205.924 202.838 205.88 202.898 205.825 202.948C186.624 220.553 170.616 231.563 156.178 240.838C156.125 240.873 156.067 240.898 156.005 240.915Z" fill="#3E6E5C"/>
</g>
<mask id="mask3_547_5066" style="mask-type:luminance" maskUnits="userSpaceOnUse" x="125" y="105" width="11" height="11">
<path d="M133.75 105.623L125.036 107.921L127.105 115.767L135.819 113.469L133.75 105.623Z" fill="white"/>
</mask>
<g mask="url(#mask3_547_5066)">
<path d="M129.317 115.183C129.252 115.2 129.184 115.201 129.12 115.186C129.056 115.171 128.997 115.14 128.951 115.097C128.904 115.054 128.871 114.999 128.854 114.939C128.838 114.879 128.838 114.815 128.856 114.754L131.259 106.47C131.286 106.377 131.351 106.296 131.439 106.246C131.528 106.196 131.633 106.18 131.731 106.202C131.829 106.224 131.913 106.282 131.963 106.363C132.013 106.444 132.026 106.542 131.999 106.635L129.596 114.92C129.578 114.982 129.543 115.039 129.494 115.086C129.445 115.132 129.384 115.166 129.317 115.183Z" fill="#3E6E5C"/>
<path d="M134.964 111.741C134.909 111.756 134.852 111.759 134.796 111.75L125.905 110.35C125.805 110.335 125.717 110.282 125.661 110.204C125.605 110.127 125.585 110.03 125.605 109.936C125.626 109.842 125.685 109.758 125.77 109.702C125.855 109.647 125.959 109.624 126.059 109.64L134.95 111.04C135.036 111.053 135.113 111.094 135.168 111.155C135.224 111.216 135.255 111.293 135.257 111.375C135.259 111.457 135.231 111.537 135.177 111.604C135.124 111.671 135.049 111.719 134.964 111.741Z" fill="#3E6E5C"/>
</g>
</g>
<defs>
<linearGradient id="paint0_linear_547_5066" x1="113.725" y1="167.984" x2="72.2584" y2="110.736" gradientUnits="userSpaceOnUse">
<stop stop-color="#8ABDFF"/>
<stop offset="1" stop-color="#5A80F9"/>
</linearGradient>
<linearGradient id="paint1_linear_547_5066" x1="226.326" y1="252.416" x2="-1.04272" y2="-15.5816" gradientUnits="userSpaceOnUse">
<stop stop-color="#00BF80"/>
<stop offset="1" stop-color="#5A80F9"/>
</linearGradient>
<linearGradient id="paint2_linear_547_5066" x1="46.4898" y1="138.967" x2="180.396" y2="205.165" gradientUnits="userSpaceOnUse">
<stop stop-color="#00BF80"/>
<stop offset="1" stop-color="#053FF6"/>
</linearGradient>
<clipPath id="clip0_547_5066">
<rect width="265.062" height="248.4" fill="white" transform="translate(0.00012207 67.5947) rotate(-14.7736)"/>
</clipPath>
</defs>
</svg>
