<svg width="234" height="137" viewBox="0 0 234 137" fill="none" xmlns="http://www.w3.org/2000/svg">
<path d="M201.821 53.8559C198.991 55.2259 196.439 58.4553 195.998 65.4975C194.939 82.4008 199.463 132.106 199.463 132.106C199.463 132.106 234.675 94.1286 212.661 57.3199C210.43 53.5878 205.737 51.9597 201.821 53.8559Z" fill="#62A9C5"/>
<path d="M216.814 75.9223C216.753 75.8849 216.68 75.8731 216.611 75.8894C216.542 75.9056 216.482 75.9486 216.444 76.009L209.012 87.9673C209.072 86.715 209.111 85.4506 209.13 84.1742C209.144 84.1411 209.151 84.1054 209.151 84.0694C209.151 84.0333 209.144 83.9976 209.13 83.9646C209.216 76.6253 208.547 68.9582 206.59 61.6071C206.569 61.5406 206.524 61.4846 206.463 61.4508C206.402 61.417 206.331 61.4081 206.263 61.426C206.196 61.4439 206.138 61.4871 206.102 61.5466C206.066 61.6061 206.055 61.6772 206.07 61.7451C207.947 68.7946 208.632 76.1384 208.601 83.2004L200.456 71.7316C200.414 71.6756 200.352 71.6383 200.282 71.6275C200.213 71.6167 200.142 71.6333 200.085 71.6738C200.028 71.7143 199.989 71.7755 199.976 71.8443C199.964 71.9131 199.978 71.9842 200.017 72.0424L208.593 84.1163C208.521 89.5528 208.036 94.8053 207.353 99.6103L201.382 89.5916C201.366 89.5582 201.343 89.5287 201.314 89.5047C201.286 89.4808 201.253 89.463 201.217 89.4525C201.181 89.4419 201.144 89.4389 201.107 89.4435C201.07 89.4482 201.035 89.4604 201.003 89.4794C200.971 89.4985 200.943 89.5239 200.921 89.5541C200.9 89.5844 200.885 89.6187 200.877 89.6551C200.87 89.6914 200.87 89.7289 200.877 89.7653C200.885 89.8016 200.9 89.836 200.921 89.8662L207.228 100.451C205.254 113.767 201.828 123.44 201.766 123.617C201.745 123.675 201.745 123.737 201.765 123.795C201.785 123.853 201.824 123.902 201.876 123.935C201.928 123.967 201.989 123.981 202.05 123.974C202.111 123.967 202.168 123.94 202.211 123.896C202.238 123.869 202.259 123.836 202.272 123.799C202.32 123.668 204.193 118.378 205.971 110.268L214.758 100.423C214.781 100.397 214.8 100.366 214.811 100.333C214.823 100.3 214.828 100.264 214.826 100.229C214.824 100.194 214.815 100.159 214.8 100.127C214.784 100.096 214.763 100.067 214.736 100.044C214.711 100.018 214.681 99.9975 214.647 99.9843C214.613 99.9711 214.577 99.9653 214.541 99.9674C214.505 99.9694 214.47 99.9793 214.438 99.9962C214.406 100.013 214.378 100.037 214.356 100.066L206.196 109.205C206.753 106.572 207.292 103.669 207.754 100.567C207.787 100.51 207.797 100.443 207.782 100.38C208.305 96.8316 208.724 93.0279 208.952 89.0784L216.903 76.2922C216.94 76.2313 216.951 76.1582 216.935 76.0889C216.918 76.0195 216.875 75.9596 216.814 75.9223Z" fill="#7CCEE5"/>
<path d="M225.098 67.3591C222.314 67.622 219.175 69.5136 216.609 75.2437C210.445 88.9958 198.685 131.812 198.685 131.812C198.685 131.812 239.883 111.143 233.046 73.6208C232.354 69.8172 228.954 66.9991 225.098 67.3591Z" fill="#97CFE6"/>
<path d="M230.862 88.8979L219.733 97.5329C220.224 96.3796 220.7 95.2076 221.162 94.017C221.187 93.991 221.207 93.9601 221.219 93.9262C221.232 93.8923 221.238 93.8561 221.237 93.8199C223.869 86.9669 225.909 79.5448 226.629 71.9723C226.633 71.9372 226.629 71.9018 226.619 71.8682C226.608 71.8345 226.591 71.8032 226.569 71.776C226.546 71.7489 226.519 71.7264 226.487 71.7099C226.456 71.6934 226.422 71.6832 226.387 71.6799C226.352 71.6766 226.316 71.6802 226.283 71.6906C226.249 71.7009 226.218 71.7178 226.19 71.7402C226.163 71.7627 226.141 71.7903 226.124 71.8214C226.108 71.8525 226.097 71.8866 226.094 71.9217C225.402 79.1828 223.491 86.3111 221.007 92.9197L217.356 79.3411C217.337 79.273 217.292 79.2151 217.23 79.1801C217.169 79.1451 217.096 79.1357 217.027 79.1541C216.959 79.1724 216.9 79.217 216.865 79.2781C216.829 79.3392 216.819 79.4119 216.836 79.4804L220.68 93.7752C218.723 98.849 216.441 103.607 214.129 107.876L212.016 96.4159C211.999 96.3505 211.958 96.294 211.9 96.2579C211.843 96.2217 211.774 96.2085 211.708 96.2208C211.641 96.2332 211.581 96.2703 211.541 96.3247C211.501 96.379 211.482 96.4466 211.49 96.5138L213.727 108.63C207.241 120.432 200.666 128.315 200.544 128.46C200.505 128.507 200.483 128.566 200.482 128.627C200.48 128.688 200.5 128.748 200.537 128.796C200.574 128.844 200.627 128.879 200.686 128.893C200.746 128.908 200.808 128.902 200.864 128.876C200.899 128.86 200.93 128.836 200.955 128.807C201.045 128.699 204.641 124.388 209.13 117.4L220.796 111.213C220.827 111.196 220.855 111.174 220.877 111.147C220.9 111.12 220.917 111.088 220.927 111.055C220.937 111.021 220.941 110.985 220.937 110.95C220.934 110.915 220.924 110.881 220.907 110.85C220.893 110.817 220.871 110.787 220.844 110.763C220.817 110.739 220.786 110.721 220.751 110.71C220.716 110.7 220.68 110.697 220.644 110.702C220.608 110.707 220.574 110.719 220.544 110.739L209.714 116.482C211.152 114.206 212.667 111.669 214.18 108.92C214.23 108.879 214.263 108.819 214.27 108.755C215.995 105.608 217.71 102.184 219.298 98.5612L231.191 89.3198C231.248 89.2762 231.284 89.2121 231.293 89.1415C231.302 89.071 231.283 88.9998 231.239 88.9436C231.195 88.8874 231.131 88.8508 231.06 88.8419C230.99 88.8329 230.918 88.8524 230.862 88.896L230.862 88.8979Z" fill="#6BBFDB"/>
<path d="M115.714 125.589C80.1619 125.589 51.3448 127.429 51.3448 129.697C51.3448 131.965 80.1619 133.803 115.714 133.803C151.265 133.803 180.078 131.964 180.078 129.697C180.078 127.43 151.261 125.589 115.714 125.589Z" fill="#BFDBF6"/>
<path d="M201.871 129.859C189.99 129.859 180.358 131.375 180.358 133.243C180.358 135.111 189.99 136.626 201.871 136.626C213.753 136.626 223.386 135.111 223.386 133.243C223.386 131.374 213.754 129.859 201.871 129.859Z" fill="#BFDBF6"/>
<path d="M141.062 108.828H95.7609V120.995H141.062V108.828Z" fill="#89EECD"/>
<path d="M48.6217 0.00390625H188.68C190.932 0.00390625 193.091 0.896909 194.683 2.48646C196.275 4.07601 197.17 6.2319 197.17 8.47987V104.324C197.17 106.572 196.275 108.728 194.683 110.317C193.091 111.907 190.932 112.8 188.68 112.8H48.6217C46.3701 112.8 44.2107 111.907 42.6185 110.317C41.0264 108.728 40.132 106.572 40.132 104.324V8.48053C40.1319 7.36739 40.3514 6.26514 40.778 5.23672C41.2046 4.20829 41.83 3.27383 42.6183 2.48669C43.4067 1.69956 44.3426 1.07516 45.3727 0.649163C46.4027 0.223165 47.5068 0.00390625 48.6217 0.00390625Z" fill="#2BD29B"/>
<path d="M186.911 4.15332H49.5543C46.6734 4.15332 44.338 6.48493 44.338 9.36111V96.8067C44.338 99.6829 46.6734 102.015 49.5543 102.015H186.911C189.792 102.015 192.127 99.6829 192.127 96.8067V9.36111C192.127 6.48493 189.792 4.15332 186.911 4.15332Z" fill="#C2F6E5"/>
<path d="M153.911 119.938H82.9099C82.0402 119.937 81.1791 120.108 80.3756 120.441C79.5721 120.773 78.842 121.26 78.227 121.874C77.612 122.488 77.1242 123.216 76.7914 124.019C76.4585 124.821 76.2872 125.681 76.2872 126.549V127.607H160.534V126.549C160.534 125.681 160.362 124.821 160.03 124.019C159.697 123.216 159.209 122.488 158.594 121.874C157.979 121.26 157.249 120.773 156.445 120.441C155.642 120.108 154.781 119.937 153.911 119.938Z" fill="#33886C"/>
<path d="M84.353 123.772C81.6666 124.001 81.1941 125.995 81.2691 127.608H160.533V126.549C160.535 125.218 160.133 123.918 159.379 122.82C141.142 121.366 88.2399 123.441 84.353 123.772Z" fill="#B2FBE3"/>
<path d="M178.689 10.877H84.3418C81.8393 10.877 79.8107 12.9023 79.8107 15.4007V75.7489C79.8107 78.2474 81.8393 80.2727 84.3418 80.2727H178.689C181.191 80.2727 183.22 78.2474 183.22 75.7489V15.4007C183.22 12.9023 181.191 10.877 178.689 10.877Z" fill="#CDE7FF"/>
<g style="mix-blend-mode:multiply" opacity="0.25">
<path d="M94.1425 61.5693H89.6384V72.8594H94.1425V61.5693Z" fill="white"/>
<path d="M89.4725 73.0249H94.3084V61.4043H89.4725V73.0249ZM89.8016 61.7348H93.9741V72.6964H89.8016V61.7348Z" fill="black"/>
<path d="M104.293 51.6592H99.7886V72.8603H104.293V51.6592Z" fill="white"/>
<path d="M99.626 73.0247H104.462V51.4932H99.626V73.0247ZM99.955 51.8237H104.128V72.6962H99.955V51.8237Z" fill="black"/>
<path d="M114.443 53.8506H109.939V72.8597H114.443V53.8506Z" fill="white"/>
<path d="M109.773 73.0245H114.609V53.6855H109.773V73.0245ZM110.102 54.0154H114.274V72.696H110.102V54.0154Z" fill="black"/>
<path d="M124.593 43.1182H120.089V72.8596H124.593V43.1182Z" fill="white"/>
<path d="M119.923 73.0251H124.76V42.9531H119.923V73.0251ZM120.252 43.2836H124.425V72.6965H120.252V43.2836Z" fill="black"/>
<g style="mix-blend-mode:multiply" opacity="0.15">
<g opacity="0.26">
<path d="M101.856 51.6592H99.7885V72.8603H101.856V51.6592Z" fill="white"/>
<path d="M99.626 73.0247H102.025V51.4932H99.626V73.0247ZM99.955 51.8237H101.691V72.6962H99.955V51.8237Z" fill="black"/>
</g>
</g>
<g style="mix-blend-mode:multiply" opacity="0.15">
<g opacity="0.26">
<path d="M91.7055 61.5703H89.6384V72.8604H91.7055V61.5703Z" fill="white"/>
<path d="M89.4725 73.0249H91.8714V61.4043H89.4725V73.0249ZM89.8016 61.7348H91.5371V72.6964H89.8016V61.7348Z" fill="black"/>
</g>
</g>
<g style="mix-blend-mode:multiply" opacity="0.62">
<g opacity="0.26">
<path d="M122.156 43.1191H120.089V72.8606H122.156V43.1191Z" fill="white"/>
<path d="M119.923 73.0251H122.323V42.9531H119.923V73.0251ZM120.252 43.2836H121.988V72.6965H120.252V43.2836Z" fill="black"/>
</g>
</g>
<g style="mix-blend-mode:multiply" opacity="0.15">
<g opacity="0.26">
<path d="M112.007 53.8506H109.939V72.8597H112.007V53.8506Z" fill="white"/>
<path d="M109.773 73.0245H112.172V53.6855H109.773V73.0245ZM110.102 54.0154H111.838V72.696H110.102V54.0154Z" fill="black"/>
</g>
</g>
<path d="M87.2784 33.1113H86.663V75.9682H126.977V75.3545H87.2784V33.1113Z" fill="white"/>
<path d="M87.4442 32.9443H86.4972V76.1323H127.143V75.1875H87.4442V32.9443ZM126.811 75.5213V75.8038H86.8289V33.2762H87.1125V75.5213H126.811Z" fill="black"/>
<path d="M110.707 48.491L100.939 46.372L90.3932 55.8263L90.8039 56.283L101.116 47.0389L110.926 49.1664L121.742 37.145L121.284 36.7344L110.707 48.491Z" fill="white"/>
<path d="M110.648 48.3079L100.974 46.2099L100.891 46.1922L90.1583 55.8134L90.7907 56.5164L101.163 47.2178L110.89 49.3276L110.984 49.348L121.974 37.1321L121.27 36.5L110.648 48.3079ZM121.507 37.1571L110.866 48.984L101.151 46.8742L101.068 46.8558L90.8164 56.046L90.6275 55.8357L100.987 46.5489L110.766 48.6699L121.296 36.9652L121.507 37.1571Z" fill="black"/>
<path d="M122.571 38.8809L123.438 34.9971L119.588 36.0254L122.571 38.8809Z" fill="white"/>
<path d="M122.668 39.2043L123.66 34.7666L119.261 35.9421L122.668 39.2043ZM122.471 38.5584L119.913 36.1096L123.215 35.2279L122.471 38.5584Z" fill="black"/>
<path d="M133.888 60.7695H130.795V63.8577H133.888V60.7695Z" fill="white"/>
<path d="M130.629 64.0231H134.051V60.6064H130.629V64.0231ZM130.958 60.935H133.722V63.6946H130.958V60.935Z" fill="black"/>
<path d="M133.888 66.1807H130.795V69.2688H133.888V66.1807Z" fill="white"/>
<path d="M130.629 69.4342H134.051V66.0176H130.629V69.4342ZM130.958 66.3461H133.722V69.1057H130.958V66.3461Z" fill="black"/>
<path d="M144.546 67.5137H134.74V69.2687H144.546V67.5137Z" fill="white"/>
<path d="M134.572 69.4348H144.707V67.3486H134.572V69.4348ZM134.901 67.6798H144.378V69.1036H134.901V67.6798Z" fill="black"/>
<path d="M144.546 62.1025H134.74V63.8575H144.546V62.1025Z" fill="white"/>
<path d="M134.572 64.0236H144.707V61.9375H134.572V64.0236ZM134.901 62.2687H144.378V63.6951H134.901V62.2687Z" fill="black"/>
<path d="M152.08 60.7695H148.987V63.8577H152.08V60.7695Z" fill="white"/>
<path d="M148.821 64.0231H152.243V60.6064H148.821V64.0231ZM149.15 60.935H151.914V63.6946H149.15V60.935Z" fill="black"/>
<path d="M152.08 66.1807H148.987V69.2688H152.08V66.1807Z" fill="white"/>
<path d="M148.821 69.4342H152.243V66.0176H148.821V69.4342ZM149.15 66.3461H151.914V69.1057H149.15V66.3461Z" fill="black"/>
<path d="M168.462 60.7695H165.369V63.8577H168.462V60.7695Z" fill="white"/>
<path d="M165.203 64.0231H168.625V60.6064H165.203V64.0231ZM165.532 60.935H168.296V63.6946H165.532V60.935Z" fill="black"/>
<path d="M168.462 66.1807H165.369V69.2688H168.462V66.1807Z" fill="white"/>
<path d="M165.203 69.4342H168.625V66.0176H165.203V69.4342ZM165.532 66.3461H168.296V69.1057H165.532V66.3461Z" fill="black"/>
<path d="M175.767 67.5137H169.314V69.2687H175.767V67.5137Z" fill="white"/>
<path d="M169.148 69.4348H175.933V67.3486H169.148V69.4348ZM169.477 67.6798H175.598V69.1036H169.477V67.6798Z" fill="black"/>
<path d="M175.767 62.1025H169.314V63.8575H175.767V62.1025Z" fill="white"/>
<path d="M169.148 64.0236H175.933V61.9375H169.148V64.0236ZM169.477 62.2687H175.598V63.6951H169.477V62.2687Z" fill="black"/>
<path d="M175.767 36.2725H131.24V37.078H175.767V36.2725Z" fill="white"/>
<path d="M131.074 37.2448H175.933V36.1074H131.074V37.2448ZM131.403 36.4386H175.599V36.9136H131.406L131.403 36.4386Z" fill="black"/>
<path d="M175.767 38.7783H131.24V39.5839H175.767V38.7783Z" fill="white"/>
<path d="M131.074 39.75H175.933V38.6133H131.074V39.75ZM131.403 38.9444H175.599V39.4188H131.406L131.403 38.9444Z" fill="black"/>
<path d="M168.613 13.9688C168.354 13.9688 168.102 14.0452 167.887 14.1886C167.672 14.3319 167.505 14.5356 167.406 14.7739C167.307 15.0122 167.281 15.2744 167.332 15.5274C167.382 15.7804 167.506 16.0128 167.689 16.1952C167.872 16.3776 168.104 16.5019 168.358 16.5522C168.611 16.6025 168.874 16.5767 169.113 16.478C169.351 16.3792 169.555 16.2121 169.699 15.9976C169.843 15.7831 169.919 15.531 169.919 15.273C169.919 14.9271 169.781 14.5953 169.537 14.3508C169.292 14.1062 168.959 13.9688 168.613 13.9688Z" fill="white"/>
<path d="M168.613 13.8037C168.322 13.8037 168.037 13.8899 167.795 14.0514C167.553 14.2129 167.364 14.4425 167.253 14.7111C167.141 14.9796 167.112 15.2752 167.169 15.5603C167.226 15.8454 167.366 16.1073 167.572 16.3129C167.778 16.5184 168.04 16.6584 168.325 16.7151C168.611 16.7718 168.907 16.7427 169.176 16.6315C169.445 16.5202 169.675 16.3318 169.837 16.0901C169.999 15.8484 170.085 15.5642 170.085 15.2735C170.084 14.8839 169.929 14.5103 169.653 14.2348C169.377 13.9593 169.003 13.8042 168.613 13.8037ZM168.613 16.4122C168.387 16.4122 168.167 16.3454 167.979 16.2203C167.792 16.0952 167.645 15.9173 167.559 15.7093C167.473 15.5012 167.45 15.2723 167.494 15.0514C167.538 14.8305 167.647 14.6276 167.806 14.4684C167.966 14.3091 168.169 14.2007 168.39 14.1567C168.611 14.1128 168.841 14.1354 169.049 14.2215C169.258 14.3077 169.436 14.4537 169.561 14.6409C169.686 14.8282 169.753 15.0483 169.753 15.2735C169.753 15.5755 169.633 15.865 169.419 16.0785C169.205 16.292 168.915 16.412 168.613 16.4122Z" fill="black"/>
<path d="M173.938 16.5772C174.659 16.5772 175.244 15.9933 175.244 15.273C175.244 14.5527 174.659 13.9688 173.938 13.9688C173.216 13.9688 172.631 14.5527 172.631 15.273C172.631 15.9933 173.216 16.5772 173.938 16.5772Z" fill="white"/>
<path d="M173.938 13.8037C173.646 13.8037 173.362 13.8899 173.12 14.0514C172.878 14.2129 172.689 14.4425 172.577 14.7111C172.466 14.9796 172.437 15.2752 172.494 15.5603C172.55 15.8454 172.691 16.1073 172.897 16.3129C173.102 16.5184 173.365 16.6584 173.65 16.7151C173.936 16.7718 174.232 16.7427 174.501 16.6315C174.77 16.5202 175 16.3318 175.162 16.0901C175.323 15.8484 175.41 15.5642 175.41 15.2735C175.409 14.8839 175.254 14.5103 174.978 14.2348C174.702 13.9593 174.328 13.8042 173.938 13.8037ZM173.938 16.4122C173.712 16.4122 173.491 16.3454 173.304 16.2203C173.116 16.0952 172.97 15.9173 172.884 15.7093C172.798 15.5012 172.775 15.2723 172.819 15.0514C172.863 14.8305 172.972 14.6276 173.131 14.4684C173.291 14.3091 173.494 14.2007 173.715 14.1567C173.936 14.1128 174.166 14.1354 174.374 14.2215C174.582 14.3077 174.761 14.4537 174.886 14.6409C175.011 14.8282 175.078 15.0483 175.078 15.2735C175.078 15.5755 174.958 15.865 174.744 16.0785C174.53 16.292 174.24 16.412 173.938 16.4122Z" fill="black"/>
<path d="M180.104 16.7565C180.819 16.6413 181.304 15.9698 181.189 15.2567C181.073 14.5435 180.401 14.0589 179.686 14.1741C178.972 14.2894 178.487 14.9609 178.602 15.674C178.718 16.3871 179.39 16.8718 180.104 16.7565Z" fill="white"/>
<path d="M179.262 13.8037C178.971 13.8037 178.687 13.8899 178.445 14.0514C178.202 14.2129 178.014 14.4425 177.902 14.7111C177.791 14.9796 177.762 15.2752 177.819 15.5603C177.875 15.8454 178.016 16.1073 178.221 16.3129C178.427 16.5184 178.69 16.6584 178.975 16.7151C179.261 16.7718 179.557 16.7427 179.826 16.6315C180.095 16.5202 180.325 16.3318 180.487 16.0901C180.648 15.8484 180.735 15.5642 180.735 15.2735C180.734 14.8839 180.579 14.5103 180.303 14.2348C180.027 13.9593 179.653 13.8042 179.262 13.8037ZM179.262 16.4122C179.037 16.4122 178.816 16.3454 178.629 16.2203C178.441 16.0952 178.295 15.9173 178.209 15.7093C178.122 15.5012 178.1 15.2723 178.144 15.0514C178.188 14.8305 178.296 14.6276 178.456 14.4684C178.615 14.3091 178.819 14.2007 179.04 14.1567C179.261 14.1128 179.49 14.1354 179.699 14.2215C179.907 14.3077 180.085 14.4537 180.211 14.6409C180.336 14.8282 180.403 15.0483 180.403 15.2735C180.403 15.5754 180.282 15.8648 180.069 16.0783C179.855 16.2918 179.565 16.4119 179.262 16.4122Z" fill="black"/>
</g>
<path d="M153.316 23.5244H58.9698C56.4673 23.5244 54.4386 25.5498 54.4386 28.0482V88.3964C54.4386 90.8948 56.4673 92.9202 58.9698 92.9202H153.316C155.819 92.9202 157.848 90.8948 157.848 88.3964V28.0482C157.848 25.5498 155.819 23.5244 153.316 23.5244Z" fill="#CDE7FF"/>
<path d="M69.0393 75H65.2169V84.5798H69.0393V75Z" fill="#C2F6E5"/>
<path d="M77.6516 66.5898H73.8292V84.5799H77.6516V66.5898Z" fill="#C2F6E5"/>
<path d="M86.2649 68.4502H82.4425V84.5801H86.2649V68.4502Z" fill="#C2F6E5"/>
<path d="M94.8772 59.3438H91.0548V84.5804H94.8772V59.3438Z" fill="#C2F6E5"/>
<path d="M75.5838 66.5898H73.8292V84.5799H75.5838V66.5898Z" fill="#94F8D7"/>
<path d="M66.9715 75H65.2169V84.5798H66.9715V75Z" fill="#94F8D7"/>
<path d="M92.8087 59.3438H91.0548V84.5804H92.8087V59.3438Z" fill="#94F8D7"/>
<path d="M84.1971 68.4502H82.4425V84.5801H84.1971V68.4502Z" fill="#94F8D7"/>
<path d="M63.2144 54.0996H62.6925V87.2163H96.9003V86.6953H63.2144V54.0996Z" fill="#7AE5C2"/>
<path d="M83.0944 63.9011L74.806 62.1034L65.8575 70.1254L66.2057 70.513L74.956 62.6692L83.2799 64.4747L92.4574 54.274L92.0691 53.9258L83.0944 63.9011Z" fill="white"/>
<path d="M93.1605 55.7479L93.8969 52.4521L90.63 53.3247L93.1605 55.7479Z" fill="white"/>
<path d="M108.516 73.417H105.423V76.5051H108.516V73.417Z" fill="white"/>
<path d="M108.516 78.8281H105.423V81.9163H108.516V78.8281Z" fill="white"/>
<path d="M119.174 80.1611H109.368V81.9161H119.174V80.1611Z" fill="#94F8D7"/>
<path d="M119.174 74.75H109.368V76.505H119.174V74.75Z" fill="#94F8D7"/>
<path d="M126.709 73.417H123.615V76.5051H126.709V73.417Z" fill="white"/>
<path d="M126.709 78.8281H123.615V81.9163H126.709V78.8281Z" fill="white"/>
<path d="M137.367 80.1611H127.561V81.9161H137.367V80.1611Z" fill="#94F8D7"/>
<path d="M137.367 74.75H127.561V76.505H137.367V74.75Z" fill="#94F8D7"/>
<path d="M143.091 73.417H139.997V76.5051H143.091V73.417Z" fill="white"/>
<path d="M143.091 78.8281H139.997V81.9163H143.091V78.8281Z" fill="white"/>
<path d="M150.395 80.1611H143.943V81.9161H150.395V80.1611Z" fill="#94F8D7"/>
<path d="M150.395 74.75H143.943V76.505H150.395V74.75Z" fill="#94F8D7"/>
<path d="M150.396 34.0176H61.2921V35.8619H150.396V34.0176Z" fill="white"/>
<path d="M153.316 23.5244H58.9698C57.768 23.5244 56.6155 24.001 55.7657 24.8494C54.916 25.6978 54.4386 26.8484 54.4386 28.0482V32.0076H157.848V28.0482C157.848 27.4541 157.731 26.8658 157.503 26.3169C157.275 25.768 156.941 25.2693 156.521 24.8492C156.1 24.4291 155.6 24.0959 155.051 23.8686C154.501 23.6413 153.912 23.5243 153.316 23.5244Z" fill="#9CC9F3"/>
<path d="M143.241 26.6162C142.982 26.6162 142.73 26.6927 142.515 26.8361C142.3 26.9795 142.132 27.1833 142.033 27.4217C141.934 27.6602 141.908 27.9226 141.959 28.1757C142.009 28.4288 142.134 28.6613 142.317 28.8438C142.499 29.0263 142.732 29.1506 142.986 29.2009C143.239 29.2513 143.502 29.2255 143.741 29.1267C143.98 29.0279 144.184 28.8607 144.327 28.6461C144.471 28.4315 144.548 28.1792 144.548 27.9211C144.548 27.575 144.41 27.2431 144.165 26.9984C143.92 26.7537 143.587 26.6162 143.241 26.6162Z" fill="white"/>
<path d="M148.567 26.6162C148.308 26.6161 148.055 26.6925 147.84 26.8358C147.625 26.9791 147.458 27.1829 147.359 27.4213C147.26 27.6597 147.234 27.9221 147.284 28.1753C147.334 28.4285 147.459 28.661 147.641 28.8436C147.824 29.0261 148.057 29.1505 148.311 29.2009C148.564 29.2513 148.827 29.2255 149.066 29.1268C149.305 29.028 149.509 28.8608 149.653 28.6461C149.796 28.4315 149.873 28.1792 149.873 27.9211C149.873 27.5751 149.735 27.2433 149.49 26.9986C149.245 26.7539 148.913 26.6164 148.567 26.6162Z" fill="white"/>
<path d="M153.891 26.6162C153.632 26.6161 153.38 26.6925 153.164 26.8358C152.949 26.9791 152.782 27.1829 152.683 27.4213C152.584 27.6597 152.558 27.9221 152.608 28.1753C152.659 28.4285 152.783 28.661 152.966 28.8436C153.148 29.0261 153.381 29.1505 153.635 29.2009C153.888 29.2513 154.151 29.2255 154.39 29.1268C154.629 29.028 154.833 28.8608 154.977 28.6461C155.121 28.4315 155.197 28.1792 155.197 27.9211C155.197 27.5751 155.06 27.2433 154.815 26.9986C154.57 26.7539 154.237 26.6164 153.891 26.6162Z" fill="white"/>
<path d="M125.319 35.9199H64.1733C62.5832 35.9199 61.0583 36.5506 59.9339 37.6731C58.8095 38.7956 58.1779 40.3181 58.1779 41.9057C58.1779 43.4932 58.8095 45.0157 59.9339 46.1382C61.0583 47.2608 62.5832 47.8914 64.1733 47.8914H125.319C126.909 47.8914 128.434 47.2608 129.558 46.1382C130.682 45.0157 131.314 43.4932 131.314 41.9057C131.314 40.3181 130.682 38.7956 129.558 37.6731C128.434 36.5506 126.909 35.9199 125.319 35.9199Z" fill="#33886C"/>
<path d="M125.318 35.9199H121.699C120.109 35.9199 118.584 36.5506 117.459 37.6731C116.335 38.7956 115.703 40.3181 115.703 41.9057C115.703 43.4932 116.335 45.0157 117.459 46.1382C118.584 47.2608 120.109 47.8914 121.699 47.8914H125.318C126.908 47.8914 128.433 47.2608 129.558 46.1382C130.682 45.0157 131.314 43.4932 131.314 41.9057C131.314 40.3181 130.682 38.7956 129.558 37.6731C128.433 36.5506 126.908 35.9199 125.318 35.9199Z" fill="white"/>
<path d="M124.716 39.1793C124.421 38.8854 124.059 38.6686 123.66 38.548C123.261 38.4275 122.839 38.407 122.43 38.4882C122.022 38.5695 121.64 38.75 121.318 39.0139C120.996 39.2778 120.744 39.6168 120.585 40.0011C120.425 40.3853 120.363 40.8028 120.404 41.2167C120.445 41.6306 120.587 42.028 120.818 42.3739C121.05 42.7197 121.363 43.0033 121.73 43.1995C122.097 43.3957 122.507 43.4985 122.924 43.4987C123.481 43.4969 124.021 43.3101 124.459 42.9679L126.663 45.167L127.13 44.6998L124.927 42.4994C125.301 42.0145 125.485 41.4105 125.447 40.7998C125.408 40.1891 125.148 39.6132 124.716 39.1793ZM124.248 42.2898C123.541 42.9954 122.309 42.9954 121.601 42.2898C121.339 42.0284 121.16 41.6953 121.088 41.3327C121.016 40.97 121.053 40.5942 121.194 40.2526C121.336 39.911 121.576 39.619 121.884 39.4136C122.192 39.2082 122.554 39.0985 122.924 39.0985C123.295 39.0985 123.657 39.2082 123.965 39.4136C124.272 39.619 124.512 39.911 124.654 40.2526C124.796 40.5942 124.833 40.97 124.761 41.3327C124.688 41.6953 124.51 42.0284 124.248 42.2898Z" fill="#2BD29B"/>
<path d="M78.0392 41.88C77.6193 41.7204 77.4258 41.6001 77.4258 41.3334C77.4258 41.0935 77.6193 40.8931 77.9661 40.8931C78.1985 40.8936 78.4263 40.9582 78.6242 41.0797L78.771 40.6533C78.5276 40.5205 78.254 40.4526 77.9767 40.4562C77.2823 40.4562 76.8625 40.8826 76.8625 41.4023C76.8625 41.7887 77.1362 42.1093 77.718 42.3156C78.1517 42.4753 78.3189 42.6284 78.3189 42.907C78.3189 43.1738 78.1214 43.3873 77.691 43.3873C77.4169 43.3794 77.1498 43.2989 76.9171 43.154L76.7697 43.6002C77.0485 43.7501 77.3612 43.8259 77.6779 43.8203C78.4452 43.8203 78.8862 43.4201 78.8862 42.8538C78.8881 42.3735 78.6005 42.0936 78.0392 41.88Z" fill="white"/>
<path d="M82.2579 40.4541C81.3162 40.4541 80.7443 41.2202 80.7443 42.1933C80.7443 43.1664 81.3366 43.8195 82.333 43.8195C82.847 43.8195 83.201 43.7131 83.4077 43.6224L83.3076 43.2032C83.0247 43.3222 82.7194 43.3789 82.4126 43.3694C81.8256 43.3694 81.3181 43.0409 81.305 42.2525H83.5742C83.5869 42.1619 83.5938 42.0706 83.5946 41.9791C83.5926 41.3799 83.3122 40.4541 82.2579 40.4541ZM81.3096 41.8267C81.3563 41.42 81.6163 40.8733 82.2112 40.8733C82.8693 40.8733 83.0319 41.4535 83.0246 41.8267H81.3096Z" fill="white"/>
<path d="M87.9234 41.7736C87.9234 41.1271 87.6832 40.4543 86.6947 40.4543C86.3212 40.4494 85.9536 40.5483 85.6332 40.7401L85.7648 41.1271C86.0173 40.971 86.3082 40.888 86.6052 40.8873C87.2634 40.8873 87.3397 41.3669 87.3397 41.6337V41.6994C86.0893 41.6922 85.3976 42.1186 85.3976 42.8985C85.3976 43.365 85.7312 43.8249 86.3848 43.8249C86.5757 43.8289 86.7648 43.7874 86.9365 43.7039C87.1081 43.6204 87.2574 43.4972 87.3719 43.3446H87.3917L87.4384 43.7514H87.9774C87.9376 43.4958 87.9197 43.2373 87.9241 42.9787L87.9234 41.7736ZM87.3561 42.6666C87.3546 42.7301 87.3433 42.7931 87.3226 42.8532C87.2667 43.0144 87.1609 43.1536 87.0204 43.2507C86.88 43.3478 86.7122 43.3978 86.5414 43.3933C86.2413 43.3933 85.9873 43.2126 85.9873 42.8328C85.9873 42.2066 86.7151 42.0936 87.3561 42.11V42.6666Z" fill="white"/>
<path d="M90.7415 41.1605H90.7145L90.6948 40.5271H90.1808C90.2005 40.8274 90.2078 41.1539 90.2078 41.5337V43.7526H90.7882V42.033C90.7895 41.9414 90.7983 41.85 90.8146 41.7597C90.8948 41.3202 91.189 41.0067 91.6043 41.0067C91.6706 41.006 91.7369 41.0126 91.8017 41.0264V40.4739C91.7471 40.46 91.6909 40.4534 91.6346 40.4542C91.239 40.4542 90.885 40.7275 90.7415 41.1605Z" fill="white"/>
<path d="M95.1549 40.9269C95.3914 40.9182 95.6261 40.971 95.836 41.08L95.9676 40.6273C95.7111 40.5143 95.4333 40.4576 95.1529 40.4611C94.0999 40.4611 93.4181 41.1806 93.4181 42.1734C93.4181 43.1662 94.0519 43.8199 95.0265 43.8199C95.3459 43.8269 95.6627 43.7631 95.9545 43.6333L95.8538 43.1931C95.6286 43.2997 95.3823 43.3545 95.1331 43.3534C94.4928 43.3534 94.0143 42.8935 94.0143 42.1471C94.0143 41.4736 94.4145 40.9269 95.1549 40.9269Z" fill="white"/>
<path d="M99.5989 40.4545C99.3877 40.4567 99.1808 40.514 98.9987 40.6207C98.823 40.7172 98.6775 40.8602 98.5782 41.034H98.565V39.0215H97.9806V43.7523H98.5676V41.8067C98.5621 41.7117 98.5755 41.6166 98.6071 41.5268C98.6608 41.3589 98.7658 41.2119 98.9075 41.1067C99.0492 41.0014 99.2203 40.9431 99.3969 40.9401C99.9517 40.9401 100.145 41.3796 100.145 41.8994V43.7523H100.732V41.833C100.728 40.7206 100.034 40.4545 99.5989 40.4545Z" fill="white"/>
<path d="M162.213 82.3397H183.782C185.091 82.3397 186.151 81.4363 186.151 80.3213V51.3545H162.213V82.3397Z" fill="#94F8D7"/>
<path d="M186.107 51.3545H162.208V52.7928H186.107V51.3545Z" fill="#33886C"/>
<path d="M180.113 68.0312H168.12C167.797 68.0312 167.797 68.3953 168.12 68.3953H180.113C180.439 68.3953 180.439 68.0312 180.113 68.0312Z" fill="#33886C"/>
<path d="M173.637 53.791C172.725 53.7898 171.823 53.9851 170.993 54.3635C170.163 54.7418 169.425 55.2945 168.828 55.9836L173.637 60.144L178.446 55.9836C177.849 55.2945 177.111 54.7418 176.281 54.3635C175.451 53.9851 174.549 53.7898 173.637 53.791Z" fill="#0095DA"/>
<path d="M174.096 60.117V66.4694C175.008 66.4698 175.91 66.2744 176.74 65.8963C177.57 65.5181 178.308 64.9662 178.906 64.2779C179.503 63.5896 179.945 62.781 180.202 61.9071C180.459 61.0332 180.524 60.1143 180.394 59.2129L174.096 60.117Z" fill="#E1F4FD"/>
<path d="M169.599 64.9559C169.831 65.1508 170.077 65.3291 170.334 65.4894L173.701 60.1016L168.835 56.0068C168.297 56.6444 167.889 57.3817 167.636 58.1766C167.383 58.9715 167.289 59.8083 167.36 60.6394C167.431 61.4705 167.665 62.2794 168.049 63.0201C168.434 63.7607 168.96 64.4185 169.599 64.9559Z" fill="#0095DA"/>
<path d="M173.692 66.4598V60.1074L170.251 65.4512C171.277 66.1115 172.471 66.4617 173.692 66.4598Z" fill="#B7E5FA"/>
<path d="M174.419 59.7662L180.717 58.8621C180.545 57.6564 180.028 56.5259 179.228 55.6064L174.419 59.7662Z" fill="#4999E6"/>
<path d="M167.366 75.3262H165.028V80.9472H167.366V75.3262Z" fill="#5B917F"/>
<path d="M167.366 73.1494H165.028V75.7908H167.366V73.1494Z" fill="#C4E2FA"/>
<path d="M182.755 75.5801H180.417V81.2011H182.755V75.5801Z" fill="#5B917F"/>
<path d="M182.77 70.835H180.417V76.0441H182.77V70.835Z" fill="#C4E2FA"/>
<path d="M177.626 75.1357H175.288V81.0742H177.626V75.1357Z" fill="#5B917F"/>
<path d="M177.626 74.6074H175.288V78.5484H177.626V74.6074Z" fill="#C4E2FA"/>
<path d="M172.495 73.0674H170.157V81.042H172.495V73.0674Z" fill="#5B917F"/>
<path d="M172.495 69.9795H170.157V76.3581H172.495V69.9795Z" fill="#C4E2FA"/>
<path d="M163.122 51.8672C163.061 51.8672 163.002 51.8852 162.951 51.9189C162.901 51.9526 162.861 52.0005 162.838 52.0566C162.815 52.1127 162.809 52.1744 162.82 52.2339C162.832 52.2934 162.862 52.3481 162.905 52.391C162.948 52.4339 163.002 52.4631 163.062 52.475C163.122 52.4868 163.183 52.4807 163.24 52.4575C163.296 52.4343 163.344 52.395 163.377 52.3445C163.411 52.294 163.429 52.2347 163.429 52.174C163.429 52.0927 163.397 52.0148 163.339 51.9573C163.281 51.8997 163.203 51.8674 163.122 51.8672Z" fill="#B7E5FA"/>
<path d="M164.069 51.8672C164.008 51.8672 163.949 51.8852 163.898 51.9189C163.848 51.9526 163.809 52.0005 163.785 52.0566C163.762 52.1127 163.756 52.1744 163.768 52.2339C163.78 52.2934 163.809 52.3481 163.852 52.391C163.895 52.4339 163.95 52.4631 164.009 52.475C164.069 52.4868 164.131 52.4807 164.187 52.4575C164.243 52.4343 164.291 52.395 164.325 52.3445C164.359 52.294 164.377 52.2347 164.377 52.174C164.377 52.0927 164.344 52.0146 164.287 51.9571C164.229 51.8995 164.151 51.8672 164.069 51.8672Z" fill="#B7E5FA"/>
<path d="M165.017 51.8672C164.957 51.8672 164.897 51.8852 164.847 51.9189C164.796 51.9526 164.757 52.0005 164.733 52.0566C164.71 52.1127 164.704 52.1744 164.716 52.2339C164.728 52.2934 164.757 52.3481 164.8 52.391C164.843 52.4339 164.898 52.4631 164.957 52.475C165.017 52.4868 165.079 52.4807 165.135 52.4575C165.191 52.4343 165.239 52.395 165.273 52.3445C165.307 52.294 165.325 52.2347 165.325 52.174C165.325 52.0927 165.292 52.0146 165.235 51.9571C165.177 51.8995 165.099 51.8672 165.017 51.8672Z" fill="#B7E5FA"/>
<path d="M161.555 47.2899H183.475C184.23 47.2899 184.954 46.9906 185.488 46.4578C186.021 45.925 186.321 45.2023 186.321 44.4488V13.3145H161.555V47.2899Z" fill="#33886C"/>
<path d="M184.232 16.0273H164.183V28.6848H184.232V16.0273Z" fill="#C4E2FA"/>
<path d="M181.833 17.4547C181.473 17.27 181.056 17.2305 180.667 17.3443C180.295 17.4517 179.971 17.6811 179.746 17.9954C179.219 18.732 179.357 19.7478 178.867 20.4567C178.575 20.8812 177.892 21.0179 177.384 20.8286C177.112 20.7274 176.968 20.5842 176.885 20.4167C176.721 20.0881 176.794 19.6604 176.583 19.2754C176.428 18.9922 176.123 18.7497 175.763 18.7359C175.156 18.7129 174.658 19.3181 174.062 19.2162C173.712 19.1564 173.478 18.8693 173.315 18.5927C172.999 18.0592 172.731 17.4166 172.09 17.1991C171.417 16.9704 170.637 17.364 170.283 17.9126C169.615 18.9449 170.439 21.1177 168.354 21.0113C167.433 20.964 166.446 21.3838 166.086 22.1283C165.924 22.4621 165.707 23.5442 165.983 23.8635C166.259 24.1829 167.659 24.1198 168.131 24.1638L173.163 24.6343C175.249 24.8314 177.367 25.0239 179.432 24.7059C180.248 24.5804 181.102 24.3458 181.621 23.7814C182.003 23.3655 182.151 22.8247 182.247 22.2978C182.445 21.2097 182.601 20.0704 182.59 18.9672C182.583 18.3936 182.39 17.7609 181.833 17.4547Z" fill="#E1F4FD"/>
<path d="M182.118 18.3134C181.489 18.4737 180.932 18.8382 180.534 19.3496C180.271 19.6939 180.048 20.1256 179.635 20.2649C178.898 20.5126 178.294 19.6834 177.632 19.2753C177.27 19.0618 176.851 18.964 176.431 18.9953C176.012 19.0265 175.612 19.1853 175.286 19.4501C174.513 20.1032 174.335 21.232 173.681 22.0034C172.96 22.853 171.651 23.1408 170.64 22.6716C170.225 22.4791 169.868 22.1789 169.456 21.9739C167.832 21.1611 165.573 22.3306 165.305 24.1237V27.8348C165.305 27.8348 182.951 28.0319 182.918 27.9977C182.918 27.9977 182.921 27.087 182.921 27.0371C182.927 25.6777 182.926 24.3182 182.928 22.9581C182.928 21.6591 183.037 20.3608 183.015 19.0651C183.01 18.4659 182.75 18.1524 182.118 18.3134Z" fill="#94F8D7"/>
<path d="M166.018 30.6143H164.511V32.1189H166.018V30.6143Z" fill="white"/>
<path d="M166.018 32.8389H164.511V34.3435H166.018V32.8389Z" fill="white"/>
<path d="M171.651 31.0723H167.262V31.5302H171.651V31.0723Z" fill="white"/>
<path d="M171.587 33.4922H167.197V33.9502H171.587V33.4922Z" fill="white"/>
<path d="M183.838 36.9082H164.706V37.403H183.838V36.9082Z" fill="white"/>
<path d="M173.224 38.3457H164.706V45.1238H173.224V38.3457Z" fill="#C4E2FA"/>
<path d="M183.74 38.4111H174.437V41.3626H183.74V38.4111Z" fill="#E1F4FD"/>
<path d="M183.74 42.1387H174.437V45.0901H183.74V42.1387Z" fill="#E1F4FD"/>
<path d="M215.138 18.4395H188.858V37.3362H215.138V18.4395Z" fill="#CDE7FF"/>
<path d="M215.103 18.4395H188.858V19.9434H215.103V18.4395Z" fill="#33886C"/>
<g opacity="0.03">
<path d="M212.023 19.8076H211.633V22.968H208.097V19.8076H207.707V22.968H204.171V19.8076H203.781V22.968H200.246V19.8076H199.858V22.968H196.322V19.8076H195.932V22.968H192.394V19.8076H192.004V22.968H188.783V23.3577H192.004V26.5976H188.783V26.9866H192.004V30.2265H188.783V30.6161H192.004V33.856H188.783V34.245H192.004V37.5677H192.394V34.245H195.93V37.5677H196.32V34.245H199.858V37.5677H200.248V34.245H203.783V37.5677H204.173V34.245H207.709V37.5677H208.099V34.245H211.635V37.5677H212.025V34.245H215.25V33.856H212.025V30.6161H215.25V30.2265H212.025V26.9866H215.25V26.5976H212.025V23.3577H215.25V22.968H212.025L212.023 19.8076ZM195.93 33.856H192.394V30.6161H195.93V33.856ZM195.93 30.2265H192.394V26.9866H195.93V30.2265ZM195.93 26.5976H192.394V23.3577H195.93V26.5976ZM199.858 33.856H196.322V30.6161H199.858V33.856ZM199.858 30.2265H196.322V26.9866H199.858V30.2265ZM199.858 26.5976H196.322V23.3577H199.858V26.5976ZM203.783 33.856H200.246V30.6161H203.781L203.783 33.856ZM203.783 30.2265H200.246V26.9866H203.781L203.783 30.2265ZM203.783 26.5976H200.246V23.3577H203.781L203.783 26.5976ZM207.709 33.856H204.173V30.6161H207.709V33.856ZM207.709 30.2265H204.173V26.9866H207.709V30.2265ZM207.709 26.5976H204.173V23.3577H207.709V26.5976ZM211.635 33.856H208.097V30.6161H211.633L211.635 33.856ZM211.635 30.2265H208.097V26.9866H211.633L211.635 30.2265ZM211.635 26.5976H208.097V23.3577H211.633L211.635 26.5976Z" fill="black"/>
</g>
<path d="M212.31 22.3662C212.151 22.3661 211.996 22.4133 211.863 22.5018C211.731 22.5903 211.628 22.716 211.568 22.863C211.508 23.01 211.493 23.1716 211.525 23.3272C211.556 23.4828 211.634 23.6254 211.747 23.7368L208.958 26.1351L208.746 26.3171C208.661 26.249 208.563 26.1988 208.459 26.1696C208.354 26.1404 208.244 26.1328 208.137 26.1472C208.029 26.1616 207.925 26.1978 207.832 26.2535C207.738 26.3092 207.657 26.3833 207.594 26.4713C207.53 26.5593 207.485 26.6592 207.461 26.7652C207.437 26.8711 207.435 26.9808 207.455 27.0875C207.475 27.1942 207.517 27.2958 207.577 27.386C207.638 27.4761 207.716 27.5531 207.807 27.6121L207.196 29.0806L206.933 29.7068C206.873 29.693 206.813 29.686 206.752 29.6858C206.611 29.6857 206.473 29.7225 206.352 29.7925C206.23 29.8625 206.129 29.9633 206.059 30.0846L203.364 28.3835L201.371 27.1246C201.415 27.0151 201.434 26.8973 201.427 26.7797C201.42 26.662 201.387 26.5473 201.33 26.4439C201.273 26.3404 201.195 26.2507 201.099 26.1812C201.004 26.1117 200.894 26.0641 200.778 26.0417C200.662 26.0194 200.543 26.0229 200.429 26.0521C200.314 26.0812 200.208 26.1352 200.116 26.2102C200.025 26.2852 199.952 26.3794 199.902 26.486C199.851 26.5926 199.825 26.709 199.825 26.8269C199.825 26.8819 199.831 26.9367 199.842 26.9905L196.063 28.5307L195.692 28.6818C195.645 28.5725 195.574 28.4751 195.484 28.3967C195.395 28.3182 195.289 28.2607 195.174 28.2283C195.06 28.1959 194.939 28.1893 194.822 28.2092C194.704 28.2291 194.593 28.2749 194.495 28.3432C194.398 28.4115 194.317 28.5007 194.258 28.6042C194.199 28.7078 194.165 28.823 194.156 28.9417C194.148 29.0603 194.166 29.1794 194.209 29.2901C194.253 29.4009 194.32 29.5006 194.407 29.5819L193.846 30.218L191.167 33.2542C191 33.1412 190.798 33.0945 190.598 33.1231C190.399 33.1518 190.218 33.2537 190.09 33.409C189.962 33.5642 189.897 33.7615 189.907 33.9622C189.918 34.1629 190.003 34.3525 190.146 34.4937C190.29 34.6349 190.481 34.7175 190.682 34.7254C190.883 34.7332 191.08 34.6658 191.233 34.5362C191.387 34.4066 191.487 34.2243 191.513 34.025C191.539 33.8258 191.49 33.624 191.375 33.4592C192.137 32.5945 192.899 31.7303 193.662 30.8665C193.993 30.4915 194.324 30.1166 194.655 29.7416C194.776 29.7907 194.908 29.8093 195.038 29.7958C195.169 29.7823 195.294 29.7371 195.402 29.6641C195.511 29.5912 195.6 29.4927 195.662 29.3774C195.724 29.262 195.757 29.1333 195.757 29.0024C195.757 28.9919 195.757 28.9814 195.757 28.9709L195.812 28.9486L199.952 27.2612C200.018 27.3643 200.107 27.4509 200.211 27.5144C200.316 27.5778 200.434 27.6164 200.556 27.6272C200.678 27.638 200.801 27.6207 200.915 27.5766C201.029 27.5325 201.132 27.4628 201.215 27.3729L203.025 28.5162L205.963 30.3698C205.957 30.4093 205.954 30.4493 205.953 30.4893C205.953 30.6276 205.989 30.7635 206.057 30.8838C206.126 31.0041 206.224 31.1048 206.343 31.176C206.461 31.2471 206.596 31.2864 206.735 31.29C206.873 31.2936 207.01 31.2614 207.132 31.1964C207.255 31.1315 207.358 31.0361 207.432 30.9194C207.507 30.8028 207.55 30.669 207.557 30.5309C207.564 30.3928 207.535 30.2553 207.473 30.1316C207.412 30.0079 207.319 29.9023 207.204 29.8251L208.076 27.7264C208.228 27.7589 208.386 27.7467 208.531 27.6913C208.675 27.6359 208.801 27.5398 208.892 27.4146C208.983 27.2894 209.036 27.1404 209.044 26.9859C209.052 26.8313 209.015 26.6777 208.937 26.5437L209.431 26.1193L211.544 24.3025L212 23.9083C212.11 23.9542 212.228 23.9752 212.346 23.9699C212.465 23.9647 212.581 23.9332 212.685 23.8778C212.79 23.8224 212.882 23.7445 212.953 23.6496C213.024 23.5547 213.073 23.4453 213.096 23.3293C213.12 23.2132 213.117 23.0933 213.089 22.9784C213.06 22.8634 213.007 22.7562 212.932 22.6644C212.857 22.5727 212.762 22.4987 212.655 22.4478C212.548 22.3969 212.431 22.3704 212.312 22.3702L212.31 22.3662Z" fill="#2BD29B"/>
<g opacity="0.21">
<path d="M179.35 43.2435C165.74 39.3814 151.52 47.2942 147.653 60.8814C147.524 61.3328 147.58 61.8167 147.809 62.2267C148.038 62.6366 148.421 62.9391 148.873 63.0674C149.325 63.1957 149.81 63.1395 150.22 62.9111C150.631 62.6826 150.934 62.3007 151.062 61.8492C154.396 50.1393 166.651 43.3204 178.38 46.6477C178.832 46.776 179.317 46.7198 179.728 46.4913C180.138 46.2629 180.441 45.8809 180.57 45.4295C180.698 44.9781 180.642 44.4942 180.413 44.0842C180.184 43.6743 179.802 43.3719 179.35 43.2435Z" fill="white"/>
</g>
<g opacity="0.21">
<path d="M179.35 43.2435C165.74 39.3814 151.52 47.2942 147.653 60.8814C147.524 61.3328 147.58 61.8167 147.809 62.2267C148.038 62.6366 148.421 62.9391 148.873 63.0674C149.325 63.1957 149.81 63.1395 150.22 62.9111C150.631 62.6826 150.934 62.3007 151.062 61.8492C154.396 50.1393 166.651 43.3204 178.38 46.6477C178.832 46.776 179.317 46.7198 179.728 46.4913C180.138 46.2629 180.441 45.8809 180.57 45.4295C180.698 44.9781 180.642 44.4942 180.413 44.0842C180.184 43.6743 179.802 43.3719 179.35 43.2435Z" fill="white"/>
</g>
<path d="M190.026 93.3978C189.972 93.4162 189.919 93.4381 189.868 93.4635L187.302 94.892C187.158 94.9718 187.032 95.079 186.93 95.2076C186.828 95.3362 186.752 95.4836 186.707 95.6415C186.662 95.7993 186.649 95.9643 186.668 96.1273C186.687 96.2902 186.738 96.4479 186.818 96.5911L187.692 98.1569C189.588 97.0878 191.547 96.1082 192.587 95.7659L191.571 93.9465C191.423 93.6843 191.185 93.4844 190.901 93.3836C190.617 93.2828 190.306 93.2879 190.026 93.3978Z" fill="#C2F6E5"/>
<g opacity="0.21">
<path d="M190.397 86.93C201.35 75.9947 201.35 58.2651 190.397 47.3298C179.444 36.3945 161.686 36.3945 150.733 47.3298C139.78 58.2651 139.78 75.9947 150.733 86.93C161.686 97.8653 179.444 97.8653 190.397 86.93Z" fill="white"/>
</g>
<path d="M55.2102 51.2275L55.1378 50.9805C55.1545 51.0648 55.1788 51.1475 55.2102 51.2275Z" fill="white"/>
</svg>
