<svg width="216" height="151" viewBox="0 0 216 151" fill="none" xmlns="http://www.w3.org/2000/svg">
<path d="M18.4282 125.031C20.6075 126.263 22.5097 127.344 24.1349 128.273L19.398 130.003C19.3043 130.037 19.256 130.141 19.2903 130.235C19.3245 130.329 19.4283 130.377 19.522 130.343L24.5227 128.516C24.53 128.514 24.537 128.511 24.5437 128.507C27.0862 129.963 28.9092 131.026 30.0127 131.696C30.098 131.748 30.2091 131.721 30.261 131.636C30.3128 131.55 30.2856 131.439 30.2003 131.388C28.3561 130.267 24.5103 128.054 18.6619 124.748L18.0699 118.947C18.0455 118.707 17.6859 118.744 17.7104 118.983L18.2764 124.53C13.8899 122.051 8.40975 118.976 1.83569 115.302C1.74857 115.254 1.63848 115.285 1.5898 115.372C1.54112 115.459 1.57228 115.569 1.65941 115.618C5.25988 117.63 8.53223 119.462 11.4764 121.115L6.38477 122.33C6.28769 122.354 6.22777 122.451 6.25093 122.548C6.2741 122.645 6.37157 122.705 6.46865 122.682L11.9407 121.376C14.2997 122.701 16.4429 123.909 18.3704 124.998C18.3875 125.013 18.4072 125.024 18.4282 125.031Z" fill="white"/>
<path d="M25.7983 122.896L29.482 118.375C29.6342 118.188 29.354 117.96 29.2018 118.147L25.6798 122.469C24.3308 117.615 22.6307 111.565 20.5795 104.319C20.5523 104.223 20.4525 104.167 20.3564 104.194C20.2604 104.222 20.2046 104.321 20.2318 104.417C21.3552 108.386 22.3733 111.996 23.286 115.247L18.8266 112.505C18.7416 112.453 18.6303 112.48 18.578 112.565C18.5258 112.65 18.5523 112.761 18.6373 112.813L23.4299 115.759C24.1609 118.364 24.8226 120.734 25.4151 122.867C25.4167 122.89 25.423 122.911 25.4329 122.931C26.1028 125.343 26.6837 127.452 27.1756 129.259L22.603 127.132C22.5125 127.09 22.405 127.13 22.3629 127.22C22.3208 127.311 22.3601 127.418 22.4506 127.46L27.278 129.705C27.285 129.708 27.2921 129.711 27.2993 129.713C28.0675 132.541 28.6049 134.581 28.9113 135.836C28.935 135.933 29.0327 135.992 29.1297 135.968C29.2266 135.945 29.286 135.847 29.2624 135.75C28.7503 133.654 27.5957 129.37 25.7983 122.896Z" fill="white"/>
<path d="M38.7035 143.542C30.1671 128.412 18.4735 125.423 3.62274 134.577C6.96537 141.557 11.7519 146.344 17.9822 148.937C24.2126 151.529 31.1197 149.731 38.7035 143.542Z" fill="#A4E3CE"/>
<path d="M24.2968 139.632L22.2235 134.181C22.1378 133.956 21.8 134.085 21.8857 134.31L23.868 139.521C18.9895 138.262 12.9 136.709 5.59919 134.863C5.50244 134.838 5.40416 134.897 5.37969 134.994C5.35522 135.091 5.41381 135.189 5.51057 135.213C9.50904 136.225 13.1442 137.148 16.416 137.983L11.8123 140.474C11.7245 140.522 11.6918 140.631 11.7393 140.719C11.7868 140.807 11.8965 140.839 11.9843 140.792L16.9319 138.115C19.5535 138.784 21.9362 139.396 24.08 139.949C24.1004 139.959 24.1222 139.964 24.1443 139.966C26.5682 140.592 28.6854 141.143 30.4957 141.62L26.3679 144.517C26.2862 144.575 26.2665 144.687 26.3238 144.769C26.3812 144.851 26.4939 144.87 26.5755 144.813L30.9332 141.755C30.9396 141.75 30.9455 141.746 30.9511 141.741C33.7838 142.489 35.8199 143.044 37.0592 143.406C37.155 143.434 37.2553 143.379 37.2833 143.283C37.3113 143.187 37.2563 143.087 37.1605 143.059C35.0892 142.454 30.8017 141.312 24.2968 139.632Z" fill="white"/>
<path fill-rule="evenodd" clip-rule="evenodd" d="M120.02 60.1796C120.02 83.9314 139.275 103.187 163.028 103.187C186.781 103.187 206.036 83.9314 206.036 60.1796C206.036 36.4278 186.781 17.1719 163.028 17.1719C139.275 17.1719 120.02 36.4278 120.02 60.1796ZM182.363 60.1794C182.363 70.8587 173.706 79.5148 163.028 79.5148C152.35 79.5148 143.692 70.8587 143.692 60.1794C143.692 49.5 152.35 40.844 163.028 40.844C173.706 40.844 182.363 49.5 182.363 60.1794Z" fill="#45685D"/>
<path d="M135.38 123.064H188.699C203.663 123.064 215.794 135.2 215.794 150.17H162.475C147.511 150.17 135.38 138.035 135.38 123.064Z" fill="#48A284"/>
<path d="M24.0662 21.8701H55.1474V71.9253H24.0662V21.8701Z" fill="#48A284"/>
<path d="M63.0981 16.5391H160.498C162.494 16.5391 164.112 18.1571 164.112 20.1532V146.646C164.112 148.642 162.494 150.26 160.498 150.26H63.0981C61.1021 150.26 59.484 148.642 59.484 146.646V20.1532C59.484 18.1571 61.1021 16.5391 63.0981 16.5391Z" fill="#246950"/>
<path d="M64.9051 21.96H158.691V144.839H64.9051V21.96Z" fill="white"/>
<circle cx="142.247" cy="44.5477" r="8.13171" fill="#25795E"/>
<path d="M145.157 41.7437C145.461 41.4095 145.979 41.3843 146.315 41.6874C146.65 41.9905 146.675 42.5071 146.371 42.8413L142.432 47.1707C142.148 47.483 141.672 47.5285 141.334 47.2757L138.599 45.2335C138.237 44.9629 138.164 44.4509 138.435 44.0899C138.706 43.7289 139.22 43.6555 139.582 43.926L141.719 45.5222L145.157 41.7437Z" fill="white"/>
<path d="M72.1334 36.416H99.0584V41.8372H72.1334V36.416Z" fill="#308267"/>
<path d="M72.1334 47.2588H122.55V52.6799H72.1334V47.2588Z" fill="#308267"/>
<circle cx="142.247" cy="69.8465" r="8.13171" fill="#2D8367"/>
<path d="M145.157 67.0425C145.461 66.7083 145.979 66.6831 146.315 66.9862C146.65 67.2893 146.675 67.8059 146.371 68.1401L142.432 72.4696C142.148 72.7818 141.672 72.8273 141.334 72.5745L138.599 70.5323C138.237 70.2618 138.164 69.7498 138.435 69.3887C138.706 69.0277 139.22 68.9543 139.582 69.2248L141.719 70.821L145.157 67.0425Z" fill="white"/>
<path d="M72.1334 61.7148H99.0584V67.136H72.1334V61.7148Z" fill="#308267"/>
<path d="M72.1334 72.5566H122.55V77.9778H72.1334V72.5566Z" fill="#308267"/>
<circle cx="142.247" cy="95.1454" r="8.13171" fill="#25795E"/>
<path d="M145.157 92.3413C145.461 92.0072 145.979 91.982 146.315 92.2851C146.65 92.5882 146.675 93.1048 146.371 93.4389L142.432 97.7684C142.148 98.0807 141.672 98.1261 141.334 97.8733L138.599 95.8311C138.237 95.5606 138.164 95.0486 138.435 94.6876C138.706 94.3265 139.22 94.2531 139.582 94.5237L141.719 96.1199L145.157 92.3413Z" fill="white"/>
<path d="M72.1334 87.0137H99.0584V92.4348H72.1334V87.0137Z" fill="#308267"/>
<path d="M72.1334 97.8555H122.55V103.277H72.1334V97.8555Z" fill="#308267"/>
<circle cx="142.247" cy="120.444" r="8.13171" fill="#2D8367"/>
<path d="M145.157 117.64C145.461 117.306 145.979 117.281 146.315 117.584C146.65 117.887 146.675 118.404 146.371 118.738L142.432 123.067C142.148 123.379 141.672 123.425 141.334 123.172L138.599 121.13C138.237 120.859 138.164 120.347 138.435 119.986C138.706 119.625 139.22 119.552 139.582 119.822L141.719 121.419L145.157 117.64Z" fill="white"/>
<path d="M72.1334 112.312H99.0584V117.734H72.1334V112.312Z" fill="#308267"/>
<path d="M72.1334 123.154H122.55V128.575H72.1334V123.154Z" fill="#308267"/>
<path d="M49.0039 150.198H78.6395C78.6395 142.014 72.0053 135.38 63.8217 135.38C55.6381 135.38 49.0039 142.014 49.0039 150.198Z" fill="url(#paint0_linear_545_5387)"/>
<path d="M46.1829 73.9491L59.4838 72.9732V67.5405L46.1829 65.9834V73.9491Z" fill="#A4E3CE"/>
<path d="M38.6612 147.717C39.6074 147.436 40.6975 147.38 41.9316 147.547C43.7827 147.798 45.9005 148.229 45.2441 149.277C44.5877 150.326 41.577 150.37 40.0855 150.141C38.594 149.912 38.4201 150.044 36.9981 150.141C35.5762 150.238 35.326 150.149 35.326 149.341C35.326 148.534 35.326 147.534 35.326 147.089C35.326 146.643 35.3927 146.256 36.4298 146.633C37.1211 146.885 37.8649 147.246 38.6612 147.717Z" fill="#A4E3CE"/>
<path d="M62.1525 133.803C63.0988 133.522 64.1889 133.466 65.423 133.633C67.2741 133.884 69.3919 134.315 68.7355 135.363C68.079 136.412 65.0684 136.456 63.5769 136.227C62.0854 135.998 61.9115 136.13 60.4895 136.227C59.0676 136.324 58.8174 136.235 58.8174 135.427C58.8174 134.62 58.8174 133.62 58.8174 133.175C58.8174 132.729 58.8841 132.342 59.9212 132.719C60.6125 132.971 61.3563 133.332 62.1525 133.803Z" fill="#A4E3CE"/>
<path d="M58.8245 129.062H62.7327V133.091L65.025 133.585C63.3669 134.357 61.465 134.417 59.7617 133.751L58.8245 133.384V129.062Z" fill="#FE9F9F"/>
<path d="M35.3323 142.977H39.2406V147.006L41.5329 147.5C39.8748 148.273 37.9729 148.332 36.2695 147.666L35.3323 147.299V142.977Z" fill="#FE9F9F"/>
<path d="M39.8221 145.349H34.7391L32.4714 93.0938L48.1196 93.4104L39.8221 145.349Z" fill="#A4E3CE"/>
<path d="M63.5172 130.937H58.1411L55.2919 111.62L43.8039 107.945C37.3076 105.867 32.7849 99.973 32.4587 93.1602L49.7848 93.4456L63.2733 105.631C64.0287 106.313 64.4423 107.296 64.4025 108.313L63.5172 130.937Z" fill="#48A284"/>
<path d="M71.3247 47.3075C71.5879 46.8412 71.8654 46.3286 72.1572 45.7695C73.7596 46.1725 74.6838 47.1226 74.93 48.6198C75.1761 50.1171 73.7784 51.9952 70.7367 54.254L68.2375 51.3191C68.3869 51.2023 68.5342 51.0773 68.6796 50.9441L68.548 50.7849C69.1103 49.9089 69.4464 49.2032 69.5563 48.6678C69.6661 48.1323 69.7272 47.5497 69.7394 46.9201C70.4413 46.9255 70.9697 47.0547 71.3247 47.3075Z" fill="#FE9F9F"/>
<path d="M43.264 62.3652L38.965 61.2103L39.395 59.1872C38.1817 57.0559 38.1817 54.395 39.395 51.2047C40.6083 48.0144 43.7364 47.4634 48.7792 49.5519L49.1388 54.7336L48.0858 54.9163C47.9611 55.683 47.8773 56.1877 47.8344 56.4303C47.6274 57.6003 46.9561 58.3938 45.5936 58.3938C44.6853 58.3938 43.9088 59.7176 43.264 62.3652Z" fill="#FE9F9F"/>
<path d="M42.1279 60.9755C42.996 60.9755 49.5744 59.2482 61.8633 55.7938L68.6006 50.2793L71.9281 53.6832L64.9295 61.3204C64.6123 61.6665 64.2307 61.9475 63.8061 62.1477L49.7971 68.7519C51.0837 69.9462 51.6061 71.4065 51.3642 73.1329C51.1224 74.8592 50.2752 76.2638 48.8228 77.3465L49.7971 93.4783H32.1586V68.565C32.1586 64.3734 35.5566 60.9755 39.7482 60.9755C40.5414 60.9755 41.3347 60.9755 42.1279 60.9755Z" fill="url(#paint1_linear_545_5387)"/>
<path fill-rule="evenodd" clip-rule="evenodd" d="M39.7819 94.8616L39.8816 94.7109L40.9365 95.409L40.8368 95.5597L39.7819 94.8616ZM42.3442 96.5569L42.4439 96.4062L43.4988 97.1043L43.3991 97.255L42.3442 96.5569ZM45.0054 98.101L44.9057 98.2517L45.9606 98.9497L46.0603 98.799L45.0054 98.101ZM47.4679 99.9472L47.5676 99.7965L48.6225 100.495L48.5228 100.645L47.4679 99.9472ZM50.1291 101.491L50.0294 101.642L51.0843 102.34L51.184 102.189L50.1291 101.491ZM52.5916 103.337L52.6913 103.187L53.7462 103.885L53.6465 104.035L52.5916 103.337ZM55.2528 104.882L55.1531 105.033L56.208 105.731L56.3077 105.58L55.2528 104.882ZM57.7089 106.73L57.8153 106.584C58.1639 106.838 58.4805 107.131 58.7595 107.457L58.6221 107.575C58.3523 107.259 58.0461 106.976 57.7089 106.73ZM59.7049 109.034L59.5366 109.1C59.6877 109.487 59.7933 109.891 59.8508 110.304L60.0298 110.279C59.9703 109.852 59.8611 109.435 59.7049 109.034ZM59.9478 112.095L60.1283 112.087L60.1787 113.351L59.9981 113.358L59.9478 112.095ZM60.2507 115.157L60.0701 115.164L60.1204 116.428L60.301 116.421L60.2507 115.157ZM60.1924 118.233L60.373 118.226L60.4233 119.49L60.2427 119.497L60.1924 118.233ZM60.4953 121.296L60.3147 121.303L60.3651 122.567L60.5456 122.56L60.4953 121.296ZM60.437 124.373L60.6176 124.366L60.6679 125.629L60.4874 125.637L60.437 124.373ZM60.7399 127.435L60.5593 127.442L60.6097 128.706L60.7902 128.699L60.7399 127.435Z" fill="white"/>
<path d="M47.9205 51.5423C44.7578 52.0499 42.3347 52.1779 42.3347 54.6395C42.3347 57.1011 43.0291 60.9661 37.1002 65.3129C31.1713 69.6596 32.4148 73.6312 32.4148 78.7638C25.1873 75.457 22.6522 71.1371 24.8095 65.804C28.0456 57.8045 35.9664 63.2249 35.9664 52.9566C35.9664 42.6882 44.3531 45.0347 47.295 45.7205C50.2369 46.4063 51.0833 51.0348 47.9205 51.5423Z" fill="#A4E3CE"/>
<path d="M196.907 97.708L198.868 101.723C199.855 103.743 199.492 106.164 197.955 107.806L192.992 113.111L190.998 110.367L194.557 105.41L192.992 101.503L196.907 97.708Z" fill="#FE9F9F"/>
<path d="M187.427 85.5498L192.11 87.6417L197.898 97.6568L194.067 102.519L187.427 95.2982V85.5498Z" fill="#A4E3CE"/>
<path d="M194.712 141.312H198.618V145.221H194.712V141.312Z" fill="#FE9F9F"/>
<path d="M198.184 141.096H200.968C201.447 141.096 201.836 141.484 201.836 141.963V149.662C201.836 149.968 201.533 150.215 201.16 150.215C199.706 150.215 199.516 149.111 199.052 147.801L198.184 145.201V141.096Z" fill="#A4E3CE"/>
<path d="M167.154 143.219V147.125H163.246V143.219H167.154Z" fill="#FE9F9F"/>
<path d="M161.316 123.226C161.313 123.149 161.311 123.072 161.311 122.996C161.311 120.002 163.738 117.574 166.732 117.574H181.041L193.844 117.258V122.626C193.844 125.62 191.417 128.048 188.423 128.048H169.578L168.061 144.398H162.055L161.316 123.226Z" fill="#A4E3CE"/>
<path d="M167.335 146.652V149.436C167.335 149.915 166.946 150.304 166.467 150.304H158.768C158.463 150.304 158.215 150.001 158.215 149.628C158.215 148.174 159.319 147.984 160.629 147.52L163.23 146.652H167.335Z" fill="#A4E3CE"/>
<path d="M173.117 86.3275V93.7064L161.956 92.1168L148.334 80.9368C146.359 81.4082 144.85 81.4082 143.804 80.9368C142.759 80.4654 142.059 79.2773 141.705 77.3726H145.372V75.6963L146.825 77.5333L162.172 86.3275H173.117Z" fill="#FE9F9F"/>
<path d="M181.736 85.8347C181.592 83.632 181.163 82.382 180.448 82.0848C179.375 81.6389 178.686 81.4154 178.826 80.2867C178.966 79.1581 178.663 78.778 178.196 78.5544C177.729 78.3308 177.353 77.6138 178.687 76.8458C179.576 76.3338 180.087 75.1046 180.218 73.1582C185.026 71.587 187.693 72.4878 188.216 75.8606C188.739 79.2335 188.381 81.8688 187.141 83.7663V85.8347H181.736Z" fill="#FE9F9F"/>
<path d="M170.231 85.1387C177.901 85.1387 182.553 85.1387 184.188 85.1387C184.981 85.1387 185.774 85.1387 186.568 85.1387C190.759 85.1387 194.157 88.5366 194.157 92.7283V117.641H176.519V93.9752H170.231V85.1387Z" fill="#2D8367"/>
<path d="M187.214 83.7223C185.733 83.6769 184.886 83.4212 184.674 82.9549C184.356 82.2556 184.315 81.0088 184.386 80.6153C184.456 80.2218 184.905 80.3865 185.259 80.3865C185.613 80.3865 186.163 79.5893 185.796 78.99C185.429 78.3906 184.922 78.4845 184.674 78.5909C184.427 78.6973 183.831 78.3993 184.031 77.4314C184.23 76.4635 184.676 75.557 184.031 75.557C183.386 75.557 179.773 75.1427 179.583 72.6903C179.392 70.238 180.815 68.8484 183.101 69.9673C185.386 71.0862 186.122 70.9821 187.844 71.375C189.566 71.7678 191.28 72.25 191.643 75.2698C192.005 78.2896 190.799 79.8263 189.411 80.9223C188.022 82.0183 188.34 82.3542 188.148 82.9549C188.02 83.3554 187.709 83.6112 187.214 83.7223Z" fill="#A4E3CE"/>
<path fill-rule="evenodd" clip-rule="evenodd" d="M183.763 119.985L184.126 118.774L183.953 118.722L183.589 119.933L183.763 119.985ZM182.879 122.928L183.243 121.716L183.07 121.664L182.706 122.876L182.879 122.928ZM182.359 124.658L181.995 125.869L181.822 125.817L182.186 124.606L182.359 124.658ZM181.112 128.812L181.476 127.6L181.302 127.548L180.939 128.76L181.112 128.812ZM180.592 130.542L180.228 131.754L180.055 131.702L180.419 130.49L180.592 130.542ZM179.345 134.696L179.709 133.485L179.536 133.433L179.172 134.644L179.345 134.696ZM178.825 136.426L178.462 137.638L178.289 137.586L178.652 136.375L178.825 136.426ZM177.578 140.58L177.942 139.369L177.769 139.317L177.405 140.529L177.578 140.58ZM177.685 142.257C177.901 142.601 178.233 142.86 178.62 142.983L178.566 143.155C178.137 143.019 177.771 142.733 177.532 142.353L177.685 142.257ZM181.655 143.063H180.39V143.244H181.655V143.063ZM183.462 143.063H184.726V143.244H183.462V143.063ZM187.799 143.063H186.534V143.244H187.799V143.063ZM189.606 143.063H190.871V143.244H189.606V143.063ZM193.383 143.063H192.678V143.244H193.383V143.063Z" fill="white"/>
<defs>
<linearGradient id="paint0_linear_545_5387" x1="63.8217" y1="135.38" x2="63.8217" y2="150.198" gradientUnits="userSpaceOnUse">
<stop stop-color="#00BF80"/>
<stop offset="1" stop-color="#7B4CFA"/>
</linearGradient>
<linearGradient id="paint1_linear_545_5387" x1="52.0434" y1="50.2793" x2="52.0434" y2="93.4783" gradientUnits="userSpaceOnUse">
<stop stop-color="#00BF80"/>
<stop offset="1" stop-color="#7B4CFA"/>
</linearGradient>
</defs>
</svg>
