<svg width="144" height="111" viewBox="0 0 144 111" fill="none" xmlns="http://www.w3.org/2000/svg">
<path d="M128.987 57.9295L0.543945 91.034V13.4783C0.543945 11.7651 0.922732 10.0687 1.65866 8.48589C2.39459 6.90312 3.47322 5.46499 4.83304 4.25359C6.19286 3.04218 7.80719 2.08125 9.58389 1.42565C11.3606 0.77005 13.2648 0.432608 15.1879 0.432617H128.498C130.421 0.432617 132.326 0.770066 134.102 1.42567C135.879 2.08128 137.493 3.04221 138.853 4.25361C140.213 5.465 141.291 6.90314 142.027 8.48591C142.763 10.0687 143.142 11.7651 143.142 13.4783V41.154C143.142 44.9391 141.762 48.6217 139.208 51.6473C136.655 54.6729 133.068 56.8776 128.987 57.9295Z" fill="#263C35"/>
<path d="M0.543945 91.0348L22.3663 110.475V85.501L0.543945 91.0348Z" fill="#9B3E89"/>
</svg>
