<svg width="144" height="111" viewBox="0 0 144 111" fill="none" xmlns="http://www.w3.org/2000/svg">
<path d="M129.215 57.9295L0.772461 91.034V13.4783C0.772481 10.0183 2.31532 6.70014 5.0616 4.25361C7.80788 1.80708 11.5326 0.432617 15.4164 0.432617H128.726C130.649 0.432565 132.554 0.769969 134.33 1.42555C136.107 2.08113 137.721 3.04206 139.081 4.25346C140.441 5.46487 141.52 6.90302 142.256 8.48581C142.992 10.0686 143.371 11.765 143.371 13.4783V41.154C143.371 44.9391 141.99 48.6217 139.437 51.6473C136.884 54.6729 133.297 56.8776 129.215 57.9295Z" fill="#396E5D"/>
<path d="M0.771484 91.0348L22.5939 110.475V85.501L0.771484 91.0348Z" fill="#8FAA2D"/>
</svg>
