<svg width="143" height="111" viewBox="0 0 143 111" fill="none" xmlns="http://www.w3.org/2000/svg">
<path d="M128.601 57.9295L0.158203 91.034V13.4783C0.158203 11.7651 0.536994 10.0687 1.27292 8.48591C2.00885 6.90314 3.08748 5.465 4.44729 4.25361C5.80711 3.04221 7.42146 2.08128 9.19814 1.42567C10.9748 0.770066 12.8791 0.432617 14.8021 0.432617H128.112C130.036 0.432608 131.94 0.77005 133.716 1.42565C135.493 2.08125 137.107 3.04218 138.467 4.25359C139.827 5.46499 140.906 6.90312 141.642 8.48589C142.378 10.0687 142.756 11.7651 142.756 13.4783V41.154C142.756 44.9391 141.376 48.6217 138.823 51.6473C136.27 54.6729 132.682 56.8776 128.601 57.9295Z" fill="#2A473D"/>
<path d="M0.158203 91.0348L21.9806 110.475V85.501L0.158203 91.0348Z" fill="#26989E"/>
</svg>
