<svg width="143" height="111" viewBox="0 0 143 111" fill="none" xmlns="http://www.w3.org/2000/svg">
<path d="M128.828 57.9295L0.385742 91.034V13.4783C0.385742 11.7651 0.764529 10.0687 1.50046 8.48589C2.23639 6.90312 3.31506 5.46499 4.67488 4.25359C6.0347 3.04218 7.64904 2.08125 9.42573 1.42565C11.2024 0.77005 13.1067 0.432608 15.0297 0.432617H128.34C130.263 0.432608 132.167 0.77005 133.944 1.42565C135.72 2.08125 137.335 3.04218 138.695 4.25359C140.054 5.46499 141.133 6.90312 141.869 8.48589C142.605 10.0687 142.984 11.7651 142.984 13.4783V41.154C142.984 44.9391 141.603 48.6217 139.05 51.6472C136.497 54.6728 132.91 56.8775 128.828 57.9295Z" fill="#43A685"/>
<path d="M0.385742 91.0348L22.2089 110.475V85.501L0.385742 91.0348Z" fill="#D87430"/>
</svg>
